<?xml version="1.0" encoding="utf-8"?>
<!-- Generator: Adobe Illustrator 16.0.0, SVG Export Plug-In . SVG Version: 6.00 Build 0)  -->
<!DOCTYPE svg PUBLIC "-//W3C//DTD SVG 1.1//EN" "http://www.w3.org/Graphics/SVG/1.1/DTD/svg11.dtd">
<svg version="1.1" id="Layer_1" xmlns="http://www.w3.org/2000/svg" xmlns:xlink="http://www.w3.org/1999/xlink" x="0px" y="0px"
	 width="300px" height="300px" viewBox="0 0 300 300" enable-background="new 0 0 300 300" xml:space="preserve">
<path fill="#7152B9" d="M153.734,97.253c0,16.369-1.678,28.405-5.174,35.823c-3.503,7.415-10.358,13.715-20.854,18.892
	c10.496,5.182,17.495,11.474,20.854,18.894c3.497,7.418,5.174,19.452,5.174,35.826v50.24h34.99c8.816,0,13.15,3.783,13.15,11.475
	c0,7.701-4.334,11.479-13.15,11.479H142.54c-9.093,0-14.554-6.295-14.554-13.578v-65.35c0-24.494-11.198-37.512-28.409-37.512
	c-7.278,0-11.474-4.619-11.474-11.474c0-6.857,4.196-11.477,11.474-11.477c17.211,0,28.409-13.013,28.409-37.507v-65.35
	c0-7.281,5.46-13.438,14.554-13.438h46.185c8.816,0,13.15,3.78,13.15,11.477c0,7.702-4.334,11.474-13.15,11.474h-34.99V97.253z"/>
</svg>
