<?xml version="1.0" encoding="utf-8"?>
<!-- Generator: Adobe Illustrator 16.0.0, SVG Export Plug-In . SVG Version: 6.00 Build 0)  -->
<!DOCTYPE svg PUBLIC "-//W3C//DTD SVG 1.1//EN" "http://www.w3.org/Graphics/SVG/1.1/DTD/svg11.dtd">
<svg version="1.1" id="Layer_1" xmlns="http://www.w3.org/2000/svg" xmlns:xlink="http://www.w3.org/1999/xlink" x="0px" y="0px"
	 width="800px" height="300px" viewBox="0 0 800 300" enable-background="new 0 0 800 300" xml:space="preserve">
<path fill="#7152B9" d="M220.45,160.352c0,2.28-0.234,3.957-0.721,4.99c-0.488,1.033-1.443,1.911-2.905,2.633
	c1.462,0.724,2.437,1.6,2.905,2.633c0.487,1.033,0.721,2.709,0.721,4.99v7h4.875c1.229,0,1.833,0.526,1.833,1.598
	c0,1.074-0.604,1.602-1.833,1.602h-6.434c-1.267,0-2.027-0.877-2.027-1.892V174.8c0-3.411-1.561-5.227-3.958-5.227
	c-1.014,0-1.599-0.644-1.599-1.599s0.584-1.601,1.599-1.601c2.397,0,3.958-1.812,3.958-5.226v-9.104c0-1.016,0.76-1.872,2.027-1.872
	h6.434c1.229,0,1.833,0.526,1.833,1.601c0,1.07-0.604,1.599-1.833,1.599h-4.875V160.352z"/>
<path fill="#A6A9FF" d="M241.956,162.281c0-0.936,0.312-1.717,0.936-2.32s1.385-0.916,2.301-0.916s1.677,0.312,2.301,0.916
	s0.936,1.385,0.936,2.32c0,0.917-0.312,1.695-0.936,2.301c-0.624,0.604-1.385,0.916-2.301,0.916s-1.677-0.312-2.301-0.916
	S241.956,163.198,241.956,162.281z M241.956,176.163c0-0.937,0.312-1.716,0.936-2.319s1.385-0.917,2.301-0.917
	s1.677,0.312,2.301,0.917c0.624,0.604,0.936,1.383,0.936,2.319s-0.312,1.716-0.936,2.319s-1.385,0.916-2.301,0.916
	s-1.677-0.312-2.301-0.916S241.956,177.1,241.956,176.163z"/>
<path fill="#A6A9FF" d="M261.706,175.052c0-1.014,0.682-1.87,1.755-1.87c0.663,0,1.208,0.291,1.638,0.877
	c1.248,1.695,3.022,2.556,5.303,2.556c3.294,0,4.952-1.056,4.952-3.159c0-0.857-0.39-1.426-1.619-1.794
	c-0.604-0.194-1.111-0.332-1.54-0.409c-0.409-0.078-1.111-0.176-2.067-0.312c-1.112-0.155-2.066-0.332-2.828-0.526
	c-0.76-0.214-1.54-0.508-2.378-0.916c-1.638-0.799-2.496-2.242-2.496-4.271c0-2.01,0.761-3.528,2.282-4.582
	c1.54-1.074,3.372-1.6,5.498-1.6c3.295,0,5.732,1.111,7.312,3.312c0.253,0.353,0.39,0.742,0.39,1.149
	c0,1.073-0.799,1.794-1.911,1.794c-0.585,0-1.052-0.271-1.403-0.838c-0.917-1.501-2.379-2.24-4.387-2.24
	c-2.651,0-4.192,1.031-4.192,2.846c0,1.64,1.853,2.32,5.147,2.789c0.995,0.137,1.755,0.252,2.301,0.351s1.229,0.274,2.027,0.546
	c0.819,0.254,1.443,0.564,1.852,0.917c0.839,0.683,1.619,1.97,1.619,3.626c0,2.028-0.819,3.627-2.437,4.777
	c-1.619,1.15-3.686,1.715-6.201,1.715c-3.529,0-6.239-1.15-8.091-3.432C261.881,175.93,261.706,175.5,261.706,175.052z"/>
<path fill="#A6A9FF" d="M303.333,177.45c0,1.11-0.722,1.948-1.793,1.948c-1.073,0-1.794-0.838-1.794-1.948v-0.8
	c-0.292,0.856-0.995,1.599-2.106,2.223c-1.111,0.604-2.281,0.916-3.529,0.916c-5.03,0-7.546-2.573-7.546-7.7v-10.704
	c0-1.111,0.722-1.949,1.794-1.949c1.072,0,1.794,0.838,1.794,1.949v9.904c0,1.893,0.292,3.236,0.877,4.074
	c0.605,0.839,1.619,1.248,3.081,1.248c1.754,0,3.139-0.701,4.133-2.125c0.995-1.424,1.502-3.295,1.502-5.596v-7.508
	c0-1.109,0.721-1.949,1.794-1.949c1.072,0,1.793,0.84,1.793,1.949V177.45L303.333,177.45z"/>
<path fill="#A6A9FF" d="M317.058,179.204c-1.03-0.409-1.812-0.994-2.317-1.754c-0.061,1.11-0.878,1.948-1.794,1.948
	c-1.072,0-1.794-0.838-1.794-1.948v-24.04c0-1.111,0.722-1.971,1.794-1.971c1.07,0,1.794,0.857,1.794,1.971v8.15
	c0.448-0.742,1.209-1.349,2.262-1.813c1.053-0.47,2.164-0.702,3.334-0.702c2.924,0,5.205,0.975,6.824,2.943
	c1.617,1.949,2.437,4.427,2.437,7.429c0,3.256-0.817,5.791-2.457,7.624c-1.638,1.832-3.897,2.748-6.804,2.748
	C319.184,179.789,318.092,179.596,317.058,179.204z M324.545,164.152c-0.975-1.286-2.359-1.93-4.173-1.93
	c-1.812,0-3.196,0.644-4.172,1.93c-0.977,1.269-1.462,3.021-1.462,5.265c0,2.203,0.485,3.958,1.462,5.265
	c0.976,1.287,2.357,1.933,4.172,1.933c1.812,0,3.198-0.646,4.173-1.933c0.975-1.307,1.462-3.062,1.462-5.265
	C326.007,167.175,325.52,165.421,324.545,164.152z"/>
<path fill="#A6A9FF" d="M340.688,162.632c-1.109,0-1.969-0.584-1.969-1.599c0-1.014,0.857-1.6,1.969-1.6h6.26
	c1.015,0,1.794,0.684,1.794,1.6v20.355c0,2.184-0.584,3.801-1.773,4.834c-1.188,1.032-2.749,1.561-4.719,1.561
	c-2.203,0-4.094-0.547-5.635-1.639c-0.762-0.525-1.15-1.11-1.169-1.715c0-0.955,0.699-1.718,1.638-1.718
	c0.37,0,0.741,0.14,1.092,0.392l1.131,0.817c0.487,0.332,1.5,0.663,2.771,0.663c2.047,0,3.08-1.17,3.08-3.51V162.63L340.688,162.632
	L340.688,162.632z M349.345,153.977c0,0.683-0.253,1.287-0.738,1.773c-0.487,0.486-1.094,0.723-1.774,0.723
	s-1.287-0.233-1.774-0.723c-0.485-0.488-0.738-1.093-0.738-1.773c0-0.703,0.253-1.308,0.738-1.795
	c0.487-0.486,1.094-0.74,1.774-0.74s1.287,0.254,1.774,0.74C349.092,152.669,349.345,153.273,349.345,153.977z"/>
<path fill="#A6A9FF" d="M376.096,161.852c1.812,1.873,2.71,4.213,2.71,7c0,1.27-0.778,2.008-2.009,2.008h-13.804
	c0.215,1.602,0.856,2.966,1.969,4.076c1.112,1.111,2.516,1.679,4.212,1.679c2.593,0,4.582-0.819,5.985-2.438
	c0.409-0.447,0.878-0.684,1.403-0.684s0.954,0.195,1.268,0.586c0.644,0.76,0.702,1.793-0.156,2.65
	c-2.125,2.047-4.972,3.08-8.5,3.062c-3.021,0-5.438-0.976-7.231-2.942c-1.774-1.971-2.674-4.445-2.674-7.43
	c0-2.98,0.897-5.438,2.674-7.409c1.793-1.969,4.211-2.963,7.231-2.963C372.001,159.045,374.302,159.98,376.096,161.852z
	 M375.081,167.662c-0.409-1.598-1.092-2.904-2.066-3.919c-0.956-1.015-2.24-1.521-3.841-1.521c-1.619,0-3.003,0.524-4.114,1.577
	c-1.109,1.054-1.812,2.341-2.064,3.86L375.081,167.662L375.081,167.662z"/>
<path fill="#A6A9FF" d="M398.282,159.825c1.109,0.507,2.104,1.247,3.021,2.202c0.526,0.527,0.8,1.093,0.8,1.677
	c0,1.073-0.644,1.833-1.717,1.833c-0.523,0-1.03-0.292-1.479-0.878c-0.684-0.955-1.385-1.599-2.105-1.931
	c-0.702-0.33-1.657-0.506-2.886-0.506c-1.891,0-3.412,0.7-4.562,2.086c-1.149,1.385-1.733,3.08-1.733,5.106s0.584,3.743,1.733,5.128
	c1.149,1.384,2.673,2.066,4.562,2.066c1.229,0,2.184-0.178,2.886-0.508c0.724-0.332,1.424-0.976,2.105-1.931
	c0.449-0.586,0.956-0.878,1.479-0.878c0.527,0,0.956,0.176,1.248,0.525c0.312,0.332,0.468,0.781,0.468,1.308
	c0,0.584-0.271,1.149-0.799,1.677c-0.917,0.955-1.911,1.696-3.021,2.223c-1.111,0.509-2.556,0.762-4.367,0.762
	c-3.021,0-5.439-0.977-7.233-2.942c-1.772-1.971-2.671-4.444-2.671-7.43c0-2.981,0.896-5.438,2.671-7.409
	c1.794-1.969,4.212-2.963,7.233-2.963C395.729,159.045,397.171,159.298,398.282,159.825z"/>
<path fill="#A6A9FF" d="M417.059,151.051c1.111,0,1.794,0.818,1.794,1.989v6.396h7.233c1.247,0,1.872,0.525,1.872,1.6
	s-0.625,1.599-1.872,1.599h-7.233v10.451c0,2.438,1.287,3.529,3.08,3.529c1.269,0,2.281-0.332,2.771-0.664l1.148-0.818
	c0.353-0.254,0.701-0.39,1.072-0.409c1.014,0,1.638,0.779,1.638,1.717c0,0.604-0.39,1.188-1.148,1.733
	c-1.541,1.095-3.433,1.64-5.635,1.618c-1.971,0-3.55-0.507-4.737-1.54c-1.189-1.033-1.774-2.649-1.774-4.835v-10.782h-5.187
	c-1.247,0-1.872-0.524-1.872-1.599s0.625-1.6,1.872-1.6h5.187v-6.396C415.265,151.93,415.986,151.051,417.059,151.051z"/>
<path fill="#63DDCE" d="M466.229,162.438c0,0.938-0.312,1.715-0.936,2.342c-0.624,0.623-1.384,0.935-2.301,0.935
	c-0.916,0-1.677-0.312-2.32-0.935c-0.644-0.646-0.955-1.426-0.955-2.342v-0.293c0-1.969,0.487-3.724,1.462-5.264
	c0.977-1.541,2.282-2.652,3.938-3.314c0.176-0.077,0.371-0.115,0.585-0.115c0.702,0,1.209,0.507,1.209,1.07
	c0,0.526-0.331,0.918-0.995,1.15c-1.441,0.508-2.163,1.424-2.163,2.729c0,0.565,0.272,0.955,0.8,1.189
	C465.664,160.176,466.229,161.131,466.229,162.438z M474.224,162.438c0,0.938-0.312,1.715-0.955,2.342
	c-0.624,0.623-1.385,0.935-2.301,0.935c-0.896,0-1.657-0.312-2.301-0.935c-0.644-0.646-0.956-1.426-0.956-2.342v-0.293
	c0-1.969,0.488-3.724,1.443-5.264c0.976-1.541,2.279-2.652,3.938-3.314c0.176-0.077,0.392-0.115,0.604-0.115
	c0.703,0,1.188,0.507,1.188,1.07c0,0.526-0.33,0.918-0.994,1.15c-1.44,0.508-2.164,1.424-2.145,2.729
	c-0.021,0.565,0.254,0.955,0.78,1.189C473.639,160.176,474.204,161.131,474.224,162.438z"/>
<path fill="#63DDCE" d="M497.249,159.825c1.111,0.507,2.104,1.247,3.022,2.202c0.524,0.527,0.8,1.093,0.8,1.677
	c0,1.073-0.646,1.833-1.719,1.833c-0.523,0-1.03-0.292-1.479-0.878c-0.684-0.955-1.385-1.599-2.106-1.931
	c-0.7-0.33-1.655-0.506-2.886-0.506c-1.891,0-3.412,0.7-4.562,2.086c-1.15,1.385-1.734,3.08-1.734,5.106s0.584,3.743,1.734,5.128
	c1.148,1.384,2.672,2.066,4.562,2.066c1.229,0,2.186-0.178,2.886-0.508c0.724-0.332,1.425-0.976,2.106-1.931
	c0.448-0.586,0.955-0.878,1.479-0.878c0.527,0,0.956,0.176,1.248,0.525c0.312,0.332,0.471,0.781,0.471,1.308
	c0,0.584-0.273,1.149-0.802,1.677c-0.917,0.955-1.909,1.696-3.021,2.223c-1.111,0.509-2.554,0.762-4.367,0.762
	c-3.021,0-5.438-0.977-7.231-2.942c-1.773-1.971-2.673-4.444-2.673-7.43c0-2.981,0.897-5.438,2.673-7.409
	c1.794-1.969,4.212-2.963,7.231-2.963C494.695,159.045,496.138,159.298,497.249,159.825z"/>
<path fill="#63DDCE" d="M516.746,176.202v-21.563h-4.465c-1.111,0-1.971-0.584-1.971-1.599s0.857-1.601,1.971-1.601h6.259
	c1.015,0,1.794,0.723,1.794,1.601v23.162h5.79c1.112,0,1.97,0.585,1.97,1.599s-0.855,1.6-1.97,1.6h-15.168
	c-1.111,0-1.95-0.586-1.95-1.6s0.839-1.599,1.95-1.599H516.746z"/>
<path fill="#63DDCE" d="M542.054,179.789c-2.847,0-5.146-0.975-6.922-2.925c-1.754-1.97-2.632-4.444-2.632-7.447
	c0-3.002,0.878-5.479,2.632-7.429c1.774-1.969,4.075-2.943,6.922-2.943c2.849,0,5.146,0.975,6.902,2.943
	c1.754,1.949,2.632,4.427,2.632,7.429c0,3.003-0.878,5.479-2.632,7.447C547.2,178.814,544.9,179.789,542.054,179.789z
	 M536.106,169.417c0,2.203,0.546,3.958,1.638,5.265c1.093,1.287,2.535,1.933,4.31,1.933c1.773,0,3.219-0.646,4.311-1.933
	c1.092-1.307,1.638-3.062,1.638-5.265s-0.546-3.958-1.638-5.244c-1.092-1.307-2.535-1.95-4.311-1.95c-1.772,0-3.217,0.646-4.31,1.95
	C536.652,165.459,536.106,167.214,536.106,169.417z"/>
<path fill="#63DDCE" d="M563.364,162.632c-1.111,0-1.97-0.584-1.97-1.599c0-1.014,0.856-1.6,1.97-1.6h6.258
	c1.014,0,1.794,0.684,1.794,1.6v20.355c0,2.184-0.585,3.801-1.774,4.834c-1.188,1.032-2.749,1.561-4.718,1.561
	c-2.203,0-4.095-0.547-5.635-1.639c-0.761-0.525-1.15-1.11-1.17-1.715c0-0.955,0.702-1.718,1.638-1.718
	c0.371,0,0.741,0.14,1.092,0.392l1.133,0.817c0.485,0.332,1.5,0.663,2.769,0.663c2.047,0,3.081-1.17,3.081-3.51V162.63
	L563.364,162.632L563.364,162.632z M572.021,153.977c0,0.683-0.255,1.287-0.741,1.773c-0.487,0.486-1.094,0.723-1.774,0.723
	s-1.286-0.233-1.771-0.723c-0.488-0.486-0.741-1.093-0.741-1.773c0-0.703,0.253-1.308,0.741-1.795
	c0.485-0.486,1.092-0.74,1.771-0.74c0.685,0,1.287,0.254,1.774,0.74C571.768,152.669,572.021,153.273,572.021,153.977z"/>
<path fill="#63DDCE" d="M600.232,177.45c0,1.11-0.723,1.948-1.795,1.948c-1.071,0-1.794-0.838-1.794-1.948v-0.8
	c-0.293,0.856-0.992,1.599-2.104,2.223c-1.111,0.604-2.28,0.916-3.529,0.916c-5.028,0-7.545-2.573-7.545-7.7v-10.704
	c0-1.111,0.723-1.949,1.794-1.949c1.072,0,1.793,0.838,1.793,1.949v9.904c0,1.893,0.293,3.236,0.878,4.074
	c0.604,0.839,1.619,1.248,3.08,1.248c1.756,0,3.142-0.701,4.135-2.125s1.503-3.295,1.503-5.596v-7.508
	c0-1.109,0.721-1.949,1.793-1.949c1.071,0,1.794,0.84,1.794,1.949L600.232,177.45L600.232,177.45z"/>
<path fill="#63DDCE" d="M609.845,161.463c0-1.171,0.723-2.027,1.794-2.027c1.072,0,1.794,0.856,1.794,2.027v0.896
	c0.486-0.857,1.27-1.617,2.358-2.301c1.093-0.684,2.301-1.015,3.607-1.015c3.334,0,5.595,1.247,6.821,3.743
	c0.156,0.332,0.234,0.645,0.234,0.955c0,1.109-0.976,1.91-1.988,1.91c-0.683,0-1.188-0.369-1.521-1.11
	c-0.741-1.541-1.933-2.319-3.551-2.319c-1.97,0-3.471,0.762-4.465,2.28s-1.501,3.412-1.501,5.674v7.194
	c0,1.17-0.722,2.025-1.794,2.025s-1.794-0.855-1.794-2.025v-15.909L609.845,161.463L609.845,161.463z"/>
<path fill="#63DDCE" d="M648.254,161.852c1.813,1.873,2.71,4.213,2.71,7c0,1.27-0.78,2.008-2.009,2.008h-13.804
	c0.215,1.602,0.856,2.966,1.97,4.076c1.11,1.111,2.515,1.679,4.211,1.679c2.593,0,4.582-0.819,5.985-2.438
	c0.408-0.447,0.878-0.684,1.402-0.684c0.526,0,0.955,0.195,1.27,0.586c0.644,0.76,0.702,1.793-0.156,2.65
	c-2.125,2.047-4.972,3.08-8.501,3.062c-3.021,0-5.439-0.976-7.233-2.942c-1.771-1.971-2.671-4.445-2.671-7.43
	c0-2.98,0.897-5.438,2.671-7.409c1.794-1.969,4.212-2.963,7.233-2.963C644.159,159.045,646.46,159.98,648.254,161.852z
	 M647.239,167.662c-0.408-1.598-1.091-2.904-2.066-3.919c-0.955-1.015-2.242-1.521-3.841-1.521c-1.618,0-3.003,0.524-4.113,1.577
	c-1.109,1.054-1.812,2.341-2.065,3.86L647.239,167.662L647.239,167.662z"/>
<path fill="#63DDCE" d="M658.724,156.275c0-0.938,0.312-1.715,0.938-2.34c0.644-0.623,1.404-0.937,2.301-0.937
	c0.917,0,1.677,0.312,2.32,0.955c0.644,0.623,0.955,1.401,0.955,2.319v0.291c0,1.972-0.486,3.744-1.462,5.283
	c-0.955,1.541-2.264,2.633-3.919,3.297c-0.178,0.078-0.392,0.117-0.604,0.117c-0.702,0-1.188-0.508-1.188-1.072
	c0-0.526,0.33-0.918,0.994-1.17c1.441-0.508,2.163-1.402,2.145-2.711c0-0.563-0.271-0.955-0.799-1.188
	C659.289,158.538,658.724,157.582,658.724,156.275z M666.718,156.275c0-0.938,0.312-1.715,0.938-2.34
	c0.624-0.623,1.384-0.937,2.301-0.937c0.916,0,1.677,0.312,2.32,0.955c0.644,0.623,0.955,1.401,0.955,2.319v0.291
	c0,1.972-0.487,3.744-1.464,5.283c-0.976,1.541-2.279,2.633-3.938,3.297c-0.175,0.078-0.37,0.117-0.585,0.117
	c-0.701,0-1.208-0.508-1.208-1.072c0-0.526,0.331-0.918,0.994-1.17c1.44-0.508,2.164-1.402,2.164-2.711
	c0-0.563-0.272-0.955-0.8-1.188C667.282,158.538,666.718,157.582,666.718,156.275z"/>
<path fill="#A6A9FF" d="M241.956,210.197c0-0.938,0.312-1.717,0.936-2.32s1.385-0.917,2.301-0.917s1.677,0.313,2.301,0.917
	s0.936,1.385,0.936,2.32c0,0.916-0.312,1.695-0.936,2.3s-1.385,0.918-2.301,0.918s-1.677-0.313-2.301-0.918
	C242.268,211.895,241.956,211.113,241.956,210.197z M241.956,224.079c0-0.937,0.312-1.716,0.936-2.32s1.385-0.916,2.301-0.916
	s1.677,0.312,2.301,0.916s0.936,1.384,0.936,2.32s-0.312,1.715-0.936,2.319c-0.624,0.604-1.385,0.916-2.301,0.916
	s-1.677-0.312-2.301-0.916C242.268,225.794,241.956,225.016,241.956,224.079z"/>
<path fill="#A6A9FF" d="M269.33,224.118v-21.563h-4.465c-1.111,0-1.969-0.585-1.969-1.6c0-1.014,0.858-1.6,1.969-1.6h6.259
	c1.014,0,1.793,0.723,1.793,1.6v23.163h5.791c1.111,0,1.969,0.586,1.969,1.599c0,1.014-0.858,1.6-1.969,1.6H263.54
	c-1.112,0-1.95-0.586-1.95-1.6c0-1.013,0.838-1.599,1.95-1.599H269.33z"/>
<path fill="#A6A9FF" d="M294.637,227.706c-2.847,0-5.147-0.976-6.922-2.927c-1.754-1.969-2.632-4.443-2.632-7.446
	s0.877-5.479,2.632-7.429c1.775-1.969,4.075-2.944,6.922-2.944c2.846,0,5.147,0.976,6.902,2.944
	c1.754,1.949,2.631,4.426,2.631,7.429s-0.877,5.479-2.631,7.446C299.784,226.73,297.483,227.706,294.637,227.706z M288.69,217.333
	c0,2.203,0.545,3.957,1.638,5.265c1.092,1.287,2.535,1.93,4.309,1.93c1.774,0,3.217-0.643,4.309-1.93
	c1.091-1.308,1.638-3.062,1.638-5.265s-0.546-3.958-1.638-5.245c-1.092-1.306-2.535-1.949-4.309-1.949
	c-1.774,0-3.217,0.646-4.309,1.949C289.235,213.375,288.69,215.13,288.69,217.333z"/>
<path fill="#A6A9FF" d="M324.058,207.74c1.111,0.507,2.105,1.249,3.022,2.203c0.525,0.524,0.799,1.092,0.799,1.677
	c0,1.073-0.644,1.833-1.716,1.833c-0.525,0-1.033-0.293-1.481-0.877c-0.683-0.956-1.385-1.6-2.104-1.93
	c-0.702-0.334-1.658-0.508-2.886-0.508c-1.894,0-3.412,0.7-4.562,2.086c-1.148,1.385-1.733,3.08-1.733,5.106
	s0.585,3.743,1.733,5.128c1.15,1.387,2.671,2.064,4.562,2.064c1.228,0,2.184-0.174,2.886-0.506c0.721-0.332,1.423-0.977,2.104-1.932
	c0.448-0.585,0.956-0.877,1.481-0.877c0.526,0,0.956,0.176,1.248,0.525c0.312,0.332,0.468,0.779,0.468,1.307
	c0,0.586-0.271,1.15-0.799,1.678c-0.917,0.955-1.911,1.697-3.022,2.223c-1.109,0.508-2.555,0.763-4.365,0.763
	c-3.021,0-5.439-0.978-7.233-2.944c-1.774-1.97-2.671-4.445-2.671-7.429s0.896-5.438,2.671-7.409
	c1.794-1.969,4.212-2.964,7.233-2.964C321.503,206.96,322.946,207.214,324.058,207.74z"/>
<path fill="#A6A9FF" d="M336.984,224.684c-1.64-2.026-2.457-4.482-2.457-7.351c0-2.847,0.838-5.283,2.516-7.312
	c1.677-2.047,3.957-3.062,6.843-3.062c1.092,0,2.146,0.215,3.181,0.645c1.03,0.408,1.852,1.016,2.438,1.812
	c0.097-1.268,0.799-2.066,1.793-2.066c1.111,0,1.931,0.724,1.931,1.988v15.988c0,1.268-0.817,1.988-1.931,1.988
	c-1.014,0-1.696-0.799-1.793-2.066c-0.586,0.799-1.405,1.402-2.438,1.832c-1.034,0.41-2.089,0.625-3.181,0.625
	C340.942,227.706,338.642,226.691,336.984,224.684z M338.134,217.333c0,2.125,0.527,3.86,1.562,5.206
	c1.053,1.324,2.438,1.988,4.172,1.988s3.14-0.663,4.173-1.988c1.053-1.346,1.578-3.081,1.578-5.206s-0.525-3.86-1.578-5.187
	c-1.033-1.348-2.438-2.008-4.173-2.008c-1.734,0-3.119,0.66-4.172,2.008C338.661,213.473,338.134,215.208,338.134,217.333z"/>
<path fill="#A6A9FF" d="M367.575,198.968c1.109,0,1.794,0.817,1.794,1.987v6.396h7.23c1.248,0,1.872,0.524,1.872,1.599
	c0,1.073-0.624,1.599-1.872,1.599h-7.23V221c0,2.438,1.286,3.527,3.08,3.527c1.268,0,2.278-0.33,2.769-0.662l1.15-0.819
	c0.351-0.253,0.701-0.39,1.072-0.407c1.014,0,1.638,0.778,1.638,1.715c0,0.604-0.391,1.188-1.15,1.734
	c-1.54,1.092-3.432,1.639-5.635,1.619c-1.969,0-3.549-0.508-4.738-1.541c-1.188-1.033-1.771-2.652-1.771-4.835v-10.782h-5.188
	c-1.248,0-1.872-0.525-1.872-1.599c0-1.074,0.624-1.599,1.872-1.599h5.188v-6.396C365.781,199.846,366.503,198.968,367.575,198.968z
	"/>
<path fill="#A6A9FF" d="M393.038,224.118v-13.57h-4.465c-1.111,0-1.972-0.585-1.972-1.599s0.858-1.6,1.972-1.6h6.259
	c1.014,0,1.794,0.684,1.794,1.6v15.169h5.79c1.111,0,1.969,0.586,1.969,1.599c0,1.014-0.855,1.6-1.969,1.6h-15.169
	c-1.111,0-1.949-0.586-1.949-1.6c0-1.013,0.838-1.599,1.949-1.599H393.038L393.038,224.118z M397.229,201.893
	c0,0.683-0.253,1.285-0.739,1.772c-0.487,0.487-1.091,0.722-1.773,0.722c-0.682,0-1.287-0.234-1.772-0.722
	c-0.487-0.488-0.741-1.092-0.741-1.772c0-0.703,0.254-1.308,0.741-1.795c0.485-0.486,1.092-0.74,1.772-0.74
	c0.682,0,1.286,0.254,1.773,0.74C396.977,200.585,397.229,201.189,397.229,201.893z"/>
<path fill="#A6A9FF" d="M418.346,227.706c-2.848,0-5.146-0.976-6.922-2.927c-1.755-1.969-2.632-4.443-2.632-7.446
	s0.877-5.479,2.632-7.429c1.774-1.969,4.074-2.944,6.922-2.944s5.146,0.976,6.901,2.944c1.755,1.949,2.633,4.426,2.633,7.429
	s-0.878,5.479-2.633,7.446C423.492,226.73,421.191,227.706,418.346,227.706z M412.398,217.333c0,2.203,0.546,3.957,1.638,5.265
	c1.092,1.287,2.535,1.93,4.31,1.93c1.773,0,3.218-0.643,4.311-1.93c1.091-1.308,1.638-3.062,1.638-5.265s-0.547-3.958-1.638-5.245
	c-1.093-1.306-2.535-1.949-4.311-1.949c-1.772,0-3.218,0.646-4.31,1.949C412.944,213.375,412.398,215.13,412.398,217.333z"/>
<path fill="#A6A9FF" d="M435.016,209.3c0-1.11,0.723-1.948,1.793-1.948c1.073,0,1.794,0.838,1.794,1.948v0.8
	c0.292-0.856,0.994-1.599,2.105-2.203c1.111-0.623,2.281-0.937,3.529-0.937c5.027,0,7.545,2.574,7.545,7.701v10.705
	c0,1.11-0.724,1.948-1.793,1.948c-1.073,0-1.794-0.838-1.794-1.948v-9.905c0-1.893-0.293-3.236-0.877-4.074
	c-0.585-0.839-1.619-1.248-3.081-1.248c-1.755,0-3.141,0.723-4.135,2.146c-0.993,1.424-1.502,3.274-1.502,5.575v7.509
	c0,1.11-0.721,1.948-1.794,1.948c-1.07,0-1.793-0.838-1.793-1.948L435.016,209.3L435.016,209.3z"/>
<path fill="#63DDCE" d="M490.972,210.354c0,0.938-0.312,1.717-0.937,2.34c-0.624,0.623-1.384,0.938-2.3,0.938
	c-0.917,0-1.68-0.312-2.321-0.938c-0.645-0.644-0.955-1.424-0.955-2.34v-0.293c0-1.97,0.488-3.724,1.463-5.265
	c0.976-1.54,2.281-2.651,3.938-3.313c0.175-0.078,0.37-0.115,0.585-0.115c0.699,0,1.209,0.506,1.209,1.07
	c0,0.526-0.332,0.916-0.995,1.149c-1.442,0.507-2.164,1.424-2.164,2.729c0,0.563,0.271,0.957,0.8,1.188
	C490.405,208.091,490.972,209.047,490.972,210.354z M498.966,210.354c0,0.938-0.312,1.717-0.956,2.34
	c-0.624,0.623-1.384,0.938-2.301,0.938c-0.896,0-1.657-0.312-2.3-0.938c-0.646-0.644-0.956-1.424-0.956-2.34v-0.293
	c0-1.97,0.487-3.724,1.441-5.265c0.977-1.54,2.28-2.651,3.938-3.313c0.176-0.078,0.391-0.115,0.604-0.115
	c0.701,0,1.188,0.506,1.188,1.07c0,0.526-0.331,0.916-0.994,1.149c-1.441,0.507-2.164,1.424-2.145,2.729
	c-0.021,0.563,0.253,0.957,0.778,1.188C498.38,208.091,498.945,209.047,498.966,210.354z"/>
<path fill="#63DDCE" d="M525.071,209.711c1.638,1.831,2.457,4.365,2.457,7.622c0,3.003-0.819,5.479-2.438,7.446
	c-1.619,1.951-3.897,2.927-6.824,2.927c-1.171,0-2.279-0.233-3.334-0.685c-1.054-0.467-1.812-1.071-2.262-1.832v8.148
	c0,1.111-0.722,1.971-1.794,1.971s-1.794-0.857-1.794-1.971V209.3c0-1.11,0.722-1.948,1.794-1.948c0.916,0,1.735,0.838,1.794,1.948
	c0.507-0.76,1.287-1.345,2.319-1.733c1.032-0.409,2.126-0.604,3.274-0.604C521.172,206.96,523.434,207.877,525.071,209.711z
	 M522.479,212.088c-0.975-1.306-2.357-1.949-4.173-1.949c-1.812,0-3.195,0.646-4.172,1.949c-0.975,1.287-1.462,3.042-1.462,5.245
	c0,2.242,0.487,3.997,1.462,5.283c0.977,1.269,2.359,1.911,4.172,1.911c1.813,0,3.198-0.645,4.173-1.911
	c0.977-1.286,1.465-3.041,1.465-5.283C523.941,215.13,523.453,213.375,522.479,212.088z"/>
<path fill="#63DDCE" d="M534.917,224.684c-1.637-2.026-2.456-4.482-2.456-7.351c0-2.847,0.839-5.283,2.516-7.312
	c1.678-2.047,3.958-3.062,6.845-3.062c1.093,0,2.145,0.215,3.179,0.645c1.033,0.408,1.852,1.016,2.438,1.812
	c0.099-1.268,0.8-2.066,1.795-2.066c1.109,0,1.931,0.724,1.931,1.988v15.988c0,1.268-0.819,1.988-1.931,1.988
	c-1.016,0-1.696-0.799-1.795-2.066c-0.586,0.799-1.402,1.402-2.438,1.832c-1.034,0.41-2.086,0.625-3.179,0.625
	C538.875,227.706,536.575,226.691,534.917,224.684z M536.067,217.333c0,2.125,0.525,3.86,1.561,5.206
	c1.053,1.324,2.438,1.988,4.172,1.988c1.735,0,3.142-0.663,4.173-1.988c1.055-1.346,1.579-3.081,1.579-5.206
	s-0.524-3.86-1.579-5.187c-1.033-1.348-2.438-2.008-4.173-2.008c-1.733,0-3.119,0.66-4.172,2.008
	C536.595,213.473,536.067,215.208,536.067,217.333z"/>
<path fill="#63DDCE" d="M560.361,209.378c0-1.169,0.722-2.026,1.794-2.026c1.07,0,1.794,0.857,1.794,2.026v0.897
	c0.486-0.858,1.267-1.619,2.356-2.301c1.094-0.685,2.303-1.017,3.606-1.017c3.335,0,5.596,1.249,6.825,3.745
	c0.153,0.33,0.231,0.645,0.231,0.954c0,1.11-0.975,1.909-1.986,1.909c-0.685,0-1.189-0.369-1.521-1.109
	c-0.741-1.54-1.931-2.318-3.55-2.318c-1.968,0-3.47,0.76-4.464,2.279s-1.501,3.412-1.501,5.674v7.194
	c0,1.169-0.724,2.026-1.794,2.026c-1.072,0-1.794-0.857-1.794-2.026v-15.909L560.361,209.378L560.361,209.378z"/>
<path fill="#63DDCE" d="M590.972,224.118v-13.57h-4.465c-1.111,0-1.97-0.585-1.97-1.599s0.856-1.6,1.97-1.6h6.259
	c1.016,0,1.793,0.684,1.793,1.6v15.169h5.791c1.111,0,1.971,0.586,1.971,1.599c0,1.014-0.857,1.6-1.971,1.6h-15.169
	c-1.109,0-1.95-0.586-1.95-1.6c0-1.013,0.841-1.599,1.95-1.599H590.972L590.972,224.118z M595.163,201.893
	c0,0.683-0.254,1.285-0.74,1.772c-0.487,0.487-1.092,0.722-1.772,0.722c-0.684,0-1.287-0.234-1.774-0.722
	c-0.487-0.488-0.741-1.092-0.741-1.772c0-0.703,0.254-1.308,0.741-1.795c0.487-0.486,1.092-0.74,1.774-0.74
	c0.682,0,1.285,0.254,1.772,0.74C594.909,200.585,595.163,201.189,595.163,201.893z"/>
<path fill="#63DDCE" d="M608.09,222.968c0-1.014,0.685-1.872,1.755-1.872c0.663,0,1.208,0.293,1.64,0.879
	c1.248,1.694,3.021,2.553,5.303,2.553c3.296,0,4.953-1.053,4.953-3.156c0-0.857-0.393-1.426-1.619-1.794
	c-0.604-0.194-1.11-0.332-1.54-0.41c-0.409-0.078-1.111-0.175-2.066-0.312c-1.109-0.154-2.064-0.332-2.825-0.525
	c-0.763-0.214-1.54-0.508-2.381-0.916c-1.638-0.801-2.494-2.242-2.494-4.271c0-2.008,0.761-3.526,2.28-4.58
	c1.54-1.071,3.373-1.601,5.498-1.601c3.295,0,5.731,1.112,7.312,3.315c0.253,0.351,0.39,0.74,0.39,1.149
	c0,1.07-0.8,1.794-1.91,1.794c-0.586,0-1.054-0.273-1.402-0.84c-0.917-1.501-2.381-2.24-4.389-2.24c-2.649,0-4.19,1.031-4.19,2.846
	c0,1.639,1.853,2.32,5.146,2.787c0.994,0.139,1.755,0.254,2.301,0.354c0.547,0.098,1.229,0.271,2.027,0.545
	c0.818,0.253,1.443,0.564,1.854,0.917c0.839,0.683,1.617,1.97,1.617,3.626c0,2.027-0.817,3.626-2.437,4.777
	c-1.619,1.15-3.688,1.716-6.201,1.716c-3.528,0-6.238-1.149-8.091-3.433C608.266,223.846,608.09,223.416,608.09,222.968z"/>
<path fill="#63DDCE" d="M633.982,204.191c0-0.938,0.312-1.715,0.936-2.34c0.643-0.625,1.403-0.938,2.301-0.938
	c0.916,0,1.678,0.312,2.319,0.955c0.644,0.624,0.956,1.404,0.956,2.32v0.291c0,1.971-0.487,3.744-1.463,5.285
	c-0.955,1.539-2.264,2.631-3.919,3.293c-0.177,0.078-0.392,0.117-0.604,0.117c-0.702,0-1.188-0.507-1.188-1.072
	c0-0.524,0.331-0.916,0.992-1.17c1.442-0.506,2.164-1.401,2.146-2.709c0-0.564-0.272-0.955-0.8-1.188
	C634.548,206.453,633.982,205.499,633.982,204.191z M641.976,204.191c0-0.938,0.312-1.715,0.938-2.34
	c0.623-0.625,1.384-0.938,2.3-0.938c0.917,0,1.677,0.312,2.32,0.955c0.644,0.624,0.955,1.404,0.955,2.32v0.291
	c0,1.971-0.487,3.744-1.462,5.285c-0.978,1.539-2.28,2.631-3.938,3.293c-0.175,0.078-0.37,0.117-0.585,0.117
	c-0.701,0-1.209-0.507-1.209-1.072c0-0.524,0.332-0.916,0.995-1.17c1.442-0.506,2.164-1.401,2.164-2.709
	c0-0.564-0.273-0.955-0.8-1.188C642.541,206.453,641.976,205.499,641.976,204.191z"/>
<path fill="#7152B9" d="M663.364,201.286h-4.875c-1.229,0-1.832-0.525-1.832-1.599c0-1.072,0.604-1.6,1.832-1.6h6.435
	c1.27,0,2.027,0.855,2.027,1.871v9.104c0,3.412,1.56,5.227,3.958,5.227c1.015,0,1.599,0.645,1.599,1.6
	c0,0.957-0.584,1.601-1.599,1.601c-2.398,0-3.958,1.812-3.958,5.225v9.104c0,1.015-0.76,1.892-2.027,1.892h-6.435
	c-1.229,0-1.832-0.526-1.832-1.599c0-1.073,0.604-1.601,1.832-1.601h4.875v-7c0-2.278,0.231-3.938,0.721-4.971
	s1.443-1.933,2.905-2.651c-1.462-0.722-2.438-1.6-2.925-2.633c-0.47-1.031-0.701-2.71-0.701-4.988V201.286L663.364,201.286z"/>
<path fill="#63AFEF" d="M694.696,215.346c0,7.35-1.911,13.258-5.752,17.721c-0.371,0.488-0.839,0.724-1.404,0.724
	c-0.955,0-1.794-0.799-1.794-1.755c0-0.448,0.156-0.877,0.448-1.286c3.273-3.842,4.914-8.97,4.914-15.401
	c0-6.453-1.641-11.582-4.914-15.424c-0.292-0.408-0.448-0.816-0.448-1.27c0-0.953,0.839-1.772,1.794-1.772
	c0.507,0,0.976,0.234,1.404,0.724C692.785,202.066,694.696,207.994,694.696,215.346z"/>
</svg>
