<?xml version="1.0" encoding="utf-8"?>
<!-- Generator: Adobe Illustrator 16.0.0, SVG Export Plug-In . SVG Version: 6.00 Build 0)  -->
<!DOCTYPE svg PUBLIC "-//W3C//DTD SVG 1.1//EN" "http://www.w3.org/Graphics/SVG/1.1/DTD/svg11.dtd">
<svg version="1.1" id="Layer_1" xmlns="http://www.w3.org/2000/svg" xmlns:xlink="http://www.w3.org/1999/xlink" x="0px" y="0px"
	 width="300px" height="300px" viewBox="0 0 300 300" enable-background="new 0 0 300 300" xml:space="preserve">
<path fill="#63DDCE" d="M167.676,30.173c6.202,0,11.636,5.312,11.636,11.514c0,2.906-1.01,5.683-2.909,8.214
	c-21.246,24.924-31.873,58.188-31.873,100.059c0,41.74,10.626,75.004,31.873,99.932c1.899,2.653,2.909,5.43,2.909,8.345
	c0,6.198-5.434,11.387-11.636,11.387c-3.67,0-6.703-1.521-9.105-4.681c-24.921-28.972-37.321-67.298-37.321-114.983
	c0-47.689,12.399-86.138,37.321-115.109C161.351,31.689,164.391,30.173,167.676,30.173z"/>
</svg>
