<?xml version="1.0" encoding="utf-8"?>
<!-- Generator: Adobe Illustrator 16.0.0, SVG Export Plug-In . SVG Version: 6.00 Build 0)  -->
<!DOCTYPE svg PUBLIC "-//W3C//DTD SVG 1.1//EN" "http://www.w3.org/Graphics/SVG/1.1/DTD/svg11.dtd">
<svg version="1.1" id="Layer_1" xmlns="http://www.w3.org/2000/svg" xmlns:xlink="http://www.w3.org/1999/xlink" x="0px" y="0px"
	 width="300px" height="300px" viewBox="0 0 300 300" enable-background="new 0 0 300 300" xml:space="preserve">
<path fill="#63DDCE" d="M137.702,183.265c0,10.851-3.622,19.891-10.851,27.133c-7.236,7.229-16.046,10.837-26.674,10.837
	c-10.62,0-19.437-3.608-26.896-10.837c-7.459-7.459-11.074-16.513-11.074-27.133v-3.393c0-22.822,5.648-43.168,16.951-61.025
	c11.297-17.856,26.451-30.741,45.659-38.423c2.033-0.905,4.296-1.357,6.776-1.357c8.142,0,14.02,5.877,14.02,12.431
	c0,6.101-3.844,10.628-11.533,13.337c-16.721,5.877-25.086,16.499-25.086,31.646c0,6.554,3.163,11.074,9.27,13.783
	C131.142,157.05,137.702,168.117,137.702,183.265z M230.371,183.265c0,10.851-3.615,19.891-11.074,27.133
	c-7.235,7.229-16.046,10.837-26.673,10.837c-10.397,0-19.208-3.608-26.667-10.837c-7.459-7.459-11.08-16.513-11.08-27.133v-3.393
	c0-22.822,5.654-43.168,16.728-61.025c11.304-17.856,26.444-30.741,45.652-38.423c2.04-0.905,4.521-1.357,7.007-1.357
	c8.141,0,13.789,5.877,13.789,12.431c0,6.101-3.838,10.628-11.526,13.337c-16.729,5.877-25.086,16.499-24.863,31.646
	c-0.223,6.554,2.939,11.074,9.047,13.783C223.588,157.05,230.142,168.117,230.371,183.265z"/>
</svg>
