<?xml version="1.0" encoding="UTF-8"?>
<!DOCTYPE svg PUBLIC "-//W3C//DTD SVG 1.1//EN" "http://www.w3.org/Graphics/SVG/1.1/DTD/svg11.dtd">
<svg version="1.1" xmlns="http://www.w3.org/2000/svg" xmlns:xlink="http://www.w3.org/1999/xlink" x="0" y="0" width="960" height="150" viewBox="0, 0, 960, 150">
  <g id="Background">
    <rect x="0" y="0" width="960" height="150" fill="#FFFFFF"/>
  </g>
  <defs>
    <linearGradient id="Gradient_1" gradientUnits="userSpaceOnUse" x1="117.054" y1="21.76" x2="154.143" y2="21.76">
      <stop offset="0" stop-color="#5D9AFF"/>
      <stop offset="0.259" stop-color="#5B96FB"/>
      <stop offset="0.53" stop-color="#538AEE"/>
      <stop offset="0.807" stop-color="#4776D9"/>
      <stop offset="1" stop-color="#3C63C6"/>
    </linearGradient>
    <linearGradient id="Gradient_2" gradientUnits="userSpaceOnUse" x1="97.652" y1="21.958" x2="121.864" y2="70.382">
      <stop offset="0" stop-color="#1E2343"/>
      <stop offset="0.087" stop-color="#222746"/>
      <stop offset="0.405" stop-color="#2A2F4D"/>
      <stop offset="1" stop-color="#2C314F"/>
    </linearGradient>
    <linearGradient id="Gradient_3" gradientUnits="userSpaceOnUse" x1="56.146" y1="74.482" x2="91.152" y2="133.33">
      <stop offset="0" stop-color="#3757A3"/>
      <stop offset="0.007" stop-color="#3859A9"/>
      <stop offset="0.031" stop-color="#3A5FB9"/>
      <stop offset="0.058" stop-color="#3C62C3"/>
      <stop offset="0.093" stop-color="#3C63C6"/>
      <stop offset="0.179" stop-color="#4A78D8"/>
      <stop offset="0.278" stop-color="#5588E7"/>
      <stop offset="0.389" stop-color="#5B92EF"/>
      <stop offset="0.535" stop-color="#5D95F2"/>
      <stop offset="0.641" stop-color="#5B91EF"/>
      <stop offset="0.736" stop-color="#5487E5"/>
      <stop offset="0.825" stop-color="#4875D6"/>
      <stop offset="0.888" stop-color="#3C63C6"/>
      <stop offset="1" stop-color="#3757A3"/>
    </linearGradient>
    <linearGradient id="Gradient_4" gradientUnits="userSpaceOnUse" x1="55.487" y1="79.504" x2="89.07" y2="15.226">
      <stop offset="0" stop-color="#5D9AFF"/>
      <stop offset="0.494" stop-color="#5D95F2"/>
      <stop offset="0.64" stop-color="#5A91EF"/>
      <stop offset="0.78" stop-color="#5386E4"/>
      <stop offset="0.919" stop-color="#4672D3"/>
      <stop offset="1" stop-color="#3C63C6"/>
    </linearGradient>
    <linearGradient id="Gradient_5" gradientUnits="userSpaceOnUse" x1="92.502" y1="131.792" x2="120.627" y2="74.188">
      <stop offset="0" stop-color="#1E2343"/>
      <stop offset="0.046" stop-color="#232847"/>
      <stop offset="0.168" stop-color="#2A2F4D"/>
      <stop offset="0.493" stop-color="#2C314F"/>
      <stop offset="1" stop-color="#151A3A"/>
    </linearGradient>
    <linearGradient id="Gradient_6" gradientUnits="userSpaceOnUse" x1="151.663" y1="17.644" x2="182.703" y2="68.946">
      <stop offset="0" stop-color="#5D9AFF"/>
      <stop offset="0.388" stop-color="#5D95F2"/>
      <stop offset="0.511" stop-color="#598FEC"/>
      <stop offset="0.683" stop-color="#4D7DDD"/>
      <stop offset="0.859" stop-color="#3C63C6"/>
      <stop offset="1" stop-color="#3757A3"/>
    </linearGradient>
    <linearGradient id="Gradient_7" gradientUnits="userSpaceOnUse" x1="188.241" y1="65.769" x2="150.41" y2="131.114">
      <stop offset="0" stop-color="#5D9AFF"/>
      <stop offset="0.319" stop-color="#5D96F4"/>
      <stop offset="0.373" stop-color="#5D95F2"/>
      <stop offset="0.511" stop-color="#5A91EF"/>
      <stop offset="0.644" stop-color="#5386E4"/>
      <stop offset="0.775" stop-color="#4672D3"/>
      <stop offset="0.851" stop-color="#3C63C6"/>
      <stop offset="1" stop-color="#3757A3"/>
    </linearGradient>
    <linearGradient id="Gradient_8" gradientUnits="userSpaceOnUse" x1="123.052" y1="72.178" x2="152.583" y2="130.971">
      <stop offset="0" stop-color="#1E2343"/>
      <stop offset="0.043" stop-color="#222746"/>
      <stop offset="0.2" stop-color="#2A2F4D"/>
      <stop offset="0.493" stop-color="#2C314F"/>
      <stop offset="0.785" stop-color="#292E4D"/>
      <stop offset="0.96" stop-color="#212646"/>
      <stop offset="1" stop-color="#1E2343"/>
    </linearGradient>
  </defs>
  <g id="Layer_1">
    <path d="M247.091,42.44 C256.135,42.44 263.467,49.772 263.467,58.816 C263.467,67.862 256.137,75.192 247.091,75.192 L239.681,75.192 C239.213,75.192 238.903,75.504 238.903,75.972 L238.903,95.468 C238.903,96.326 238.201,97.028 237.341,97.028 L233.053,97.028 C232.195,97.028 231.493,96.326 231.493,95.468 L231.493,44 C231.493,43.144 232.197,42.44 233.053,42.44 L247.091,42.44 z M239.679,49.848 C239.211,49.848 238.901,50.16 238.901,50.628 L238.901,67.004 C238.901,67.472 239.209,67.786 239.679,67.786 L247.089,67.786 C251.999,67.786 256.055,63.732 256.055,58.818 C256.055,53.904 251.999,49.85 247.089,49.85 L239.679,49.85 z" fill="#2C314F"/>
    <path d="M272.357,68.406 C272.357,69.734 271.263,69.734 270.563,69.734 L267.057,69.734 C265.885,69.734 265.495,69.11 265.495,68.174 C265.495,60.922 272.983,57.258 279.611,57.258 C288.421,57.258 293.881,61.078 293.881,69.734 L293.881,95.466 C293.881,96.324 293.177,97.026 292.321,97.026 L289.669,97.026 C289.205,97.026 288.891,96.87 288.579,96.48 C288.111,95.856 287.799,94.842 287.021,94.842 C285.615,94.842 283.667,97.804 277.897,97.804 C268.305,97.804 263.703,91.956 263.703,85.326 C263.703,78.854 268.381,73.474 276.569,73.474 L286.083,73.474 C286.551,73.474 286.865,73.162 286.865,72.694 L286.865,69.732 C286.865,65.52 283.981,63.492 279.613,63.492 C276.881,63.494 272.357,64.666 272.357,68.406 z M276.567,79.87 C272.591,79.87 270.719,81.976 270.719,85.25 C270.719,89.072 273.137,91.332 277.659,91.332 C284.833,91.332 287.485,88.446 287.485,83.144 L287.485,80.648 C287.485,80.18 287.175,79.868 286.705,79.868 L276.567,79.868 z" fill="#2C314F"/>
    <path d="M321.719,64.976 C315.559,64.976 310.023,68.174 310.023,76.752 L310.023,95.466 C310.023,96.324 309.321,97.026 308.465,97.026 L304.565,97.026 C303.705,97.026 303.007,96.324 303.007,95.466 L303.007,59.596 C303.007,58.738 303.707,58.036 304.565,58.036 L307.215,58.036 C308.075,58.036 308.541,58.504 308.775,59.596 C309.007,60.61 309.007,62.326 310.177,62.326 C312.049,62.326 313.375,58.036 321.719,58.036 L323.279,58.036 C324.137,58.036 324.837,58.738 324.837,59.596 L324.837,63.418 C324.837,64.276 324.135,64.976 323.279,64.976 L321.719,64.976 z" fill="#2C314F"/>
    <path d="M338.093,48.522 C338.093,49.226 337.547,49.772 336.847,49.772 L331.545,49.772 C330.845,49.772 330.297,49.226 330.297,48.522 L330.297,43.144 C330.297,42.52 330.845,41.894 331.545,41.894 L336.847,41.894 C337.547,41.894 338.093,42.518 338.093,43.144 L338.093,48.522 z M337.861,95.466 C337.861,96.324 337.157,97.026 336.301,97.026 L332.247,97.026 C331.389,97.026 330.689,96.324 330.689,95.466 L330.689,59.596 C330.689,58.738 331.391,58.036 332.247,58.036 L336.301,58.036 C337.159,58.036 337.861,58.738 337.861,59.596 L337.861,95.466 z" fill="#2C314F"/>
    <path d="M373.811,70.512 L369.911,70.512 C369.055,70.512 368.353,69.81 368.353,68.952 C368.353,66.224 366.247,63.882 361.101,63.882 C356.267,63.882 354.239,66.3 354.239,68.562 C354.239,71.602 357.279,72.616 361.101,73.318 C367.651,74.488 376.463,75.814 376.463,85.326 C376.463,93.672 369.213,97.804 361.101,97.804 C353.305,97.804 345.661,93.906 345.661,85.326 L345.661,84.312 C345.661,83.454 346.365,82.754 347.219,82.754 L351.119,82.754 C351.977,82.754 352.677,83.454 352.677,84.312 L352.677,85.326 C352.677,90.006 357.513,91.098 361.099,91.098 C365.311,91.098 369.443,90.008 369.443,85.326 C369.443,82.13 365.623,81.272 361.099,80.336 C354.705,79.01 346.983,77.372 346.983,68.562 C346.983,61.544 354.003,57.256 361.099,57.256 C368.351,57.256 375.369,61.544 375.369,68.952 C375.369,69.812 374.669,70.512 373.811,70.512 z" fill="#2C314F"/>
    <path d="M457.649,81.352 C457.649,90.008 450.399,97.57 440.103,97.57 C430.747,97.57 423.809,91.41 422.561,81.352 C421.779,75.034 421.779,64.196 422.561,57.958 C423.575,49.458 429.811,41.738 440.103,41.738 C449.463,41.738 457.649,47.822 457.649,57.958 L457.649,59.048 C457.649,59.906 456.945,60.608 456.091,60.608 L451.799,60.608 C450.943,60.608 450.243,59.906 450.243,59.048 L450.243,57.958 C450.243,53.278 446.265,49.222 440.105,49.146 C435.039,49.146 430.669,52.266 429.971,57.958 C429.187,64.352 429.187,74.956 429.971,81.352 C430.595,85.874 434.025,90.164 440.105,90.164 C445.331,90.164 450.243,87.042 450.243,81.352 L450.243,80.258 C450.243,79.402 450.945,78.7 451.799,78.7 L456.091,78.7 C456.947,78.7 457.649,79.402 457.649,80.258 L457.649,81.352 z" fill="#2C314F"/>
    <path d="M472.855,95.388 C472.855,96.244 472.153,96.944 471.295,96.944 L467.397,96.944 C466.539,96.944 465.841,96.242 465.841,95.388 L465.841,43.374 C465.841,42.518 466.541,41.816 467.397,41.816 L471.295,41.816 C472.155,41.816 472.855,42.518 472.855,43.374 L472.855,95.388 z" fill="#2C314F"/>
    <path d="M481.433,71.994 C482.057,63.806 488.059,57.178 497.419,57.178 C506.775,57.178 512.781,63.806 513.403,71.994 C513.637,75.114 513.637,79.792 513.403,82.91 C512.779,91.1 506.775,97.726 497.419,97.726 C488.059,97.726 482.057,91.1 481.433,82.91 C481.201,79.792 481.201,75.114 481.433,71.994 z M488.451,82.91 C488.765,87.042 492.039,90.708 497.419,90.708 C502.799,90.708 506.073,87.042 506.385,82.91 C506.619,79.714 506.619,75.192 506.385,71.994 C506.073,67.862 502.799,64.196 497.419,64.196 C492.039,64.196 488.765,67.862 488.451,71.994 C488.217,75.192 488.217,79.714 488.451,82.91 z" fill="#2C314F"/>
    <path d="M523.701,59.516 C523.701,58.658 524.403,57.958 525.259,57.958 L529.391,57.958 C530.249,57.958 530.951,58.658 530.951,59.516 L530.951,99.286 C530.951,106.85 524.945,113.322 516.679,113.322 L512.625,113.322 C511.767,113.322 511.067,112.62 511.067,111.764 L511.067,107.866 C511.067,107.006 511.769,106.306 512.625,106.306 L516.679,106.306 C520.579,106.306 523.699,103.498 523.699,99.288 L523.699,59.516 z M531.263,48.444 C531.263,49.146 530.717,49.692 530.017,49.692 L524.715,49.692 C524.011,49.692 523.467,49.146 523.467,48.444 L523.467,43.064 C523.467,42.44 524.011,41.816 524.715,41.816 L530.017,41.816 C530.717,41.816 531.263,42.44 531.263,43.064 L531.263,48.444 z" fill="#2C314F"/>
    <path d="M540.621,59.516 C540.621,58.658 541.325,57.958 542.181,57.958 L546.079,57.958 C546.937,57.958 547.639,58.658 547.639,59.516 L547.639,82.908 C547.639,87.432 550.837,90.706 556.215,90.706 C561.051,90.706 564.793,87.822 564.793,83.298 L564.793,59.516 C564.793,58.658 565.497,57.958 566.353,57.958 L570.251,57.958 C571.109,57.958 571.811,58.658 571.811,59.516 L571.811,95.388 C571.811,96.244 571.107,96.944 570.251,96.944 L566.821,96.944 C566.353,96.944 566.037,96.712 565.729,96.402 C565.261,95.856 564.559,95.156 563.777,95.156 C561.517,95.156 561.205,97.726 555.435,97.726 C546.623,97.726 540.617,91.488 540.617,82.91 L540.617,59.516 z" fill="#2C314F"/>
    <path d="M599.889,64.896 C593.729,64.896 588.193,68.094 588.193,76.672 L588.193,95.386 C588.193,96.242 587.491,96.942 586.633,96.942 L582.733,96.942 C581.875,96.942 581.175,96.24 581.175,95.386 L581.175,59.516 C581.175,58.658 581.877,57.958 582.733,57.958 L585.383,57.958 C586.243,57.958 586.711,58.424 586.943,59.516 C587.179,60.53 587.179,62.246 588.349,62.246 C590.221,62.246 591.545,57.958 599.889,57.958 L601.449,57.958 C602.305,57.958 603.005,58.658 603.005,59.516 L603.005,63.338 C603.005,64.196 602.303,64.896 601.449,64.896 L599.889,64.896 z" fill="#2C314F"/>
    <path d="M612.523,79.714 C612.053,79.714 611.741,80.024 611.741,80.494 C611.741,87.59 615.407,90.708 620.787,90.708 C624.841,90.708 627.883,88.682 628.817,85.796 C629.129,84.78 629.911,84.47 630.611,84.47 L634.587,84.47 C635.367,84.47 636.067,84.94 635.915,86.03 C634.977,92.814 628.895,97.726 620.787,97.726 C611.427,97.726 605.423,91.1 604.801,82.91 C604.567,79.792 604.567,75.114 604.801,71.994 C605.425,63.806 611.427,57.178 620.787,57.178 C630.223,57.178 636.381,63.026 636.381,72.772 L636.381,78.154 C636.381,79.01 635.679,79.714 634.823,79.714 L612.523,79.714 z M611.899,72.696 C611.899,73.162 612.209,73.476 612.679,73.476 L628.899,73.476 C629.367,73.476 629.679,73.164 629.679,72.696 C629.679,67.314 625.703,64.196 620.867,64.196 C615.485,64.196 611.899,67.938 611.899,72.696 z" fill="#2C314F"/>
    <path d="M705.407,82.207 C705.563,82.675 706.031,82.675 706.185,82.207 L716.947,43.685 C717.181,42.749 717.729,42.359 718.585,42.359 L726.541,42.359 C727.397,42.359 728.099,43.061 728.099,43.919 L728.099,95.383 C728.099,96.243 727.395,96.943 726.541,96.943 L722.407,96.943 C721.549,96.943 720.849,96.241 720.849,95.383 L720.849,56.393 C720.849,55.927 720.305,55.927 720.225,56.239 L709.075,95.617 C708.767,96.553 708.295,96.943 707.439,96.943 L704.161,96.943 C703.305,96.943 702.837,96.553 702.527,95.617 L691.375,56.239 C691.297,55.927 690.751,55.927 690.751,56.393 L690.751,95.383 C690.751,96.243 690.049,96.943 689.189,96.943 L685.059,96.943 C684.201,96.943 683.499,96.241 683.499,95.383 L683.499,43.919 C683.499,43.059 684.203,42.359 685.059,42.359 L693.015,42.359 C693.873,42.359 694.417,42.749 694.651,43.685 L705.407,82.207 z" fill="#2C314F"/>
    <path d="M744.399,79.711 C743.931,79.711 743.617,80.025 743.617,80.493 C743.617,87.589 747.283,90.707 752.663,90.707 C756.717,90.707 759.759,88.679 760.695,85.795 C761.005,84.779 761.789,84.467 762.487,84.467 L766.463,84.467 C767.245,84.467 767.945,84.937 767.789,86.029 C766.855,92.813 760.771,97.725 752.663,97.725 C743.305,97.725 737.301,91.099 736.679,82.911 C736.443,79.789 736.443,75.113 736.679,71.991 C737.303,63.805 743.305,57.177 752.663,57.177 C762.101,57.177 768.259,63.025 768.259,72.773 L768.259,78.153 C768.259,79.011 767.555,79.711 766.701,79.711 L744.399,79.711 z M743.773,72.695 C743.773,73.159 744.085,73.475 744.555,73.475 L760.773,73.475 C761.241,73.475 761.553,73.161 761.553,72.695 C761.553,67.315 757.577,64.193 752.743,64.193 C747.361,64.193 743.773,67.937 743.773,72.695 z" fill="#2C314F"/>
    <path d="M782.763,79.711 C782.295,79.711 781.981,80.025 781.981,80.493 C781.981,87.589 785.647,90.707 791.029,90.707 C795.081,90.707 798.125,88.679 799.063,85.795 C799.371,84.779 800.153,84.467 800.853,84.467 L804.833,84.467 C805.613,84.467 806.313,84.937 806.157,86.029 C805.221,92.813 799.139,97.725 791.031,97.725 C781.673,97.725 775.669,91.099 775.045,82.911 C774.809,79.789 774.809,75.113 775.045,71.991 C775.669,63.805 781.673,57.177 791.031,57.177 C800.467,57.177 806.627,63.025 806.627,72.773 L806.627,78.153 C806.627,79.011 805.923,79.711 805.067,79.711 L782.763,79.711 z M782.141,72.695 C782.141,73.159 782.453,73.475 782.921,73.475 L799.141,73.475 C799.607,73.475 799.921,73.161 799.921,72.695 C799.921,67.315 795.943,64.193 791.109,64.193 C785.731,64.193 782.141,67.937 782.141,72.695 z" fill="#2C314F"/>
    <path d="M832.987,58.345 C833.845,58.345 834.547,59.047 834.547,59.905 L834.547,63.803 C834.547,64.661 833.843,65.361 832.987,65.361 L824.015,65.361 C823.551,65.361 823.237,65.673 823.237,66.143 L823.237,84.465 C823.237,87.899 824.719,90.161 829.475,90.161 L833.763,90.161 C834.623,90.161 835.321,90.861 835.321,91.719 L835.321,95.383 C835.321,96.243 834.621,96.943 833.763,96.943 L829.475,96.943 C821.363,96.943 816.217,93.433 816.217,84.465 L816.217,66.143 C816.217,65.675 815.905,65.361 815.437,65.361 L809.979,65.361 C809.121,65.361 808.419,64.659 808.419,63.803 L808.419,59.905 C808.419,59.045 809.123,58.345 809.979,58.345 L815.437,58.345 C815.903,58.345 816.217,58.033 816.217,57.565 L816.217,45.477 C816.217,44.619 816.923,43.919 817.777,43.919 L821.677,43.919 C822.535,43.919 823.235,44.621 823.235,45.477 L823.235,57.565 C823.235,58.031 823.547,58.345 824.013,58.345 L832.987,58.345 z" fill="#2C314F"/>
    <path d="M840.395,59.517 C840.395,58.655 841.099,57.955 841.953,57.955 L845.851,57.955 C846.711,57.955 847.409,58.657 847.409,59.517 L847.409,82.909 C847.409,87.431 850.609,90.705 855.987,90.705 C860.821,90.705 864.567,87.821 864.567,83.297 L864.567,59.515 C864.567,58.653 865.269,57.953 866.125,57.953 L870.023,57.953 C870.881,57.953 871.581,58.655 871.581,59.515 L871.581,95.383 C871.581,96.243 870.879,96.943 870.023,96.943 L866.593,96.943 C866.125,96.943 865.811,96.709 865.501,96.397 C865.031,95.853 864.329,95.151 863.551,95.151 C861.287,95.151 860.975,97.723 855.205,97.723 C846.393,97.723 840.391,91.485 840.391,82.909 L840.391,59.517 z" fill="#2C314F"/>
    <path d="M911.903,71.991 C912.137,75.113 912.137,79.789 911.903,82.911 C911.281,91.099 905.275,97.725 897.085,97.725 C893.499,97.725 891.397,95.773 889.837,95.773 C888.665,95.773 888.121,96.243 888.121,97.725 L888.121,110.983 C888.121,111.839 887.417,112.541 886.561,112.541 L882.663,112.541 C881.805,112.541 881.105,111.837 881.105,110.983 L881.105,59.519 C881.105,58.657 881.807,57.957 882.663,57.957 L885.315,57.957 C885.779,57.957 886.095,58.191 886.405,58.505 C886.875,59.047 887.575,59.751 888.357,59.751 C890.617,59.751 891.317,57.177 897.087,57.177 C905.273,57.175 911.281,63.805 911.903,71.991 z M905.273,71.991 C904.963,67.859 901.687,64.195 896.309,64.195 C890.927,64.195 887.651,67.859 887.341,71.991 C887.107,75.191 887.107,79.711 887.341,82.911 C887.651,87.043 890.927,90.707 896.309,90.707 C901.687,90.707 904.963,87.043 905.273,82.911 C905.507,79.711 905.507,75.189 905.273,71.991 z" fill="#2C314F"/>
    <g>
      <path d="M162.621,28.933 L145.729,28.939 L94.458,28.955 L102.073,15.003 L102.474,14.604 L102.795,14.564 L148.899,14.564 z" fill="url(#Gradient_1)" opacity="0.5"/>
      <path d="M93.843,27.173 C94.31,26.317 98.028,19.516 99.796,16.273 C100.444,15.085 101.997,14.565 102.884,14.565 C102.111,14.565 101.997,15.422 102.284,16.005 C102.553,16.55 123.08,56.92 128.619,67.856 C129.477,69.55 128.852,70.953 127.585,70.953 C126.317,70.953 117.189,70.953 115.617,70.953 C114.046,70.953 112.83,70.167 112.151,68.815 C108.07,60.69 94.454,32.127 93.894,30.999 C93.241,29.683 93.225,28.303 93.843,27.173 z" fill="url(#Gradient_2)"/>
      <path d="M55.768,84.765 L63.974,71.927 L96.992,132.814 C96.992,132.814 84.196,132.814 82.912,132.814 C81.796,132.814 80.909,131.852 80.267,130.743 C79.624,129.633 55.768,84.765 55.768,84.765 z" fill="url(#Gradient_3)"/>
      <path d="M83.235,14.63 C84.705,14.624 93.173,14.564 94.136,14.564 C95.1,14.564 96.276,16.091 95.515,17.467 C90.053,27.354 67.496,65.747 64.015,71.95 C60.494,78.226 55.649,84.562 59.675,91.917 C58.776,90.361 57.45,87.673 55.766,84.765 C50.796,76.188 50.889,67.399 55.717,58.646 C59.84,51.168 75.718,24.814 80.146,16.787 C80.903,15.417 81.764,14.637 83.235,14.63 z" fill="url(#Gradient_4)"/>
      <path d="M128.653,74.035 C128.653,74.035 115.669,74.035 114.857,74.035 C113.716,74.035 112.844,74.961 112.028,76.576 C106.608,87.309 87.438,128.469 86.41,130.361 C85.788,131.508 84.804,132.814 83.259,132.814 C85.079,132.814 97.413,132.814 98.833,132.814 C100.253,132.814 101.045,132.066 101.705,130.842 C102.364,129.62 128.653,74.035 128.653,74.035 z" fill="url(#Gradient_5)"/>
      <path d="M138.657,14.564 C139.84,14.564 146.46,14.564 150.701,14.564 C157.597,14.564 163.479,19.033 167.582,25.539 C168.371,26.79 185.819,61.867 185.819,61.867 L178.326,75.443 C178.326,75.443 154.585,29.921 154.017,28.955 C151.757,25.116 146.061,14.564 138.657,14.564 z" fill="url(#Gradient_6)"/>
      <path d="M181.233,52.976 C185.062,60.21 187.438,64.472 188.411,66.237 C192.078,72.896 191.673,79.192 187.975,86.422 C187.395,87.557 169.69,122.32 164.94,130.908 C164.309,132.049 163.419,132.692 162.575,132.692 C161.729,132.692 148.248,132.692 148.248,132.692 C148.248,132.692 177.543,77.003 178.326,75.442 C182.241,67.63 185.136,59.645 181.233,52.976 z" fill="url(#Gradient_7)"/>
      <path d="M114.857,74.035 C116.716,74.035 129.42,74.035 129.42,74.035 C131.354,74.035 132.451,75.043 133.407,76.79 C139.43,87.788 158.227,128.035 159.276,129.979 C159.996,131.312 160.96,132.692 162.574,132.692 C160.988,132.692 152.364,132.692 147.785,132.692 C145.755,132.692 144.659,132.059 143.708,130.298 C142.898,128.801 121.212,82.718 118.336,77.326 C117.612,75.969 116.961,74.035 114.857,74.035 z" fill="url(#Gradient_8)"/>
    </g>
  </g>
</svg>
