<?xml version="1.0" encoding="utf-8"?>
<!-- Generator: Adobe Illustrator 16.0.0, SVG Export Plug-In . SVG Version: 6.00 Build 0)  -->
<!DOCTYPE svg PUBLIC "-//W3C//DTD SVG 1.1//EN" "http://www.w3.org/Graphics/SVG/1.1/DTD/svg11.dtd">
<svg version="1.1" id="Layer_1" xmlns="http://www.w3.org/2000/svg" xmlns:xlink="http://www.w3.org/1999/xlink" x="0px" y="0px"
	 width="300px" height="150px" viewBox="0 0 300 150" enable-background="new 0 0 300 150" xml:space="preserve">
<g>
	<linearGradient id="SVGID_1_" gradientUnits="userSpaceOnUse" x1="75.979" y1="18.0977" x2="113.0255" y2="18.0977">
		<stop  offset="0" style="stop-color:#5D9AFF"/>
		<stop  offset="0.2587" style="stop-color:#5B96FB"/>
		<stop  offset="0.5302" style="stop-color:#538AEE"/>
		<stop  offset="0.8067" style="stop-color:#4776D9"/>
		<stop  offset="1" style="stop-color:#3C63C6"/>
	</linearGradient>
	<polygon opacity="0.5" fill="url(#SVGID_1_)" points="121.494,25.263 104.621,25.268 53.41,25.285 61.015,11.348 61.416,10.95 
		61.737,10.91 107.787,10.91 	"/>
	<linearGradient id="SVGID_2_" gradientUnits="userSpaceOnUse" x1="56.5986" y1="18.293" x2="80.7832" y2="66.6621">
		<stop  offset="0" style="stop-color:#CED6E1"/>
		<stop  offset="0.0376" style="stop-color:#D4DBE5"/>
		<stop  offset="0.1887" style="stop-color:#E7EBF0"/>
		<stop  offset="0.3646" style="stop-color:#F5F6F9"/>
		<stop  offset="0.586" style="stop-color:#FDFDFE"/>
		<stop  offset="1" style="stop-color:#FFFFFF"/>
	</linearGradient>
	<path fill="url(#SVGID_2_)" d="M52.794,23.504c0.467-0.855,4.181-7.647,5.947-10.888c0.647-1.187,2.198-1.707,3.084-1.707
		c-0.772,0-0.887,0.856-0.6,1.438c0.268,0.545,20.772,40.868,26.305,51.791c0.857,1.692,0.233,3.093-1.033,3.093
		c-1.267,0-10.384,0-11.953,0c-1.571,0-2.785-0.785-3.463-2.135c-4.076-8.116-17.675-36.645-18.235-37.772
		C52.194,26.011,52.179,24.633,52.794,23.504z"/>
	<linearGradient id="SVGID_3_" gradientUnits="userSpaceOnUse" x1="15.1411" y1="70.7583" x2="50.1068" y2="129.5385">
		<stop  offset="0" style="stop-color:#3757A3"/>
		<stop  offset="0.0067" style="stop-color:#3859A9"/>
		<stop  offset="0.0308" style="stop-color:#3A5FB9"/>
		<stop  offset="0.0577" style="stop-color:#3C62C3"/>
		<stop  offset="0.0929" style="stop-color:#3C63C6"/>
		<stop  offset="0.1788" style="stop-color:#4A78D8"/>
		<stop  offset="0.2783" style="stop-color:#5588E7"/>
		<stop  offset="0.3894" style="stop-color:#5B92EF"/>
		<stop  offset="0.5347" style="stop-color:#5D95F2"/>
		<stop  offset="0.6413" style="stop-color:#5B91EF"/>
		<stop  offset="0.7357" style="stop-color:#5487E5"/>
		<stop  offset="0.8253" style="stop-color:#4875D6"/>
		<stop  offset="0.8884" style="stop-color:#3C63C6"/>
		<stop  offset="1" style="stop-color:#3757A3"/>
	</linearGradient>
	<path fill="url(#SVGID_3_)" d="M14.763,81.03l8.197-12.823l32.979,60.816c0,0-12.782,0-14.065,0c-1.113,0-2-0.961-2.641-2.068
		C38.592,125.846,14.763,81.03,14.763,81.03z"/>
	<linearGradient id="SVGID_4_" gradientUnits="userSpaceOnUse" x1="14.4839" y1="75.7744" x2="48.0284" y2="11.571">
		<stop  offset="0" style="stop-color:#5D9AFF"/>
		<stop  offset="0.4941" style="stop-color:#5D95F2"/>
		<stop  offset="0.6397" style="stop-color:#5A91EF"/>
		<stop  offset="0.7804" style="stop-color:#5386E4"/>
		<stop  offset="0.9187" style="stop-color:#4672D3"/>
		<stop  offset="1" style="stop-color:#3C63C6"/>
	</linearGradient>
	<path fill="url(#SVGID_4_)" d="M42.199,10.976c1.469-0.006,9.927-0.066,10.89-0.066s2.137,1.525,1.378,2.9
		c-5.456,9.875-27.987,48.224-31.463,54.419c-3.518,6.27-8.357,12.598-4.335,19.945c-0.899-1.553-2.222-4.238-3.905-7.144
		c-4.964-8.568-4.872-17.346-0.049-26.09c4.119-7.468,19.979-33.792,24.4-41.81C39.871,11.762,40.73,10.983,42.199,10.976z"/>
	<linearGradient id="SVGID_5_" gradientUnits="userSpaceOnUse" x1="51.4561" y1="128.0029" x2="79.5498" y2="70.4645">
		<stop  offset="0" style="stop-color:#DEDEE3"/>
		<stop  offset="0.0486" style="stop-color:#E9E9ED"/>
		<stop  offset="0.1324" style="stop-color:#F6F6F7"/>
		<stop  offset="0.2457" style="stop-color:#FDFDFD"/>
		<stop  offset="0.5136" style="stop-color:#FFFFFF"/>
		<stop  offset="0.6995" style="stop-color:#ECEFF3"/>
		<stop  offset="1" style="stop-color:#C5CEDB"/>
	</linearGradient>
	<path fill="url(#SVGID_5_)" d="M87.565,70.312c0,0-12.97,0-13.78,0c-1.14,0-2.011,0.925-2.825,2.538
		c-5.414,10.721-24.562,51.834-25.588,53.724c-0.621,1.145-1.604,2.45-3.148,2.45c1.819,0,14.138,0,15.557,0
		s2.209-0.747,2.868-1.971C61.306,125.832,87.565,70.312,87.565,70.312z"/>
	<linearGradient id="SVGID_6_" gradientUnits="userSpaceOnUse" x1="110.5479" y1="13.9863" x2="141.552" y2="65.2293">
		<stop  offset="0" style="stop-color:#5D9AFF"/>
		<stop  offset="0.388" style="stop-color:#5D95F2"/>
		<stop  offset="0.5114" style="stop-color:#598FEC"/>
		<stop  offset="0.6825" style="stop-color:#4D7DDD"/>
		<stop  offset="0.8589" style="stop-color:#3C63C6"/>
		<stop  offset="1" style="stop-color:#3757A3"/>
	</linearGradient>
	<path fill="url(#SVGID_6_)" d="M97.557,10.91c1.182,0,7.794,0,12.029,0c6.889,0,12.765,4.464,16.863,10.962
		c0.788,1.249,18.216,36.286,18.216,36.286l-7.484,13.56c0,0-23.713-45.47-24.281-46.433C110.642,21.449,104.952,10.91,97.557,10.91
		z"/>
	<linearGradient id="SVGID_7_" gradientUnits="userSpaceOnUse" x1="147.0835" y1="62.0547" x2="109.2953" y2="127.3249">
		<stop  offset="0" style="stop-color:#5D9AFF"/>
		<stop  offset="0.3193" style="stop-color:#5D96F4"/>
		<stop  offset="0.3734" style="stop-color:#5D95F2"/>
		<stop  offset="0.5109" style="stop-color:#5A91EF"/>
		<stop  offset="0.6439" style="stop-color:#5386E4"/>
		<stop  offset="0.7746" style="stop-color:#4672D3"/>
		<stop  offset="0.8514" style="stop-color:#3C63C6"/>
		<stop  offset="1" style="stop-color:#3757A3"/>
	</linearGradient>
	<path fill="url(#SVGID_7_)" d="M140.083,49.278c3.825,7.226,6.198,11.483,7.17,13.247c3.663,6.651,3.257,12.938-0.435,20.161
		c-0.58,1.134-18.264,35.857-23.008,44.436c-0.631,1.139-1.518,1.783-2.363,1.783c-0.844,0-14.31,0-14.31,0
		s29.261-55.626,30.042-57.187C141.091,63.915,143.982,55.938,140.083,49.278z"/>
	<linearGradient id="SVGID_8_" gradientUnits="userSpaceOnUse" x1="81.9697" y1="68.458" x2="111.4665" y2="127.1836">
		<stop  offset="0" style="stop-color:#CED6E1"/>
		<stop  offset="0.0288" style="stop-color:#DAE0E8"/>
		<stop  offset="0.0859" style="stop-color:#EBEEF2"/>
		<stop  offset="0.1571" style="stop-color:#F6F8FA"/>
		<stop  offset="0.2571" style="stop-color:#FDFDFE"/>
		<stop  offset="0.5344" style="stop-color:#FFFFFF"/>
		<stop  offset="0.6577" style="stop-color:#F9FAFB"/>
		<stop  offset="0.8231" style="stop-color:#E8ECF1"/>
		<stop  offset="1" style="stop-color:#CED6E1"/>
	</linearGradient>
	<path fill="url(#SVGID_8_)" d="M73.785,70.312c1.857,0,14.547,0,14.547,0c1.932,0,3.026,1.009,3.983,2.753
		c6.016,10.984,24.79,51.186,25.839,53.128c0.719,1.332,1.681,2.712,3.293,2.712c-1.583,0-10.198,0-14.771,0
		c-2.027,0-3.123-0.636-4.072-2.393c-0.809-1.495-22.47-47.525-25.343-52.91C76.536,72.244,75.887,70.312,73.785,70.312z"/>
</g>
<g>
	<path fill="#FFFFFF" d="M182.438,13.238c4.522,0,8.188,3.666,8.188,8.188c0,4.523-3.665,8.188-8.188,8.188h-3.705
		c-0.234,0-0.389,0.156-0.389,0.39v9.748c0,0.429-0.351,0.78-0.781,0.78h-2.144c-0.429,0-0.78-0.351-0.78-0.78V14.018
		c0-0.428,0.352-0.78,0.78-0.78H182.438z M178.732,16.942c-0.234,0-0.389,0.156-0.389,0.39v8.188c0,0.234,0.154,0.391,0.389,0.391
		h3.705c2.455,0,4.483-2.027,4.483-4.484c0-2.457-2.028-4.484-4.483-4.484H178.732z"/>
	<path fill="#FFFFFF" d="M195.071,26.221c0,0.664-0.547,0.664-0.897,0.664h-1.753c-0.586,0-0.781-0.312-0.781-0.78
		c0-3.626,3.744-5.458,7.058-5.458c4.405,0,7.135,1.91,7.135,6.238v12.866c0,0.429-0.352,0.78-0.78,0.78h-1.326
		c-0.232,0-0.389-0.078-0.545-0.273c-0.234-0.312-0.39-0.819-0.779-0.819c-0.703,0-1.677,1.481-4.562,1.481
		c-4.796,0-7.097-2.924-7.097-6.239c0-3.236,2.339-5.926,6.433-5.926h4.757c0.234,0,0.391-0.156,0.391-0.39v-1.481
		c0-2.106-1.442-3.12-3.626-3.12C197.333,23.765,195.071,24.351,195.071,26.221z M197.176,31.953c-1.988,0-2.924,1.053-2.924,2.69
		c0,1.911,1.209,3.041,3.47,3.041c3.587,0,4.913-1.443,4.913-4.094v-1.248c0-0.234-0.155-0.39-0.39-0.39H197.176z"/>
	<path fill="#FFFFFF" d="M219.752,24.506c-3.08,0-5.848,1.599-5.848,5.888v9.357c0,0.429-0.351,0.78-0.779,0.78h-1.95
		c-0.43,0-0.779-0.351-0.779-0.78V21.816c0-0.429,0.35-0.78,0.779-0.78h1.325c0.43,0,0.663,0.234,0.78,0.78
		c0.116,0.507,0.116,1.365,0.701,1.365c0.936,0,1.599-2.145,5.771-2.145h0.78c0.429,0,0.779,0.351,0.779,0.78v1.911
		c0,0.429-0.351,0.779-0.779,0.779H219.752z"/>
	<path fill="#FFFFFF" d="M227.939,16.279c0,0.352-0.273,0.625-0.623,0.625h-2.651c-0.35,0-0.624-0.273-0.624-0.625v-2.689
		c0-0.312,0.274-0.625,0.624-0.625h2.651c0.35,0,0.623,0.312,0.623,0.625V16.279z M227.823,39.751c0,0.429-0.352,0.78-0.78,0.78
		h-2.027c-0.429,0-0.779-0.351-0.779-0.78V21.816c0-0.429,0.351-0.78,0.779-0.78h2.027c0.429,0,0.78,0.351,0.78,0.78V39.751z"/>
	<path fill="#FFFFFF" d="M245.798,27.274h-1.95c-0.428,0-0.779-0.351-0.779-0.78c0-1.364-1.053-2.535-3.626-2.535
		c-2.417,0-3.431,1.209-3.431,2.34c0,1.52,1.52,2.027,3.431,2.378c3.275,0.585,7.681,1.248,7.681,6.004
		c0,4.173-3.625,6.239-7.681,6.239c-3.898,0-7.72-1.949-7.72-6.239v-0.507c0-0.429,0.352-0.779,0.779-0.779h1.95
		c0.429,0,0.779,0.35,0.779,0.779v0.507c0,2.34,2.418,2.886,4.211,2.886c2.106,0,4.172-0.545,4.172-2.886
		c0-1.598-1.91-2.027-4.172-2.495c-3.197-0.663-7.058-1.482-7.058-5.887c0-3.509,3.51-5.653,7.058-5.653
		c3.626,0,7.135,2.144,7.135,5.848C246.577,26.924,246.227,27.274,245.798,27.274z"/>
	<path fill="#FFFFFF" d="M191.717,75.776c0,4.328-3.625,8.109-8.773,8.109c-4.678,0-8.147-3.08-8.771-8.109
		c-0.391-3.159-0.391-8.578,0-11.697c0.507-4.25,3.625-8.11,8.771-8.11c4.68,0,8.773,3.042,8.773,8.11v0.545
		c0,0.429-0.352,0.78-0.779,0.78h-2.146c-0.428,0-0.778-0.351-0.778-0.78v-0.545c0-2.34-1.989-4.368-5.069-4.406
		c-2.533,0-4.718,1.56-5.067,4.406c-0.392,3.197-0.392,8.499,0,11.697c0.312,2.261,2.027,4.406,5.067,4.406
		c2.613,0,5.069-1.561,5.069-4.406v-0.547c0-0.428,0.351-0.779,0.778-0.779h2.146c0.428,0,0.779,0.351,0.779,0.779V75.776z"/>
	<path fill="#FFFFFF" d="M199.32,82.794c0,0.428-0.351,0.778-0.78,0.778h-1.949c-0.429,0-0.778-0.351-0.778-0.778V56.787
		c0-0.428,0.35-0.779,0.778-0.779h1.949c0.43,0,0.78,0.351,0.78,0.779V82.794z"/>
	<path fill="#FFFFFF" d="M203.609,71.097c0.312-4.094,3.313-7.408,7.993-7.408c4.678,0,7.681,3.314,7.992,7.408
		c0.117,1.56,0.117,3.899,0,5.458c-0.312,4.095-3.314,7.408-7.992,7.408c-4.68,0-7.681-3.313-7.993-7.408
		C203.493,74.996,203.493,72.657,203.609,71.097z M207.118,76.555c0.157,2.066,1.794,3.899,4.484,3.899s4.327-1.833,4.483-3.899
		c0.117-1.598,0.117-3.859,0-5.458c-0.156-2.066-1.793-3.899-4.483-3.899s-4.327,1.833-4.484,3.899
		C207.001,72.696,207.001,74.957,207.118,76.555z"/>
	<path fill="#FFFFFF" d="M224.743,64.858c0-0.429,0.351-0.779,0.779-0.779h2.066c0.429,0,0.78,0.35,0.78,0.779v19.885
		c0,3.782-3.003,7.018-7.136,7.018h-2.027c-0.429,0-0.779-0.351-0.779-0.779v-1.949c0-0.43,0.351-0.78,0.779-0.78h2.027
		c1.95,0,3.51-1.404,3.51-3.509V64.858z M228.524,59.322c0,0.351-0.273,0.624-0.623,0.624h-2.651c-0.352,0-0.624-0.273-0.624-0.624
		v-2.69c0-0.312,0.272-0.624,0.624-0.624h2.651c0.35,0,0.623,0.312,0.623,0.624V59.322z"/>
	<path fill="#FFFFFF" d="M233.203,64.858c0-0.429,0.352-0.779,0.78-0.779h1.949c0.429,0,0.78,0.35,0.78,0.779v11.696
		c0,2.262,1.599,3.899,4.288,3.899c2.418,0,4.289-1.442,4.289-3.704V64.858c0-0.429,0.352-0.779,0.78-0.779h1.949
		c0.429,0,0.78,0.35,0.78,0.779v17.936c0,0.428-0.352,0.778-0.78,0.778h-1.715c-0.234,0-0.392-0.116-0.546-0.271
		c-0.234-0.273-0.585-0.623-0.976-0.623c-1.13,0-1.286,1.285-4.171,1.285c-4.406,0-7.409-3.119-7.409-7.408V64.858z"/>
	<path fill="#FFFFFF" d="M262.837,67.548c-3.08,0-5.848,1.599-5.848,5.888v9.357c0,0.428-0.351,0.778-0.78,0.778h-1.95
		c-0.429,0-0.779-0.351-0.779-0.778V64.858c0-0.429,0.351-0.779,0.779-0.779h1.325c0.43,0,0.664,0.233,0.78,0.779
		c0.118,0.507,0.118,1.365,0.703,1.365c0.936,0,1.598-2.144,5.77-2.144h0.78c0.428,0,0.778,0.35,0.778,0.779v1.911
		c0,0.429-0.351,0.779-0.778,0.779H262.837z"/>
	<path fill="#FFFFFF" d="M269.154,74.957c-0.235,0-0.391,0.155-0.391,0.39c0,3.548,1.833,5.107,4.523,5.107
		c2.027,0,3.548-1.013,4.015-2.456c0.156-0.508,0.547-0.663,0.897-0.663h1.988c0.39,0,0.74,0.235,0.664,0.78
		c-0.469,3.392-3.51,5.848-7.564,5.848c-4.68,0-7.682-3.313-7.993-7.408c-0.117-1.559-0.117-3.898,0-5.458
		c0.312-4.094,3.313-7.408,7.993-7.408c4.718,0,7.797,2.924,7.797,7.797v2.691c0,0.428-0.351,0.78-0.779,0.78H269.154z
		 M268.842,71.448c0,0.233,0.155,0.39,0.39,0.39h8.11c0.234,0,0.39-0.156,0.39-0.39c0-2.691-1.988-4.25-4.406-4.25
		C270.635,67.198,268.842,69.069,268.842,71.448z"/>
	<path fill="#FFFFFF" d="M185.596,119.247c0.078,0.234,0.312,0.234,0.389,0l5.381-19.261c0.117-0.468,0.391-0.663,0.819-0.663h3.978
		c0.428,0,0.779,0.351,0.779,0.78v25.732c0,0.43-0.352,0.78-0.779,0.78h-2.067c-0.429,0-0.779-0.351-0.779-0.78v-19.495
		c0-0.233-0.272-0.233-0.312-0.077l-5.575,19.689c-0.154,0.468-0.39,0.663-0.818,0.663h-1.639c-0.428,0-0.662-0.195-0.817-0.663
		l-5.576-19.689c-0.039-0.156-0.312-0.156-0.312,0.077v19.495c0,0.43-0.351,0.78-0.781,0.78h-2.065c-0.429,0-0.78-0.351-0.78-0.78
		v-25.732c0-0.43,0.352-0.78,0.78-0.78h3.978c0.429,0,0.701,0.195,0.818,0.663L185.596,119.247z"/>
	<path fill="#FFFFFF" d="M205.092,117.999c-0.234,0-0.391,0.157-0.391,0.391c0,3.548,1.833,5.107,4.523,5.107
		c2.027,0,3.548-1.014,4.016-2.456c0.155-0.508,0.547-0.664,0.896-0.664h1.988c0.391,0,0.741,0.235,0.663,0.781
		c-0.467,3.392-3.509,5.848-7.563,5.848c-4.679,0-7.681-3.313-7.992-7.407c-0.118-1.561-0.118-3.899,0-5.46
		c0.312-4.093,3.313-7.407,7.992-7.407c4.719,0,7.798,2.924,7.798,7.798v2.69c0,0.429-0.352,0.779-0.779,0.779H205.092z
		 M204.779,114.491c0,0.232,0.156,0.39,0.391,0.39h8.109c0.234,0,0.39-0.157,0.39-0.39c0-2.69-1.988-4.251-4.405-4.251
		C206.573,110.24,204.779,112.112,204.779,114.491z"/>
	<path fill="#FFFFFF" d="M224.274,117.999c-0.234,0-0.391,0.157-0.391,0.391c0,3.548,1.833,5.107,4.524,5.107
		c2.026,0,3.548-1.014,4.017-2.456c0.154-0.508,0.545-0.664,0.895-0.664h1.99c0.39,0,0.74,0.235,0.662,0.781
		c-0.468,3.392-3.509,5.848-7.563,5.848c-4.679,0-7.681-3.313-7.993-7.407c-0.118-1.561-0.118-3.899,0-5.46
		c0.312-4.093,3.314-7.407,7.993-7.407c4.718,0,7.798,2.924,7.798,7.798v2.69c0,0.429-0.352,0.779-0.78,0.779H224.274z
		 M223.963,114.491c0,0.232,0.156,0.39,0.39,0.39h8.11c0.233,0,0.39-0.157,0.39-0.39c0-2.69-1.989-4.251-4.406-4.251
		C225.758,110.24,223.963,112.112,223.963,114.491z"/>
	<path fill="#FFFFFF" d="M249.386,107.316c0.429,0,0.78,0.351,0.78,0.78v1.949c0,0.429-0.352,0.779-0.78,0.779H244.9
		c-0.232,0-0.389,0.156-0.389,0.391v9.161c0,1.717,0.741,2.848,3.119,2.848h2.144c0.43,0,0.779,0.35,0.779,0.779v1.832
		c0,0.43-0.35,0.78-0.779,0.78h-2.144c-4.056,0-6.629-1.755-6.629-6.239v-9.161c0-0.234-0.156-0.391-0.39-0.391h-2.729
		c-0.429,0-0.78-0.351-0.78-0.779v-1.949c0-0.43,0.352-0.78,0.78-0.78h2.729c0.233,0,0.39-0.156,0.39-0.39v-6.044
		c0-0.429,0.353-0.779,0.78-0.779h1.95c0.429,0,0.779,0.351,0.779,0.779v6.044c0,0.233,0.156,0.39,0.389,0.39H249.386z"/>
	<path fill="#FFFFFF" d="M253.09,107.902c0-0.431,0.352-0.781,0.779-0.781h1.949c0.43,0,0.779,0.351,0.779,0.781v11.696
		c0,2.261,1.6,3.898,4.289,3.898c2.417,0,4.29-1.442,4.29-3.704v-11.891c0-0.431,0.351-0.781,0.779-0.781h1.949
		c0.429,0,0.779,0.351,0.779,0.781v17.934c0,0.43-0.351,0.78-0.779,0.78h-1.715c-0.234,0-0.391-0.117-0.546-0.273
		c-0.235-0.272-0.586-0.623-0.975-0.623c-1.132,0-1.288,1.286-4.173,1.286c-4.406,0-7.407-3.119-7.407-7.407V107.902z"/>
	<path fill="#FFFFFF" d="M288.844,114.139c0.117,1.561,0.117,3.899,0,5.46c-0.311,4.094-3.314,7.407-7.409,7.407
		c-1.793,0-2.844-0.976-3.624-0.976c-0.586,0-0.858,0.235-0.858,0.976v6.629c0,0.428-0.352,0.779-0.78,0.779h-1.949
		c-0.429,0-0.779-0.352-0.779-0.779v-25.732c0-0.431,0.351-0.781,0.779-0.781h1.326c0.232,0,0.39,0.117,0.545,0.274
		c0.235,0.271,0.585,0.623,0.976,0.623c1.13,0,1.48-1.287,4.365-1.287C285.529,106.731,288.533,110.046,288.844,114.139z
		 M285.529,114.139c-0.155-2.066-1.793-3.898-4.482-3.898c-2.691,0-4.329,1.832-4.484,3.898c-0.117,1.6-0.117,3.86,0,5.46
		c0.155,2.066,1.793,3.898,4.484,3.898c2.689,0,4.327-1.832,4.482-3.898C285.646,117.999,285.646,115.738,285.529,114.139z"/>
</g>
</svg>
