<?xml version="1.0" encoding="utf-8"?>
<!-- Generator: Adobe Illustrator 16.0.0, SVG Export Plug-In . SVG Version: 6.00 Build 0)  -->
<!DOCTYPE svg PUBLIC "-//W3C//DTD SVG 1.1//EN" "http://www.w3.org/Graphics/SVG/1.1/DTD/svg11.dtd">
<svg version="1.1" id="Layer_1" xmlns="http://www.w3.org/2000/svg" xmlns:xlink="http://www.w3.org/1999/xlink" x="0px" y="0px"
	 width="600px" height="100px" viewBox="-14.417 0 600 100" enable-background="new -14.417 0 600 100" xml:space="preserve">
<g>
	
		<linearGradient id="SVGID_1_" gradientUnits="userSpaceOnUse" x1="294.3535" y1="762.2471" x2="315.1442" y2="762.2471" gradientTransform="matrix(1 0 0 1 -262 -741)">
		<stop  offset="0" style="stop-color:#5D9AFF"/>
		<stop  offset="0.2587" style="stop-color:#5B96FB"/>
		<stop  offset="0.5302" style="stop-color:#538AEE"/>
		<stop  offset="0.8067" style="stop-color:#4776D9"/>
		<stop  offset="1" style="stop-color:#3C63C6"/>
	</linearGradient>
	<polygon opacity="0.5" fill="url(#SVGID_1_)" enable-background="new    " points="57.896,25.268 48.428,25.271 19.687,25.281 
		23.956,17.459 24.181,17.235 24.36,17.213 50.203,17.213 	"/>
	
		<linearGradient id="SVGID_2_" gradientUnits="userSpaceOnUse" x1="283.4766" y1="762.3564" x2="297.048" y2="789.4995" gradientTransform="matrix(1 0 0 1 -262 -741)">
		<stop  offset="0" style="stop-color:#1E2343"/>
		<stop  offset="0.0869" style="stop-color:#222746"/>
		<stop  offset="0.4049" style="stop-color:#2A2F4D"/>
		<stop  offset="1" style="stop-color:#2C314F"/>
	</linearGradient>
	<path fill="url(#SVGID_2_)" d="M19.343,24.281c0.263-0.481,2.346-4.292,3.336-6.11c0.363-0.666,1.234-0.958,1.73-0.958
		c-0.434,0-0.497,0.479-0.336,0.807c0.15,0.307,11.659,22.936,14.762,29.065c0.481,0.949,0.132,1.735-0.581,1.735
		c-0.712,0-5.827,0-6.707,0c-0.881,0-1.563-0.439-1.943-1.198c-2.288-4.556-9.919-20.564-10.234-21.197
		C19.005,25.687,18.995,24.915,19.343,24.281z"/>
	
		<linearGradient id="SVGID_3_" gradientUnits="userSpaceOnUse" x1="260.2129" y1="791.8008" x2="279.8356" y2="824.788" gradientTransform="matrix(1 0 0 1 -262 -741)">
		<stop  offset="0" style="stop-color:#3757A3"/>
		<stop  offset="0.0067" style="stop-color:#3859A9"/>
		<stop  offset="0.0308" style="stop-color:#3A5FB9"/>
		<stop  offset="0.0577" style="stop-color:#3C62C3"/>
		<stop  offset="0.0929" style="stop-color:#3C63C6"/>
		<stop  offset="0.1788" style="stop-color:#4A78D8"/>
		<stop  offset="0.2783" style="stop-color:#5588E7"/>
		<stop  offset="0.3894" style="stop-color:#5B92EF"/>
		<stop  offset="0.5347" style="stop-color:#5D95F2"/>
		<stop  offset="0.6413" style="stop-color:#5B91EF"/>
		<stop  offset="0.7357" style="stop-color:#5487E5"/>
		<stop  offset="0.8253" style="stop-color:#4875D6"/>
		<stop  offset="0.8884" style="stop-color:#3C63C6"/>
		<stop  offset="1" style="stop-color:#3757A3"/>
	</linearGradient>
	<path fill="url(#SVGID_3_)" d="M-2,56.564l4.6-7.197l18.506,34.131c0,0-7.172,0-7.891,0c-0.625,0-1.122-0.539-1.482-1.162
		C11.372,81.715-2,56.564-2,56.564z"/>
	
		<linearGradient id="SVGID_4_" gradientUnits="userSpaceOnUse" x1="259.8418" y1="794.6162" x2="278.6678" y2="758.5837" gradientTransform="matrix(1 0 0 1 -262 -741)">
		<stop  offset="0" style="stop-color:#5D9AFF"/>
		<stop  offset="0.4941" style="stop-color:#5D95F2"/>
		<stop  offset="0.6397" style="stop-color:#5A91EF"/>
		<stop  offset="0.7804" style="stop-color:#5386E4"/>
		<stop  offset="0.9187" style="stop-color:#4672D3"/>
		<stop  offset="1" style="stop-color:#3C63C6"/>
	</linearGradient>
	<path fill="url(#SVGID_4_)" d="M13.396,17.251c0.824-0.004,5.57-0.038,6.112-0.038c0.539,0,1.2,0.855,0.773,1.627
		C17.219,24.384,4.574,45.905,2.623,49.381C0.649,52.899-2.065,56.45,0.19,60.574c-0.503-0.873-1.246-2.379-2.19-4.01
		c-2.786-4.808-2.733-9.733-0.028-14.642c2.311-4.191,11.212-18.964,13.694-23.463C12.089,17.691,12.572,17.254,13.396,17.251z"/>
	
		<linearGradient id="SVGID_5_" gradientUnits="userSpaceOnUse" x1="280.5898" y1="823.9258" x2="296.3557" y2="791.6359" gradientTransform="matrix(1 0 0 1 -262 -741)">
		<stop  offset="0" style="stop-color:#1E2343"/>
		<stop  offset="0.0458" style="stop-color:#232847"/>
		<stop  offset="0.1681" style="stop-color:#2A2F4D"/>
		<stop  offset="0.493" style="stop-color:#2C314F"/>
		<stop  offset="1" style="stop-color:#151A3A"/>
	</linearGradient>
	<path fill="url(#SVGID_5_)" d="M38.855,50.55c0,0-7.279,0-7.732,0c-0.64,0-1.131,0.517-1.586,1.423
		c-3.039,6.018-13.786,29.09-14.36,30.15c-0.351,0.642-0.902,1.376-1.768,1.376c1.021,0,7.934,0,8.73,0
		c0.795,0,1.242-0.42,1.609-1.105C24.119,81.707,38.855,50.55,38.855,50.55z"/>
	
		<linearGradient id="SVGID_6_" gradientUnits="userSpaceOnUse" x1="313.7539" y1="759.9395" x2="331.153" y2="788.6961" gradientTransform="matrix(1 0 0 1 -262 -741)">
		<stop  offset="0" style="stop-color:#5D9AFF"/>
		<stop  offset="0.388" style="stop-color:#5D95F2"/>
		<stop  offset="0.5114" style="stop-color:#598FEC"/>
		<stop  offset="0.6825" style="stop-color:#4D7DDD"/>
		<stop  offset="0.8589" style="stop-color:#3C63C6"/>
		<stop  offset="1" style="stop-color:#3757A3"/>
	</linearGradient>
	<path fill="url(#SVGID_6_)" d="M44.462,17.213c0.664,0,4.375,0,6.75,0c3.866,0,7.163,2.505,9.465,6.152
		c0.441,0.701,10.222,20.362,10.222,20.362l-4.198,7.61c0,0-13.308-25.518-13.627-26.056C51.806,23.127,48.613,17.213,44.462,17.213
		z"/>
	
		<linearGradient id="SVGID_7_" gradientUnits="userSpaceOnUse" x1="334.2559" y1="786.9141" x2="313.049" y2="823.5436" gradientTransform="matrix(1 0 0 1 -262 -741)">
		<stop  offset="0" style="stop-color:#5D9AFF"/>
		<stop  offset="0.3193" style="stop-color:#5D96F4"/>
		<stop  offset="0.3734" style="stop-color:#5D95F2"/>
		<stop  offset="0.5109" style="stop-color:#5A91EF"/>
		<stop  offset="0.6439" style="stop-color:#5386E4"/>
		<stop  offset="0.7746" style="stop-color:#4672D3"/>
		<stop  offset="0.8514" style="stop-color:#3C63C6"/>
		<stop  offset="1" style="stop-color:#3757A3"/>
	</linearGradient>
	<path fill="url(#SVGID_7_)" d="M68.329,38.746c2.145,4.054,3.477,6.444,4.023,7.432c2.055,3.733,1.827,7.263-0.244,11.316
		c-0.325,0.635-10.25,20.12-12.914,24.938c-0.354,0.637-0.853,0.998-1.324,0.998c-0.476,0-8.033,0-8.033,0
		s16.423-31.217,16.86-32.092C68.893,46.959,70.517,42.484,68.329,38.746z"/>
	
		<linearGradient id="SVGID_8_" gradientUnits="userSpaceOnUse" x1="297.7158" y1="790.5088" x2="314.269" y2="823.4648" gradientTransform="matrix(1 0 0 1 -262 -741)">
		<stop  offset="0" style="stop-color:#1E2343"/>
		<stop  offset="0.0429" style="stop-color:#222746"/>
		<stop  offset="0.1997" style="stop-color:#2A2F4D"/>
		<stop  offset="0.493" style="stop-color:#2C314F"/>
		<stop  offset="0.7854" style="stop-color:#292E4D"/>
		<stop  offset="0.9604" style="stop-color:#212646"/>
		<stop  offset="1" style="stop-color:#1E2343"/>
	</linearGradient>
	<path fill="url(#SVGID_8_)" d="M31.123,50.55c1.042,0,8.162,0,8.162,0c1.085,0,1.699,0.566,2.236,1.545
		c3.376,6.166,13.913,28.726,14.5,29.814c0.404,0.747,0.945,1.521,1.849,1.521c-0.89,0-5.722,0-8.292,0
		c-1.136,0-1.751-0.355-2.286-1.343c-0.453-0.838-12.609-26.67-14.222-29.692C32.667,51.634,32.302,50.55,31.123,50.55z"/>
</g>
<path fill="#2C314F" d="M105.008,28.243c6.904,0,12.501,5.596,12.501,12.501c0,6.906-5.597,12.5-12.501,12.5h-5.652
	c-0.358,0-0.6,0.237-0.6,0.593v14.88c0,0.656-0.534,1.193-1.19,1.193h-3.274c-0.654,0-1.188-0.537-1.188-1.193V29.432
	c0-0.652,0.534-1.189,1.188-1.189H105.008z M99.355,33.897c-0.358,0-0.6,0.237-0.6,0.595v12.502c0,0.355,0.239,0.594,0.6,0.594
	h5.652c3.751,0,6.845-3.094,6.845-6.844c0-3.75-3.099-6.845-6.845-6.845h-5.652V33.897z"/>
<path fill="#2C314F" d="M124.292,48.064c0,1.012-0.834,1.012-1.366,1.012h-2.68c-0.893,0-1.19-0.475-1.19-1.189
	c0-5.535,5.713-8.333,10.773-8.333c6.73,0,10.896,2.917,10.896,9.523v19.641c0,0.656-0.538,1.193-1.191,1.193h-2.023
	c-0.355,0-0.598-0.119-0.831-0.417c-0.358-0.475-0.597-1.248-1.188-1.248c-1.073,0-2.563,2.26-6.964,2.26
	c-7.322,0-10.833-4.463-10.833-9.522c0-4.939,3.57-9.047,9.821-9.047h7.26c0.357,0,0.592-0.238,0.592-0.596v-2.26
	c0-3.217-2.197-4.763-5.532-4.763C127.748,44.312,124.292,45.209,124.292,48.064z M127.51,56.812c-3.04,0-4.469,1.607-4.469,4.106
	c0,2.919,1.848,4.643,5.299,4.643c5.475,0,7.501-2.202,7.501-6.249v-1.905c0-0.355-0.238-0.598-0.594-0.598h-7.737V56.812z"/>
<path fill="#2C314F" d="M161.971,45.445c-4.699,0-8.924,2.438-8.924,8.988v14.283c0,0.656-0.54,1.193-1.193,1.193h-2.974
	c-0.656,0-1.193-0.537-1.193-1.193V41.337c0-0.654,0.537-1.191,1.193-1.191h2.021c0.657,0,1.013,0.355,1.192,1.191
	c0.181,0.776,0.181,2.084,1.073,2.084c1.427,0,2.439-3.273,8.805-3.273h1.19c0.658,0,1.193,0.538,1.193,1.191v2.916
	c0,0.654-0.535,1.191-1.193,1.191h-1.19V45.445z"/>
<path fill="#2C314F" d="M174.475,32.887c0,0.538-0.418,0.951-0.95,0.951h-4.053c-0.532,0-0.947-0.417-0.947-0.951V28.78
	c0-0.479,0.415-0.951,0.947-0.951h4.053c0.532,0,0.95,0.475,0.95,0.951V32.887z M174.299,68.717c0,0.656-0.541,1.193-1.194,1.193
	h-3.099c-0.648,0-1.185-0.537-1.185-1.193V41.337c0-0.654,0.536-1.191,1.185-1.191h3.099c0.653,0,1.194,0.537,1.194,1.191V68.717z"
	/>
<path fill="#2C314F" d="M201.737,49.672h-2.979c-0.654,0-1.188-0.538-1.188-1.19c0-2.083-1.606-3.868-5.532-3.868
	c-3.695,0-5.244,1.846-5.244,3.57c0,2.322,2.323,3.096,5.244,3.631c4.998,0.892,11.718,1.904,11.718,9.165
	c0,6.369-5.531,9.522-11.718,9.522c-5.957,0-11.79-2.975-11.79-9.522v-0.776c0-0.652,0.534-1.188,1.19-1.188h2.971
	c0.659,0,1.194,0.535,1.194,1.188v0.776c0,3.572,3.689,4.406,6.43,4.406c3.213,0,6.367-0.834,6.367-4.406
	c0-2.439-2.916-3.097-6.367-3.81c-4.884-1.013-10.776-2.264-10.776-8.986c0-5.359,5.358-8.633,10.776-8.633
	c5.537,0,10.891,3.273,10.891,8.928C202.924,49.134,202.389,49.672,201.737,49.672z"/>
<path fill="#2C314F" d="M248.269,57.939c0,6.608-5.536,12.383-13.394,12.383c-7.141,0-12.439-4.706-13.394-12.383
	c-0.595-4.817-0.595-13.094,0-17.855c0.777-6.488,5.537-12.38,13.394-12.38c7.144,0,13.394,4.644,13.394,12.38v0.831
	c0,0.657-0.533,1.192-1.193,1.192h-3.271c-0.657,0-1.191-0.535-1.191-1.192v-0.831c0-3.573-3.036-6.665-7.737-6.726
	c-3.866,0-7.198,2.379-7.737,6.726c-0.594,4.882-0.594,12.975,0,17.855c0.477,3.452,3.098,6.727,7.737,6.727
	c3.99,0,7.737-2.383,7.737-6.727V57.11c0-0.654,0.534-1.189,1.191-1.189h3.271c0.66,0,1.193,0.535,1.193,1.189V57.939z"/>
<path fill="#2C314F" d="M259.875,68.657c0,0.653-0.537,1.188-1.19,1.188h-2.979c-0.654,0-1.188-0.534-1.188-1.188V28.954
	c0-0.654,0.534-1.188,1.188-1.188h2.979c0.653,0,1.19,0.535,1.19,1.188V68.657z"/>
<path fill="#2C314F" d="M266.422,50.799c0.479-6.25,5.06-11.311,12.201-11.311c7.144,0,11.729,5.061,12.205,11.311
	c0.177,2.38,0.177,5.951,0,8.33c-0.477,6.251-5.06,11.311-12.205,11.311c-7.142,0-11.723-5.06-12.201-11.311
	C266.245,56.75,266.245,53.182,266.422,50.799z M271.777,59.129c0.239,3.157,2.74,5.952,6.846,5.952c4.104,0,6.606-2.798,6.85-5.952
	c0.174-2.439,0.174-5.892,0-8.33c-0.243-3.156-2.745-5.953-6.85-5.953c-4.105,0-6.606,2.799-6.846,5.953
	C271.602,53.241,271.602,56.689,271.777,59.129z"/>
<path fill="#2C314F" d="M298.686,41.275c0-0.655,0.534-1.188,1.188-1.188h3.158c0.653,0,1.19,0.534,1.19,1.188v30.355
	c0,5.775-4.587,10.717-10.897,10.717h-3.094c-0.653,0-1.188-0.535-1.188-1.189V78.18c0-0.654,0.535-1.188,1.188-1.188h3.094
	c2.979,0,5.36-2.144,5.36-5.361V41.275z M304.459,32.823c0,0.537-0.415,0.954-0.947,0.954h-4.051c-0.534,0-0.949-0.417-0.949-0.954
	v-4.105c0-0.479,0.415-0.952,0.949-0.952h4.051c0.532,0,0.947,0.474,0.947,0.952V32.823z"/>
<path fill="#2C314F" d="M311.604,41.275c0-0.655,0.535-1.188,1.192-1.188h2.973c0.657,0,1.194,0.534,1.194,1.188v17.858
	c0,3.451,2.436,5.952,6.543,5.952c3.692,0,6.55-2.205,6.55-5.656V41.275c0-0.655,0.534-1.188,1.188-1.188h2.976
	c0.654,0,1.188,0.534,1.188,1.188v27.382c0,0.653-0.534,1.188-1.188,1.188h-2.62c-0.355,0-0.593-0.175-0.831-0.415
	c-0.358-0.417-0.893-0.949-1.486-0.949c-1.726,0-1.965,1.962-6.37,1.962c-6.724,0-11.309-4.76-11.309-11.309V41.275z"/>
<path fill="#2C314F" d="M356.842,45.383c-4.706,0-8.931,2.438-8.931,8.986v14.288c0,0.653-0.53,1.188-1.189,1.188h-2.979
	c-0.651,0-1.186-0.534-1.186-1.188V41.275c0-0.655,0.534-1.188,1.186-1.188h2.027c0.655,0,1.014,0.357,1.19,1.188
	c0.177,0.775,0.177,2.082,1.07,2.082c1.431,0,2.443-3.271,8.809-3.271h1.188c0.657,0,1.192,0.534,1.192,1.188v2.916
	c0,0.654-0.535,1.191-1.192,1.191H356.842z"/>
<path fill="#2C314F" d="M366.486,56.689c-0.357,0-0.596,0.239-0.596,0.598c0,5.417,2.799,7.799,6.901,7.799
	c3.098,0,5.418-1.545,6.137-3.751c0.233-0.772,0.83-1.013,1.367-1.013h3.039c0.597,0,1.131,0.358,1.011,1.19
	c-0.715,5.179-5.356,8.927-11.551,8.927c-7.142,0-11.724-5.06-12.201-11.311c-0.176-2.379-0.176-5.95,0-8.33
	c0.478-6.25,5.06-11.311,12.201-11.311c7.203,0,11.91,4.465,11.91,11.906v4.107c0,0.653-0.54,1.188-1.191,1.188H366.486z
	 M366.007,51.334c0,0.359,0.241,0.599,0.602,0.599h12.377c0.358,0,0.592-0.239,0.592-0.599c0-4.107-3.033-6.488-6.725-6.488
	C368.747,44.846,366.007,47.705,366.007,51.334z"/>
<path fill="#2C314F" d="M421.826,58.599c0.119,0.353,0.478,0.353,0.598,0l8.215-29.406c0.176-0.714,0.594-1.015,1.247-1.015h6.069
	c0.659,0,1.193,0.539,1.193,1.193v39.283c0,0.656-0.54,1.194-1.193,1.194h-3.153c-0.655,0-1.189-0.538-1.189-1.194v-29.76
	c0-0.359-0.416-0.359-0.476-0.12l-8.509,30.058c-0.24,0.713-0.597,1.016-1.253,1.016h-2.499c-0.653,0-1.012-0.303-1.25-1.016
	l-8.514-30.058c-0.06-0.239-0.475-0.239-0.475,0.12v29.76c0,0.656-0.537,1.194-1.191,1.194h-3.157c-0.655,0-1.188-0.538-1.188-1.194
	V29.371c0-0.654,0.533-1.193,1.188-1.193h6.072c0.652,0,1.07,0.301,1.253,1.015L421.826,58.599z"/>
<path fill="#2C314F" d="M451.591,56.689c-0.355,0-0.594,0.24-0.594,0.596c0,5.418,2.797,7.801,6.904,7.801
	c3.096,0,5.417-1.548,6.131-3.753c0.239-0.771,0.835-1.01,1.37-1.01h3.033c0.6,0,1.134,0.355,1.016,1.187
	c-0.717,5.185-5.361,8.931-11.55,8.931c-7.144,0-11.727-5.06-12.203-11.311c-0.177-2.379-0.177-5.948,0-8.334
	c0.48-6.251,5.06-11.308,12.203-11.308c7.203,0,11.901,4.465,11.901,11.901v4.11c0,0.651-0.533,1.187-1.188,1.187h-17.023V56.689z
	 M451.11,51.334c0,0.357,0.239,0.596,0.597,0.596h12.383c0.357,0,0.595-0.238,0.595-0.596c0-4.11-3.039-6.49-6.729-6.49
	C453.851,44.844,451.11,47.703,451.11,51.334z"/>
<path fill="#2C314F" d="M480.878,56.689c-0.358,0-0.6,0.24-0.6,0.596c0,5.418,2.8,7.801,6.904,7.801
	c3.099,0,5.418-1.548,6.132-3.753c0.241-0.771,0.833-1.01,1.37-1.01h3.041c0.594,0,1.126,0.355,1.012,1.187
	c-0.718,5.185-5.36,8.931-11.549,8.931c-7.142,0-11.724-5.06-12.201-11.311c-0.182-2.379-0.182-5.948,0-8.334
	c0.478-6.251,5.06-11.308,12.201-11.308c7.201,0,11.904,4.465,11.904,11.901v4.11c0,0.651-0.536,1.187-1.19,1.187h-17.024V56.689z
	 M480.4,51.334c0,0.357,0.235,0.596,0.597,0.596h12.377c0.36,0,0.595-0.238,0.595-0.596c0-4.11-3.033-6.49-6.721-6.49
	C483.139,44.844,480.4,47.703,480.4,51.334z"/>
<path fill="#2C314F" d="M519.211,40.381c0.648,0,1.188,0.536,1.188,1.191v2.973c0,0.654-0.539,1.189-1.188,1.189h-6.846
	c-0.358,0-0.597,0.242-0.597,0.596v13.992c0,2.614,1.132,4.344,4.758,4.344h3.275c0.657,0,1.188,0.536,1.188,1.19v2.797
	c0,0.656-0.531,1.194-1.188,1.194h-3.275c-6.186,0-10.116-2.682-10.116-9.525V46.33c0-0.354-0.238-0.596-0.599-0.596h-4.166
	c-0.652,0-1.189-0.535-1.189-1.189v-2.973c0-0.655,0.537-1.191,1.189-1.191h4.171c0.357,0,0.597-0.242,0.597-0.601v-9.223
	c0-0.654,0.537-1.192,1.188-1.192h2.974c0.659,0,1.193,0.538,1.193,1.192v9.223c0,0.359,0.238,0.601,0.597,0.601H519.211z"/>
<path fill="#2C314F" d="M524.862,41.273c0-0.654,0.533-1.188,1.192-1.188h2.975c0.653,0,1.19,0.534,1.19,1.188V59.13
	c0,3.454,2.439,5.953,6.544,5.953c3.692,0,6.553-2.199,6.553-5.657V41.273c0-0.654,0.531-1.188,1.189-1.188h2.978
	c0.651,0,1.188,0.534,1.188,1.188v27.38c0,0.656-0.537,1.194-1.188,1.194h-2.621c-0.356,0-0.597-0.181-0.833-0.418
	c-0.355-0.417-0.896-0.956-1.486-0.956c-1.726,0-1.968,1.967-6.368,1.967c-6.729,0-11.312-4.765-11.312-11.311V41.273z"/>
<path fill="#2C314F" d="M579.45,50.796c0.177,2.38,0.177,5.955,0,8.334c-0.478,6.251-5.06,11.311-11.312,11.311
	c-2.741,0-4.344-1.49-5.532-1.49c-0.893,0-1.313,0.359-1.313,1.49v10.12c0,0.653-0.537,1.189-1.188,1.189h-2.976
	c-0.656,0-1.191-0.536-1.191-1.189V41.273c0-0.654,0.535-1.188,1.191-1.188h2.026c0.353,0,0.594,0.178,0.833,0.415
	c0.353,0.417,0.891,0.952,1.486,0.952c1.724,0,2.266-1.963,6.669-1.963C574.391,39.488,578.973,44.551,579.45,50.796z
	 M574.391,50.796c-0.241-3.158-2.743-5.952-6.845-5.952c-4.108,0-6.606,2.8-6.851,5.952c-0.171,2.441-0.171,5.894,0,8.334
	c0.244,3.159,2.742,5.953,6.851,5.953c4.102,0,6.604-2.8,6.845-5.953C574.566,56.689,574.566,53.237,574.391,50.796z"/>
</svg>
