<?xml version="1.0" encoding="utf-8"?>
<!-- Generator: Adobe Illustrator 16.0.0, SVG Export Plug-In . SVG Version: 6.00 Build 0)  -->
<!DOCTYPE svg PUBLIC "-//W3C//DTD SVG 1.1//EN" "http://www.w3.org/Graphics/SVG/1.1/DTD/svg11.dtd">
<svg version="1.1" id="Layer_1" xmlns="http://www.w3.org/2000/svg" xmlns:xlink="http://www.w3.org/1999/xlink" x="0px" y="0px"
	 width="100px" height="100px" viewBox="0 0 100 100" enable-background="new 0 0 100 100" xml:space="preserve">
<polygon fill="#FFFFFF" points="0,14 68.707,14 88.811,50.568 69.5,86.712 0,86.712 "/>
<g>
	
		<linearGradient id="SVGID_1_" gradientUnits="userSpaceOnUse" x1="203.5273" y1="-163.4248" x2="226.3335" y2="-163.4248" gradientTransform="matrix(1 0 0 -1 -156 -145)">
		<stop  offset="0" style="stop-color:#5D9AFF"/>
		<stop  offset="0.2587" style="stop-color:#5B96FB"/>
		<stop  offset="0.5302" style="stop-color:#538AEE"/>
		<stop  offset="0.8067" style="stop-color:#4776D9"/>
		<stop  offset="1" style="stop-color:#3C63C6"/>
	</linearGradient>
	<polygon opacity="0.5" fill="url(#SVGID_1_)" enable-background="new    " points="75.547,22.836 65.161,22.839 33.634,22.85 
		38.316,14.27 38.563,14.025 38.76,14 67.107,14 	"/>
	
		<linearGradient id="SVGID_2_" gradientUnits="userSpaceOnUse" x1="191.5977" y1="-163.5449" x2="206.4855" y2="-193.3207" gradientTransform="matrix(1 0 0 -1 -156 -145)">
		<stop  offset="0" style="stop-color:#1E2343"/>
		<stop  offset="0.0869" style="stop-color:#222746"/>
		<stop  offset="0.4049" style="stop-color:#2A2F4D"/>
		<stop  offset="1" style="stop-color:#2C314F"/>
	</linearGradient>
	<path fill="url(#SVGID_2_)" d="M33.256,21.754c0.289-0.528,2.573-4.708,3.66-6.703C37.314,14.321,38.27,14,38.814,14
		c-0.476,0-0.545,0.526-0.368,0.885c0.165,0.336,12.789,25.159,16.193,31.883c0.528,1.041,0.145,1.903-0.637,1.903s-6.392,0-7.357,0
		c-0.967,0-1.715-0.482-2.132-1.314C42.003,42.36,33.632,24.8,33.287,24.105C32.886,23.296,32.875,22.448,33.256,21.754z"/>
	
		<linearGradient id="SVGID_3_" gradientUnits="userSpaceOnUse" x1="166.0771" y1="-195.8438" x2="187.602" y2="-232.0287" gradientTransform="matrix(1 0 0 -1 -156 -145)">
		<stop  offset="0" style="stop-color:#3757A3"/>
		<stop  offset="0.0067" style="stop-color:#3859A9"/>
		<stop  offset="0.0308" style="stop-color:#3A5FB9"/>
		<stop  offset="0.0577" style="stop-color:#3C62C3"/>
		<stop  offset="0.0929" style="stop-color:#3C63C6"/>
		<stop  offset="0.1788" style="stop-color:#4A78D8"/>
		<stop  offset="0.2783" style="stop-color:#5588E7"/>
		<stop  offset="0.3894" style="stop-color:#5B92EF"/>
		<stop  offset="0.5347" style="stop-color:#5D95F2"/>
		<stop  offset="0.6413" style="stop-color:#5B91EF"/>
		<stop  offset="0.7357" style="stop-color:#5487E5"/>
		<stop  offset="0.8253" style="stop-color:#4875D6"/>
		<stop  offset="0.8884" style="stop-color:#3C63C6"/>
		<stop  offset="1" style="stop-color:#3757A3"/>
	</linearGradient>
	<path fill="url(#SVGID_3_)" d="M9.844,57.166l5.046-7.894l20.3,37.44c0,0-7.867,0-8.656,0c-0.685,0-1.231-0.592-1.626-1.274
		C24.512,84.755,9.844,57.166,9.844,57.166z"/>
	
		<linearGradient id="SVGID_4_" gradientUnits="userSpaceOnUse" x1="165.6709" y1="-198.9321" x2="186.3216" y2="-159.4072" gradientTransform="matrix(1 0 0 -1 -156 -145)">
		<stop  offset="0" style="stop-color:#5D9AFF"/>
		<stop  offset="0.4941" style="stop-color:#5D95F2"/>
		<stop  offset="0.6397" style="stop-color:#5A91EF"/>
		<stop  offset="0.7804" style="stop-color:#5386E4"/>
		<stop  offset="0.9187" style="stop-color:#4672D3"/>
		<stop  offset="1" style="stop-color:#3C63C6"/>
	</linearGradient>
	<path fill="url(#SVGID_4_)" d="M26.733,14.042C27.636,14.037,32.843,14,33.437,14c0.591,0,1.316,0.938,0.848,1.785
		c-3.358,6.081-17.229,29.688-19.37,33.501c-2.165,3.86-5.142,7.755-2.668,12.278c-0.551-0.957-1.366-2.609-2.402-4.398
		c-3.056-5.273-2.998-10.677-0.031-16.061c2.535-4.597,12.299-20.802,15.021-25.738C25.299,14.525,25.829,14.045,26.733,14.042z"/>
	
		<linearGradient id="SVGID_5_" gradientUnits="userSpaceOnUse" x1="188.4297" y1="-231.083" x2="205.7243" y2="-195.662" gradientTransform="matrix(1 0 0 -1 -156 -145)">
		<stop  offset="0" style="stop-color:#1E2343"/>
		<stop  offset="0.0458" style="stop-color:#232847"/>
		<stop  offset="0.1681" style="stop-color:#2A2F4D"/>
		<stop  offset="0.493" style="stop-color:#2C314F"/>
		<stop  offset="1" style="stop-color:#151A3A"/>
	</linearGradient>
	<path fill="url(#SVGID_5_)" d="M54.66,50.568c0,0-7.984,0-8.482,0c-0.702,0-1.24,0.568-1.74,1.562
		c-3.333,6.601-15.122,31.909-15.752,33.072c-0.384,0.704-0.989,1.51-1.939,1.51c1.12,0,8.703,0,9.577,0
		c0.872,0,1.362-0.461,1.765-1.213C38.495,84.746,54.66,50.568,54.66,50.568z"/>
	
		<linearGradient id="SVGID_6_" gradientUnits="userSpaceOnUse" x1="224.8076" y1="-160.895" x2="243.8937" y2="-192.44" gradientTransform="matrix(1 0 0 -1 -156 -145)">
		<stop  offset="0" style="stop-color:#5D9AFF"/>
		<stop  offset="0.388" style="stop-color:#5D95F2"/>
		<stop  offset="0.5114" style="stop-color:#598FEC"/>
		<stop  offset="0.6825" style="stop-color:#4D7DDD"/>
		<stop  offset="0.8589" style="stop-color:#3C63C6"/>
		<stop  offset="1" style="stop-color:#3757A3"/>
	</linearGradient>
	<path fill="url(#SVGID_6_)" d="M60.811,14c0.728,0,4.799,0,7.405,0c4.24,0,7.857,2.748,10.382,6.749
		c0.484,0.769,11.213,22.336,11.213,22.336l-4.606,8.349c0,0-14.597-27.992-14.948-28.583C68.866,20.488,65.363,14,60.811,14z"/>
	
		<linearGradient id="SVGID_7_" gradientUnits="userSpaceOnUse" x1="247.3008" y1="-190.4844" x2="224.0379" y2="-230.6653" gradientTransform="matrix(1 0 0 -1 -156 -145)">
		<stop  offset="0" style="stop-color:#5D9AFF"/>
		<stop  offset="0.3193" style="stop-color:#5D96F4"/>
		<stop  offset="0.3734" style="stop-color:#5D95F2"/>
		<stop  offset="0.5109" style="stop-color:#5A91EF"/>
		<stop  offset="0.6439" style="stop-color:#5386E4"/>
		<stop  offset="0.7746" style="stop-color:#4672D3"/>
		<stop  offset="0.8514" style="stop-color:#3C63C6"/>
		<stop  offset="1" style="stop-color:#3757A3"/>
	</linearGradient>
	<path fill="url(#SVGID_7_)" d="M86.991,37.62c2.353,4.447,3.813,7.069,4.413,8.153c2.254,4.095,2.004,7.966-0.268,12.413
		c-0.357,0.697-11.244,22.071-14.166,27.355c-0.388,0.698-0.935,1.095-1.453,1.095c-0.521,0-8.811,0-8.811,0
		s18.014-34.243,18.495-35.202C87.609,46.63,89.391,41.721,86.991,37.62z"/>
	
		<linearGradient id="SVGID_8_" gradientUnits="userSpaceOnUse" x1="207.2158" y1="-194.4268" x2="225.3731" y2="-230.5765" gradientTransform="matrix(1 0 0 -1 -156 -145)">
		<stop  offset="0" style="stop-color:#1E2343"/>
		<stop  offset="0.0429" style="stop-color:#222746"/>
		<stop  offset="0.1997" style="stop-color:#2A2F4D"/>
		<stop  offset="0.493" style="stop-color:#2C314F"/>
		<stop  offset="0.7854" style="stop-color:#292E4D"/>
		<stop  offset="0.9604" style="stop-color:#212646"/>
		<stop  offset="1" style="stop-color:#1E2343"/>
	</linearGradient>
	<path fill="url(#SVGID_8_)" d="M46.178,50.568c1.143,0,8.954,0,8.954,0c1.19,0,1.863,0.621,2.452,1.695
		c3.704,6.764,15.262,31.51,15.906,32.705c0.443,0.819,1.037,1.668,2.027,1.668c-0.975,0-6.275,0-9.095,0
		c-1.246,0-1.921-0.39-2.507-1.473c-0.497-0.919-13.831-29.256-15.6-32.571C47.871,51.758,47.471,50.568,46.178,50.568z"/>
</g>
</svg>
