<?xml version="1.0" encoding="UTF-8"?>
<!DOCTYPE svg PUBLIC "-//W3C//DTD SVG 1.1//EN" "http://www.w3.org/Graphics/SVG/1.1/DTD/svg11.dtd">
<svg version="1.1" xmlns="http://www.w3.org/2000/svg" xmlns:xlink="http://www.w3.org/1999/xlink" x="0" y="0" width="475" height="50" viewBox="0, 0, 475, 50">
  <g id="Background">
    <rect x="0" y="0" width="475" height="50" fill="#000000" fill-opacity="0"/>
  </g>
  <g id="Layer_1">
    <path d="M10.886,0.49 C17.198,0.49 22.316,5.612 22.316,11.929 C22.316,18.247 17.2,23.367 10.886,23.367 L5.715,23.367 C5.388,23.367 5.172,23.585 5.172,23.912 L5.172,37.529 C5.172,38.129 4.682,38.619 4.081,38.619 L1.089,38.619 C0.49,38.619 0,38.129 0,37.529 L0,1.58 C0,0.982 0.491,0.49 1.089,0.49 L10.886,0.49 z M5.713,5.665 C5.387,5.665 5.17,5.883 5.17,6.209 L5.17,17.648 C5.17,17.975 5.385,18.194 5.713,18.194 L10.885,18.194 C14.312,18.194 17.143,15.362 17.143,11.93 C17.143,8.498 14.312,5.666 10.885,5.666 L5.713,5.666 z" fill="#2C314F"/>
    <path d="M28.52,18.627 C28.52,19.555 27.757,19.555 27.268,19.555 L24.821,19.555 C24.003,19.555 23.731,19.119 23.731,18.465 C23.731,13.4 28.957,10.84 33.583,10.84 C39.732,10.84 43.542,13.509 43.542,19.555 L43.542,37.528 C43.542,38.127 43.051,38.618 42.454,38.618 L40.603,38.618 C40.279,38.618 40.06,38.509 39.842,38.236 C39.515,37.8 39.298,37.092 38.755,37.092 C37.773,37.092 36.414,39.161 32.387,39.161 C25.692,39.161 22.48,35.076 22.48,30.445 C22.48,25.925 25.745,22.167 31.46,22.167 L38.1,22.167 C38.427,22.167 38.646,21.949 38.646,21.622 L38.646,19.553 C38.646,16.611 36.633,15.195 33.584,15.195 C31.678,15.196 28.52,16.015 28.52,18.627 z M31.458,26.634 C28.683,26.634 27.377,28.105 27.377,30.392 C27.377,33.062 29.065,34.64 32.221,34.64 C37.227,34.64 39.078,32.625 39.078,28.921 L39.078,27.178 C39.078,26.851 38.862,26.633 38.534,26.633 L31.458,26.633 z" fill="#2C314F"/>
    <path d="M62.971,16.231 C58.672,16.231 54.808,18.465 54.808,24.457 L54.808,37.528 C54.808,38.127 54.318,38.618 53.721,38.618 L50.999,38.618 C50.399,38.618 49.912,38.127 49.912,37.528 L49.912,12.473 C49.912,11.874 50.4,11.384 50.999,11.384 L52.849,11.384 C53.449,11.384 53.774,11.711 53.937,12.473 C54.099,13.182 54.099,14.38 54.916,14.38 C56.222,14.38 57.148,11.384 62.971,11.384 L64.06,11.384 C64.659,11.384 65.147,11.874 65.147,12.473 L65.147,15.143 C65.147,15.742 64.657,16.231 64.06,16.231 L62.971,16.231 z" fill="#2C314F"/>
    <path d="M74.399,4.738 C74.399,5.23 74.018,5.612 73.53,5.612 L69.829,5.612 C69.341,5.612 68.958,5.23 68.958,4.738 L68.958,0.982 C68.958,0.546 69.341,0.109 69.829,0.109 L73.53,0.109 C74.018,0.109 74.399,0.545 74.399,0.982 L74.399,4.738 z M74.237,37.528 C74.237,38.127 73.746,38.618 73.148,38.618 L70.319,38.618 C69.72,38.618 69.232,38.127 69.232,37.528 L69.232,12.473 C69.232,11.874 69.722,11.384 70.319,11.384 L73.148,11.384 C73.747,11.384 74.237,11.874 74.237,12.473 L74.237,37.528 z" fill="#2C314F"/>
    <path d="M99.328,20.098 L96.606,20.098 C96.008,20.098 95.518,19.608 95.518,19.008 C95.518,17.103 94.049,15.467 90.457,15.467 C87.083,15.467 85.668,17.156 85.668,18.736 C85.668,20.859 87.79,21.568 90.457,22.058 C95.029,22.875 101.179,23.801 101.179,30.445 C101.179,36.275 96.119,39.161 90.457,39.161 C85.016,39.161 79.681,36.438 79.681,30.445 L79.681,29.737 C79.681,29.138 80.172,28.649 80.768,28.649 L83.49,28.649 C84.089,28.649 84.578,29.138 84.578,29.737 L84.578,30.445 C84.578,33.714 87.953,34.477 90.456,34.477 C93.395,34.477 96.279,33.716 96.279,30.445 C96.279,28.213 93.613,27.614 90.456,26.96 C85.993,26.034 80.604,24.89 80.604,18.736 C80.604,13.834 85.503,10.839 90.456,10.839 C95.517,10.839 100.415,13.834 100.415,19.008 C100.415,19.609 99.927,20.098 99.328,20.098 z" fill="#2C314F"/>
    <path d="M157.841,27.67 C157.841,33.716 152.781,38.998 145.595,38.998 C139.065,38.998 134.223,34.695 133.352,27.67 C132.806,23.257 132.806,15.686 133.352,11.329 C134.059,5.392 138.412,0 145.595,0 C152.127,0 157.841,4.25 157.841,11.329 L157.841,12.091 C157.841,12.69 157.349,13.18 156.753,13.18 L153.758,13.18 C153.16,13.18 152.672,12.69 152.672,12.091 L152.672,11.329 C152.672,8.06 149.895,5.227 145.596,5.174 C142.061,5.174 139.011,7.354 138.523,11.329 C137.976,15.795 137.976,23.202 138.523,27.67 C138.959,30.828 141.353,33.825 145.596,33.825 C149.244,33.825 152.672,31.644 152.672,27.67 L152.672,26.905 C152.672,26.308 153.162,25.817 153.758,25.817 L156.753,25.817 C157.351,25.817 157.841,26.308 157.841,26.905 L157.841,27.67 z" fill="#2C314F"/>
    <path d="M168.453,37.473 C168.453,38.071 167.963,38.56 167.365,38.56 L164.644,38.56 C164.045,38.56 163.558,38.07 163.558,37.473 L163.558,1.143 C163.558,0.545 164.047,0.054 164.644,0.054 L167.365,0.054 C167.965,0.054 168.453,0.545 168.453,1.143 L168.453,37.473 z" fill="#2C314F"/>
    <path d="M174.44,21.133 C174.876,15.414 179.065,10.785 185.597,10.785 C192.127,10.785 196.319,15.414 196.753,21.133 C196.916,23.312 196.916,26.58 196.753,28.758 C196.317,34.478 192.127,39.107 185.597,39.107 C179.065,39.107 174.876,34.478 174.44,28.758 C174.278,26.58 174.278,23.312 174.44,21.133 z M179.338,28.758 C179.557,31.644 181.842,34.205 185.597,34.205 C189.352,34.205 191.637,31.644 191.855,28.758 C192.018,26.525 192.018,23.367 191.855,21.133 C191.637,18.247 189.352,15.686 185.597,15.686 C181.842,15.686 179.557,18.247 179.338,21.133 C179.175,23.367 179.175,26.525 179.338,28.758 z" fill="#2C314F"/>
    <path d="M203.94,12.418 C203.94,11.818 204.43,11.329 205.028,11.329 L207.911,11.329 C208.51,11.329 209,11.818 209,12.418 L209,40.196 C209,45.479 204.808,50 199.039,50 L196.21,50 C195.611,50 195.123,49.51 195.123,48.912 L195.123,46.189 C195.123,45.588 195.613,45.099 196.21,45.099 L199.039,45.099 C201.761,45.099 203.939,43.138 203.939,40.198 L203.939,12.418 z M209.218,4.684 C209.218,5.174 208.837,5.556 208.348,5.556 L204.648,5.556 C204.157,5.556 203.777,5.174 203.777,4.684 L203.777,0.926 C203.777,0.49 204.157,0.054 204.648,0.054 L208.348,0.054 C208.837,0.054 209.218,0.49 209.218,0.926 L209.218,4.684 z" fill="#2C314F"/>
    <path d="M215.749,12.418 C215.749,11.818 216.241,11.329 216.838,11.329 L219.559,11.329 C220.157,11.329 220.647,11.818 220.647,12.418 L220.647,28.756 C220.647,31.916 222.879,34.203 226.633,34.203 C230.008,34.203 232.62,32.189 232.62,29.029 L232.62,12.418 C232.62,11.818 233.111,11.329 233.708,11.329 L236.429,11.329 C237.028,11.329 237.518,11.818 237.518,12.418 L237.518,37.473 C237.518,38.071 237.026,38.56 236.429,38.56 L234.035,38.56 C233.708,38.56 233.488,38.398 233.273,38.182 C232.946,37.8 232.456,37.311 231.91,37.311 C230.333,37.311 230.115,39.106 226.088,39.106 C219.938,39.106 215.746,34.749 215.746,28.758 L215.746,12.418 z" fill="#2C314F"/>
    <path d="M257.114,16.175 C252.815,16.175 248.951,18.409 248.951,24.401 L248.951,37.472 C248.951,38.07 248.461,38.559 247.862,38.559 L245.14,38.559 C244.542,38.559 244.053,38.069 244.053,37.472 L244.053,12.418 C244.053,11.818 244.543,11.329 245.14,11.329 L246.99,11.329 C247.59,11.329 247.917,11.655 248.079,12.418 C248.243,13.126 248.243,14.324 249.06,14.324 C250.366,14.324 251.291,11.329 257.114,11.329 L258.203,11.329 C258.8,11.329 259.289,11.818 259.289,12.418 L259.289,15.087 C259.289,15.686 258.799,16.175 258.203,16.175 L257.114,16.175 z" fill="#2C314F"/>
    <path d="M265.932,26.525 C265.604,26.525 265.386,26.742 265.386,27.07 C265.386,32.027 267.945,34.205 271.699,34.205 C274.529,34.205 276.652,32.789 277.304,30.774 C277.521,30.064 278.067,29.847 278.556,29.847 L281.331,29.847 C281.875,29.847 282.364,30.176 282.258,30.937 C281.603,35.676 277.358,39.107 271.699,39.107 C265.167,39.107 260.976,34.478 260.542,28.758 C260.379,26.58 260.379,23.312 260.542,21.133 C260.978,15.414 265.167,10.785 271.699,10.785 C278.285,10.785 282.583,14.869 282.583,21.677 L282.583,25.436 C282.583,26.034 282.093,26.525 281.496,26.525 L265.932,26.525 z M265.496,21.624 C265.496,21.949 265.713,22.168 266.041,22.168 L277.361,22.168 C277.688,22.168 277.905,21.95 277.905,21.624 C277.905,17.864 275.13,15.686 271.755,15.686 C267.999,15.686 265.496,18.3 265.496,21.624 z" fill="#2C314F"/>
    <path d="M330.758,28.267 C330.867,28.594 331.194,28.594 331.301,28.267 L338.812,1.36 C338.975,0.706 339.358,0.434 339.955,0.434 L345.508,0.434 C346.105,0.434 346.595,0.924 346.595,1.523 L346.595,37.47 C346.595,38.071 346.104,38.56 345.508,38.56 L342.623,38.56 C342.024,38.56 341.535,38.069 341.535,37.47 L341.535,10.236 C341.535,9.911 341.156,9.911 341.1,10.129 L333.318,37.633 C333.103,38.287 332.774,38.56 332.176,38.56 L329.888,38.56 C329.291,38.56 328.964,38.287 328.748,37.633 L320.965,10.129 C320.91,9.911 320.529,9.911 320.529,10.236 L320.529,37.47 C320.529,38.071 320.039,38.56 319.439,38.56 L316.557,38.56 C315.958,38.56 315.468,38.069 315.468,37.47 L315.468,1.523 C315.468,0.923 315.959,0.434 316.557,0.434 L322.109,0.434 C322.708,0.434 323.088,0.706 323.251,1.36 L330.758,28.267 z" fill="#2C314F"/>
    <path d="M357.972,26.523 C357.645,26.523 357.426,26.743 357.426,27.07 C357.426,32.026 359.985,34.204 363.739,34.204 C366.569,34.204 368.692,32.787 369.345,30.773 C369.562,30.063 370.109,29.845 370.596,29.845 L373.371,29.845 C373.917,29.845 374.405,30.174 374.296,30.936 C373.644,35.675 369.398,39.106 363.739,39.106 C357.208,39.106 353.018,34.478 352.584,28.759 C352.419,26.578 352.419,23.312 352.584,21.131 C353.019,15.413 357.208,10.784 363.739,10.784 C370.326,10.784 374.624,14.869 374.624,21.677 L374.624,25.435 C374.624,26.034 374.133,26.523 373.537,26.523 L357.972,26.523 z M357.535,21.623 C357.535,21.947 357.753,22.168 358.081,22.168 L369.4,22.168 C369.726,22.168 369.944,21.948 369.944,21.623 C369.944,17.865 367.169,15.684 363.795,15.684 C360.039,15.684 357.535,18.299 357.535,21.623 z" fill="#2C314F"/>
    <path d="M384.747,26.523 C384.42,26.523 384.201,26.743 384.201,27.07 C384.201,32.026 386.76,34.204 390.516,34.204 C393.344,34.204 395.469,32.787 396.123,30.773 C396.338,30.063 396.884,29.845 397.373,29.845 L400.15,29.845 C400.695,29.845 401.183,30.174 401.074,30.936 C400.421,35.675 396.176,39.106 390.518,39.106 C383.986,39.106 379.796,34.478 379.36,28.759 C379.196,26.578 379.196,23.312 379.36,21.131 C379.796,15.413 383.986,10.784 390.518,10.784 C397.103,10.784 401.402,14.869 401.402,21.677 L401.402,25.435 C401.402,26.034 400.911,26.523 400.314,26.523 L384.747,26.523 z M384.313,21.623 C384.313,21.947 384.531,22.168 384.857,22.168 L396.178,22.168 C396.503,22.168 396.722,21.948 396.722,21.623 C396.722,17.865 393.946,15.684 390.572,15.684 C386.819,15.684 384.313,18.299 384.313,21.623 z" fill="#2C314F"/>
    <path d="M419.8,11.6 C420.399,11.6 420.889,12.09 420.889,12.689 L420.889,15.412 C420.889,16.011 420.397,16.5 419.8,16.5 L413.538,16.5 C413.214,16.5 412.995,16.718 412.995,17.046 L412.995,29.844 C412.995,32.243 414.029,33.823 417.349,33.823 L420.341,33.823 C420.942,33.823 421.429,34.311 421.429,34.911 L421.429,37.47 C421.429,38.071 420.94,38.56 420.341,38.56 L417.349,38.56 C411.687,38.56 408.096,36.108 408.096,29.844 L408.096,17.046 C408.096,16.72 407.878,16.5 407.551,16.5 L403.742,16.5 C403.143,16.5 402.653,16.01 402.653,15.412 L402.653,12.689 C402.653,12.089 403.144,11.6 403.742,11.6 L407.551,11.6 C407.876,11.6 408.096,11.382 408.096,11.055 L408.096,2.612 C408.096,2.012 408.588,1.523 409.184,1.523 L411.906,1.523 C412.505,1.523 412.994,2.014 412.994,2.612 L412.994,11.055 C412.994,11.38 413.211,11.6 413.537,11.6 L419.8,11.6 z" fill="#2C314F"/>
    <path d="M424.97,12.418 C424.97,11.816 425.461,11.327 426.057,11.327 L428.778,11.327 C429.378,11.327 429.865,11.818 429.865,12.418 L429.865,28.757 C429.865,31.916 432.099,34.202 435.852,34.202 C439.226,34.202 441.84,32.188 441.84,29.028 L441.84,12.417 C441.84,11.815 442.33,11.326 442.928,11.326 L445.648,11.326 C446.247,11.326 446.736,11.816 446.736,12.417 L446.736,37.47 C446.736,38.071 446.246,38.56 445.648,38.56 L443.254,38.56 C442.928,38.56 442.709,38.396 442.492,38.178 C442.164,37.798 441.674,37.308 441.131,37.308 C439.551,37.308 439.333,39.104 435.306,39.104 C429.156,39.104 424.967,34.747 424.967,28.757 L424.967,12.418 z" fill="#2C314F"/>
    <path d="M474.878,21.131 C475.041,23.312 475.041,26.578 474.878,28.759 C474.443,34.478 470.252,39.106 464.536,39.106 C462.033,39.106 460.566,37.742 459.477,37.742 C458.659,37.742 458.279,38.071 458.279,39.106 L458.279,48.366 C458.279,48.964 457.788,49.454 457.191,49.454 L454.47,49.454 C453.871,49.454 453.383,48.963 453.383,48.366 L453.383,12.42 C453.383,11.818 453.873,11.329 454.47,11.329 L456.321,11.329 C456.645,11.329 456.865,11.492 457.082,11.711 C457.41,12.09 457.898,12.582 458.444,12.582 C460.021,12.582 460.51,10.784 464.537,10.784 C470.25,10.782 474.443,15.413 474.878,21.131 z M470.25,21.131 C470.034,18.245 467.747,15.686 463.994,15.686 C460.238,15.686 457.951,18.245 457.735,21.131 C457.572,23.366 457.572,26.523 457.735,28.759 C457.951,31.645 460.238,34.204 463.994,34.204 C467.747,34.204 470.034,31.645 470.25,28.759 C470.414,26.523 470.414,23.365 470.25,21.131 z" fill="#2C314F"/>
  </g>
</svg>
