<?xml version="1.0" encoding="utf-8"?>
<!-- Generator: Adobe Illustrator 16.0.0, SVG Export Plug-In . SVG Version: 6.00 Build 0)  -->
<!DOCTYPE svg PUBLIC "-//W3C//DTD SVG 1.1//EN" "http://www.w3.org/Graphics/SVG/1.1/DTD/svg11.dtd">
<svg version="1.1" id="Layer_1" xmlns="http://www.w3.org/2000/svg" xmlns:xlink="http://www.w3.org/1999/xlink" x="0px" y="0px"
	 width="600px" height="100px" viewBox="0 0 600 100" enable-background="new 0 0 600 100" xml:space="preserve">
<path fill="#63AFEF" d="M27.544,9c0.854,0,1.604,0.732,1.604,1.587c0,0.401-0.14,0.785-0.401,1.134
	c-2.93,3.436-4.395,8.022-4.395,13.794c0,5.755,1.465,10.342,4.395,13.777c0.262,0.366,0.401,0.75,0.401,1.151
	c0,0.854-0.75,1.569-1.604,1.569c-0.506,0-0.924-0.209-1.256-0.645c-3.436-3.994-5.145-9.278-5.145-15.853
	c0-6.575,1.709-11.876,5.145-15.87C26.672,9.209,27.09,9,27.544,9z"/>
<path fill="#4B6DD7" d="M41.112,34.113c-1.465-1.64-2.197-3.907-2.197-6.819c0-2.686,0.732-4.901,2.18-6.645
	c1.448-1.762,3.488-2.634,6.104-2.634c1.046,0,2.041,0.209,2.982,0.628c0.941,0.401,1.622,0.942,2.023,1.622v-7.29
	c0-0.994,0.645-1.761,1.604-1.761c0.959,0,1.604,0.768,1.604,1.761v21.503c0,0.994-0.646,1.744-1.604,1.744
	c-0.82,0-1.552-0.75-1.604-1.744c-0.454,0.68-1.151,1.203-2.076,1.569c-0.924,0.349-1.901,0.523-2.93,0.523
	C44.6,36.572,42.577,35.752,41.112,34.113z M43.431,32.003c0.872,1.151,2.11,1.727,3.732,1.727c1.622,0,2.877-0.576,3.732-1.727
	c0.872-1.168,1.308-2.738,1.308-4.708c0-2.006-0.436-3.575-1.308-4.709c-0.854-1.151-2.11-1.727-3.732-1.727
	c-3.227,0-5.023,2.441-5.023,6.436C42.141,29.265,42.577,30.834,43.431,32.003z"/>
<path fill="#4B6DD7" d="M76.131,20.528c1.622,1.674,2.424,3.767,2.424,6.261c0,1.133-0.698,1.796-1.796,1.796H64.411
	c0.192,1.43,0.768,2.65,1.761,3.645c0.994,0.994,2.25,1.5,3.767,1.5c2.319,0,4.099-0.732,5.354-2.18
	c0.366-0.401,0.785-0.61,1.256-0.61c0.471,0,0.854,0.174,1.133,0.523c0.576,0.68,0.628,1.604-0.14,2.372
	c-1.901,1.831-4.447,2.755-7.604,2.738c-2.703,0-4.866-0.872-6.47-2.634c-1.587-1.761-2.389-3.976-2.389-6.644
	c0-2.668,0.802-4.866,2.389-6.627c1.604-1.761,3.767-2.651,6.47-2.651C72.468,18.016,74.526,18.854,76.131,20.528z M75.224,25.725
	c-0.366-1.43-0.977-2.599-1.849-3.505c-0.854-0.907-2.005-1.36-3.436-1.36c-1.447,0-2.686,0.471-3.68,1.413
	c-0.994,0.942-1.622,2.093-1.849,3.453H75.224z"/>
<path fill="#4B6DD7" d="M89.036,21.225h-4.639c-1.116,0-1.674-0.471-1.674-1.43c0-0.959,0.558-1.43,1.674-1.43h4.639
	c0-2.599,0.558-4.482,1.657-5.686c1.116-1.203,2.511-1.813,4.168-1.813c1.186,0,2.127,0.087,2.825,0.279
	c0.715,0.174,1.447,0.523,2.215,1.046c0.575,0.471,0.854,0.942,0.854,1.395c0,0.994-0.68,1.604-1.5,1.604
	c-0.366,0-0.663-0.122-0.924-0.366c-0.541-0.453-1.063-0.75-1.535-0.889c-0.471-0.14-1.081-0.209-1.796-0.209
	c-0.907,0-1.587,0.454-2.058,1.343c-0.471,0.89-0.698,1.988-0.698,3.296h6.47c1.116,0,1.674,0.471,1.674,1.43
	c0,0.959-0.558,1.43-1.674,1.43h-6.47v13.219c0,1.046-0.61,1.779-1.604,1.779c-0.959,0-1.604-0.785-1.604-1.779V21.225z"/>
<path fill="#FFFFFF" d="M133.978,36.049c-0.924-0.366-1.622-0.889-2.075-1.569c-0.052,0.994-0.785,1.744-1.604,1.744
	c-0.959,0-1.604-0.75-1.604-1.744V12.976c0-0.994,0.646-1.761,1.604-1.761c0.959,0,1.604,0.768,1.604,1.761v7.29
	c0.401-0.663,1.082-1.204,2.023-1.622c0.942-0.418,1.936-0.628,2.982-0.628c2.616,0,4.656,0.872,6.104,2.634
	c1.447,1.744,2.18,3.958,2.18,6.645c0,2.912-0.732,5.179-2.197,6.819c-1.465,1.639-3.488,2.459-6.086,2.459
	C135.879,36.572,134.902,36.397,133.978,36.049z M140.675,22.585c-0.872-1.151-2.11-1.727-3.732-1.727
	c-1.622,0-2.86,0.576-3.732,1.727c-0.872,1.134-1.308,2.703-1.308,4.709c0,1.97,0.436,3.54,1.308,4.708
	c0.872,1.151,2.11,1.727,3.732,1.727c1.622,0,2.86-0.576,3.732-1.727c0.872-1.168,1.308-2.738,1.308-4.708
	C141.982,25.289,141.546,23.719,140.675,22.585z"/>
<path fill="#FFFFFF" d="M157.678,33.363V14.075h-3.994c-0.994,0-1.762-0.523-1.762-1.43s0.768-1.43,1.762-1.43h5.598
	c0.907,0,1.604,0.646,1.604,1.43v20.718h5.179c0.994,0,1.762,0.523,1.762,1.43c0,0.907-0.768,1.43-1.762,1.43h-13.568
	c-0.994,0-1.744-0.523-1.744-1.43c0-0.907,0.75-1.43,1.744-1.43H157.678z"/>
<path fill="#FFFFFF" d="M180.315,36.572c-2.546,0-4.604-0.872-6.191-2.616c-1.569-1.761-2.354-3.976-2.354-6.662
	c0-2.686,0.785-4.901,2.354-6.645c1.587-1.762,3.645-2.634,6.191-2.634c2.546,0,4.604,0.872,6.173,2.634
	c1.57,1.744,2.354,3.958,2.354,6.645c0,2.686-0.785,4.9-2.354,6.662C184.919,35.7,182.861,36.572,180.315,36.572z M174.996,27.294
	c0,1.97,0.488,3.54,1.465,4.708c0.977,1.151,2.267,1.727,3.854,1.727c1.587,0,2.877-0.576,3.854-1.727
	c0.977-1.168,1.465-2.738,1.465-4.708c0-1.971-0.488-3.541-1.465-4.691c-0.977-1.168-2.267-1.744-3.854-1.744
	c-1.587,0-2.878,0.576-3.854,1.744C175.484,23.754,174.996,25.324,174.996,27.294z"/>
<path fill="#FFFFFF" d="M195.679,33.834c-1.535-1.831-2.302-4.011-2.302-6.54c0-2.546,0.75-4.727,2.267-6.54
	c1.518-1.831,3.558-2.738,6.122-2.738c2.145,0,3.819,0.646,5.04,1.918c0.157-1.046,0.663-1.569,1.5-1.569
	c1.046,0,1.709,0.732,1.709,1.779v14.004c0,2.913-0.663,5.232-2.006,6.958c-1.325,1.744-3.401,2.616-6.243,2.616
	c-1.936,0-3.505-0.331-4.744-1.011c-1.221-0.663-2.285-1.727-3.191-3.209c-0.209-0.366-0.314-0.715-0.314-1.064
	c0-0.994,0.82-1.744,1.813-1.744c0.68,0,1.204,0.331,1.535,0.994c0.593,1.116,1.221,1.918,1.901,2.424c0.68,0.506,1.692,0.75,3,0.75
	c1.709,0,2.982-0.558,3.802-1.674c0.819-1.116,1.238-2.633,1.238-4.534c-1.151,1.273-2.825,1.918-5.04,1.918
	C199.237,36.572,197.214,35.665,195.679,33.834z M205.532,31.951c0.854-1.204,1.273-2.755,1.273-4.656
	c0-1.901-0.419-3.453-1.273-4.639c-0.854-1.203-2.11-1.796-3.767-1.796c-1.622,0-2.878,0.61-3.802,1.831
	c-0.924,1.204-1.378,2.738-1.378,4.604c0,1.866,0.454,3.4,1.378,4.621c0.924,1.204,2.18,1.814,3.802,1.814
	C203.422,33.729,204.678,33.136,205.532,31.951z"/>
<path fill="#7152B9" d="M136.785,61.732c0,2.039-0.209,3.539-0.646,4.463c-0.436,0.926-1.291,1.709-2.598,2.355
	c1.308,0.645,2.18,1.43,2.598,2.354c0.436,0.924,0.646,2.424,0.646,4.465v6.262h4.36c1.099,0,1.639,0.471,1.639,1.43
	s-0.541,1.43-1.639,1.43h-5.755c-1.134,0-1.814-0.785-1.814-1.691v-8.145c0-3.053-1.395-4.674-3.54-4.674
	c-0.907,0-1.43-0.576-1.43-1.43c0-0.855,0.523-1.43,1.43-1.43c2.145,0,3.54-1.623,3.54-4.674v-8.145c0-0.908,0.68-1.674,1.814-1.674
	h5.755c1.099,0,1.639,0.471,1.639,1.43s-0.541,1.43-1.639,1.43h-4.36V61.732z"/>
<path fill="#A6BAFF" d="M156.021,63.457c0-0.836,0.279-1.533,0.837-2.074s1.238-0.82,2.058-0.82c0.819,0,1.5,0.279,2.058,0.82
	s0.837,1.238,0.837,2.074c0,0.82-0.279,1.518-0.837,2.059s-1.238,0.82-2.058,0.82c-0.82,0-1.5-0.279-2.058-0.82
	S156.021,64.277,156.021,63.457z M156.021,75.875c0-0.838,0.279-1.535,0.837-2.076c0.558-0.539,1.238-0.818,2.058-0.818
	c0.819,0,1.5,0.279,2.058,0.818c0.558,0.541,0.837,1.238,0.837,2.076s-0.279,1.535-0.837,2.076
	c-0.558,0.539-1.238,0.818-2.058,0.818c-0.82,0-1.5-0.279-2.058-0.818C156.299,77.41,156.021,76.713,156.021,75.875z"/>
<path fill="#A6BAFF" d="M173.687,74.881c0-0.906,0.611-1.674,1.57-1.674c0.593,0,1.081,0.262,1.465,0.785
	c1.116,1.516,2.703,2.283,4.744,2.283c2.947,0,4.43-0.941,4.43-2.824c0-0.768-0.349-1.273-1.448-1.605
	c-0.541-0.174-0.994-0.295-1.377-0.365c-0.366-0.07-0.994-0.156-1.849-0.279c-0.994-0.139-1.849-0.297-2.529-0.471
	c-0.68-0.191-1.378-0.453-2.127-0.82c-1.465-0.715-2.232-2.006-2.232-3.818c0-1.797,0.68-3.156,2.041-4.1
	c1.377-0.959,3.017-1.43,4.918-1.43c2.947,0,5.127,0.994,6.54,2.965c0.227,0.314,0.349,0.664,0.349,1.029
	c0,0.959-0.715,1.604-1.709,1.604c-0.523,0-0.941-0.244-1.255-0.748c-0.82-1.344-2.127-2.006-3.924-2.006
	c-2.372,0-3.75,0.924-3.75,2.545c0,1.465,1.657,2.076,4.604,2.494c0.889,0.123,1.569,0.227,2.058,0.314s1.099,0.244,1.814,0.488
	c0.732,0.227,1.291,0.506,1.657,0.82c0.75,0.609,1.447,1.76,1.447,3.242c0,1.814-0.732,3.244-2.18,4.273
	c-1.448,1.029-3.296,1.535-5.546,1.535c-3.157,0-5.581-1.029-7.237-3.07C173.844,75.666,173.687,75.281,173.687,74.881z"/>
<path fill="#A6BAFF" d="M210.92,77.025c0,0.994-0.646,1.744-1.604,1.744c-0.959,0-1.604-0.75-1.604-1.744v-0.715
	c-0.262,0.768-0.89,1.43-1.883,1.988c-0.994,0.541-2.041,0.82-3.157,0.82c-4.5,0-6.749-2.303-6.749-6.889v-9.574
	c0-0.994,0.645-1.744,1.604-1.744c0.959,0,1.604,0.75,1.604,1.744v8.859c0,1.691,0.261,2.895,0.785,3.645
	c0.541,0.75,1.447,1.115,2.755,1.115c1.569,0,2.808-0.627,3.697-1.9c0.889-1.273,1.343-2.947,1.343-5.006v-6.713
	c0-0.994,0.645-1.744,1.604-1.744c0.959,0,1.604,0.75,1.604,1.744V77.025z"/>
<path fill="#A6BAFF" d="M223.198,78.596c-0.924-0.367-1.622-0.889-2.075-1.57c-0.052,0.994-0.785,1.744-1.604,1.744
	c-0.959,0-1.604-0.75-1.604-1.744V55.523c0-0.994,0.645-1.762,1.604-1.762c0.959,0,1.604,0.768,1.604,1.762v7.289
	c0.401-0.662,1.081-1.203,2.023-1.621c0.942-0.42,1.936-0.629,2.982-0.629c2.616,0,4.657,0.873,6.104,2.635
	c1.448,1.742,2.18,3.957,2.18,6.645c0,2.912-0.732,5.178-2.198,6.818c-1.465,1.639-3.488,2.459-6.086,2.459
	C225.099,79.119,224.122,78.945,223.198,78.596z M229.895,65.133c-0.872-1.152-2.11-1.727-3.732-1.727
	c-1.622,0-2.86,0.574-3.732,1.727c-0.872,1.133-1.308,2.703-1.308,4.709c0,1.971,0.436,3.539,1.308,4.707
	c0.872,1.152,2.11,1.727,3.732,1.727c1.622,0,2.86-0.574,3.732-1.727c0.872-1.168,1.308-2.736,1.308-4.707
	C231.203,67.836,230.767,66.266,229.895,65.133z"/>
<path fill="#A6BAFF" d="M244.334,63.771c-0.994,0-1.761-0.523-1.761-1.43s0.767-1.43,1.761-1.43h5.598
	c0.907,0,1.604,0.609,1.604,1.43v18.207c0,1.953-0.523,3.4-1.587,4.324c-1.064,0.926-2.459,1.396-4.221,1.396
	c-1.97,0-3.662-0.488-5.04-1.465c-0.68-0.471-1.029-0.994-1.046-1.535c0-0.855,0.627-1.535,1.465-1.535
	c0.331,0,0.663,0.123,0.977,0.35l1.011,0.732c0.436,0.297,1.343,0.592,2.477,0.592c1.831,0,2.755-1.045,2.755-3.139V63.771H244.334z
	 M252.078,56.029c0,0.609-0.227,1.15-0.663,1.586s-0.977,0.646-1.587,0.646s-1.151-0.211-1.587-0.646s-0.663-0.977-0.663-1.586
	c0-0.629,0.227-1.17,0.663-1.605s0.977-0.662,1.587-0.662s1.151,0.227,1.587,0.662S252.078,55.4,252.078,56.029z"/>
<path fill="#A6BAFF" d="M276.005,63.074c1.622,1.674,2.424,3.768,2.424,6.262c0,1.133-0.698,1.795-1.796,1.795h-12.347
	c0.192,1.43,0.767,2.652,1.761,3.645c0.994,0.994,2.25,1.5,3.767,1.5c2.319,0,4.098-0.732,5.354-2.18
	c0.366-0.4,0.785-0.609,1.255-0.609c0.471,0,0.854,0.174,1.134,0.523c0.575,0.68,0.627,1.604-0.14,2.371
	c-1.901,1.83-4.447,2.756-7.604,2.738c-2.703,0-4.866-0.873-6.47-2.633c-1.587-1.762-2.389-3.977-2.389-6.645
	c0-2.67,0.802-4.867,2.389-6.629c1.604-1.76,3.767-2.65,6.47-2.65C272.343,60.562,274.4,61.4,276.005,63.074z M275.098,68.271
	c-0.366-1.43-0.977-2.6-1.849-3.506c-0.854-0.906-2.006-1.359-3.436-1.359c-1.448,0-2.686,0.471-3.68,1.412
	c-0.994,0.941-1.622,2.092-1.849,3.453H275.098z"/>
<path fill="#A6BAFF" d="M295.851,61.26c0.994,0.455,1.883,1.117,2.704,1.971c0.471,0.473,0.715,0.977,0.715,1.5
	c0,0.959-0.576,1.641-1.535,1.641c-0.471,0-0.924-0.262-1.325-0.785c-0.61-0.855-1.238-1.43-1.883-1.727
	c-0.628-0.297-1.482-0.453-2.581-0.453c-1.692,0-3.052,0.627-4.081,1.865s-1.552,2.756-1.552,4.57c0,1.812,0.523,3.348,1.552,4.586
	s2.389,1.848,4.081,1.848c1.099,0,1.953-0.156,2.581-0.453c0.645-0.297,1.273-0.871,1.883-1.727
	c0.401-0.523,0.854-0.785,1.325-0.785s0.854,0.158,1.116,0.473c0.279,0.295,0.419,0.697,0.419,1.168c0,0.523-0.244,1.029-0.715,1.5
	c-0.82,0.854-1.709,1.516-2.704,1.988c-0.994,0.453-2.285,0.68-3.906,0.68c-2.703,0-4.866-0.873-6.47-2.633
	c-1.587-1.762-2.389-3.977-2.389-6.645c0-2.67,0.802-4.867,2.389-6.629c1.604-1.76,3.767-2.65,6.47-2.65
	C293.566,60.562,294.857,60.789,295.851,61.26z"/>
<path fill="#A6BAFF" d="M312.646,53.412c0.994,0,1.604,0.732,1.604,1.779v5.721h6.47c1.116,0,1.675,0.471,1.675,1.43
	s-0.559,1.43-1.675,1.43h-6.47v9.348c0,2.18,1.151,3.156,2.755,3.156c1.134,0,2.041-0.295,2.477-0.592l1.029-0.732
	c0.313-0.227,0.628-0.35,0.959-0.367c0.907,0,1.465,0.697,1.465,1.535c0,0.541-0.349,1.064-1.028,1.553
	c-1.378,0.977-3.069,1.465-5.04,1.447c-1.762,0-3.175-0.453-4.238-1.379c-1.063-0.924-1.587-2.371-1.587-4.324v-9.645h-4.639
	c-1.116,0-1.675-0.471-1.675-1.43s0.559-1.43,1.675-1.43h4.639v-5.721C311.041,54.197,311.687,53.412,312.646,53.412z"/>
<path fill="#63DDCE" d="M356.628,63.598c0,0.838-0.279,1.535-0.837,2.092c-0.558,0.559-1.238,0.838-2.058,0.838
	c-0.82,0-1.5-0.279-2.075-0.838c-0.576-0.574-0.854-1.271-0.854-2.092v-0.262c0-1.762,0.436-3.33,1.308-4.709
	c0.872-1.377,2.04-2.371,3.522-2.965c0.157-0.07,0.332-0.104,0.523-0.104c0.628,0,1.081,0.453,1.081,0.959
	c0,0.471-0.296,0.818-0.89,1.029c-1.29,0.453-1.936,1.271-1.936,2.441c0,0.506,0.244,0.854,0.715,1.062
	C356.122,61.574,356.628,62.43,356.628,63.598z M363.778,63.598c0,0.838-0.279,1.535-0.854,2.092
	c-0.558,0.559-1.238,0.838-2.058,0.838c-0.803,0-1.482-0.279-2.059-0.838c-0.575-0.574-0.854-1.271-0.854-2.092v-0.262
	c0-1.762,0.437-3.33,1.291-4.709c0.872-1.377,2.04-2.371,3.522-2.965c0.157-0.07,0.349-0.104,0.541-0.104
	c0.628,0,1.063,0.453,1.063,0.959c0,0.471-0.296,0.818-0.89,1.029c-1.29,0.453-1.936,1.271-1.918,2.441
	c-0.018,0.506,0.227,0.854,0.697,1.062C363.255,61.574,363.761,62.43,363.778,63.598z"/>
<path fill="#63DDCE" d="M384.375,61.26c0.993,0.455,1.883,1.117,2.703,1.971c0.471,0.473,0.715,0.977,0.715,1.5
	c0,0.959-0.576,1.641-1.535,1.641c-0.471,0-0.924-0.262-1.325-0.785c-0.61-0.855-1.238-1.43-1.884-1.727
	c-0.628-0.297-1.482-0.453-2.581-0.453c-1.691,0-3.052,0.627-4.08,1.865c-1.029,1.238-1.553,2.756-1.553,4.57
	c0,1.812,0.523,3.348,1.553,4.586c1.028,1.238,2.389,1.848,4.08,1.848c1.099,0,1.953-0.156,2.581-0.453
	c0.646-0.297,1.273-0.871,1.884-1.727c0.401-0.523,0.854-0.785,1.325-0.785s0.854,0.158,1.116,0.473
	c0.279,0.295,0.419,0.697,0.419,1.168c0,0.523-0.244,1.029-0.715,1.5c-0.82,0.854-1.71,1.516-2.703,1.988
	c-0.994,0.453-2.285,0.68-3.907,0.68c-2.703,0-4.865-0.873-6.47-2.633c-1.587-1.762-2.39-3.977-2.39-6.645
	c0-2.67,0.803-4.867,2.39-6.629c1.604-1.76,3.767-2.65,6.47-2.65C382.09,60.562,383.381,60.789,384.375,61.26z"/>
<path fill="#63DDCE" d="M401.814,75.91V56.621h-3.994c-0.994,0-1.761-0.523-1.761-1.43s0.767-1.43,1.761-1.43h5.599
	c0.906,0,1.604,0.645,1.604,1.43V75.91h5.179c0.994,0,1.762,0.523,1.762,1.43s-0.768,1.43-1.762,1.43h-13.567
	c-0.994,0-1.744-0.523-1.744-1.43s0.75-1.43,1.744-1.43H401.814z"/>
<path fill="#63DDCE" d="M424.451,79.119c-2.547,0-4.604-0.873-6.191-2.617c-1.569-1.76-2.354-3.975-2.354-6.66
	c0-2.688,0.785-4.902,2.354-6.645c1.587-1.762,3.645-2.635,6.191-2.635c2.546,0,4.604,0.873,6.173,2.635
	c1.57,1.742,2.354,3.957,2.354,6.645c0,2.686-0.784,4.9-2.354,6.66C429.055,78.246,426.997,79.119,424.451,79.119z M419.132,69.842
	c0,1.971,0.488,3.539,1.465,4.707c0.977,1.152,2.267,1.727,3.854,1.727c1.587,0,2.877-0.574,3.854-1.727
	c0.977-1.168,1.465-2.736,1.465-4.707s-0.488-3.541-1.465-4.691c-0.977-1.17-2.267-1.744-3.854-1.744
	c-1.588,0-2.878,0.574-3.854,1.744C419.62,66.301,419.132,67.871,419.132,69.842z"/>
<path fill="#63DDCE" d="M443.513,63.771c-0.994,0-1.762-0.523-1.762-1.43s0.768-1.43,1.762-1.43h5.598
	c0.907,0,1.604,0.609,1.604,1.43v18.207c0,1.953-0.523,3.4-1.587,4.324c-1.064,0.926-2.459,1.396-4.221,1.396
	c-1.971,0-3.662-0.488-5.04-1.465c-0.68-0.471-1.028-0.994-1.046-1.535c0-0.855,0.628-1.535,1.465-1.535
	c0.331,0,0.662,0.123,0.977,0.35l1.012,0.732c0.436,0.297,1.343,0.592,2.476,0.592c1.832,0,2.756-1.045,2.756-3.139V63.771H443.513z
	 M451.256,56.029c0,0.609-0.228,1.15-0.663,1.586c-0.437,0.436-0.977,0.646-1.587,0.646s-1.151-0.211-1.587-0.646
	c-0.437-0.436-0.663-0.977-0.663-1.586c0-0.629,0.227-1.17,0.663-1.605c0.436-0.436,0.977-0.662,1.587-0.662s1.15,0.227,1.587,0.662
	C451.028,54.859,451.256,55.4,451.256,56.029z"/>
<path fill="#63DDCE" d="M476.49,77.025c0,0.994-0.646,1.744-1.604,1.744s-1.604-0.75-1.604-1.744v-0.715
	c-0.261,0.768-0.889,1.43-1.883,1.988c-0.994,0.541-2.041,0.82-3.157,0.82c-4.499,0-6.749-2.303-6.749-6.889v-9.574
	c0-0.994,0.646-1.744,1.604-1.744s1.604,0.75,1.604,1.744v8.859c0,1.691,0.262,2.895,0.785,3.645c0.54,0.75,1.447,1.115,2.755,1.115
	c1.57,0,2.809-0.627,3.697-1.9c0.89-1.273,1.343-2.947,1.343-5.006v-6.713c0-0.994,0.646-1.744,1.604-1.744s1.604,0.75,1.604,1.744
	V77.025z"/>
<path fill="#63DDCE" d="M485.088,62.725c0-1.045,0.646-1.812,1.604-1.812s1.604,0.768,1.604,1.812v0.803
	c0.437-0.768,1.134-1.447,2.11-2.057c0.977-0.611,2.058-0.908,3.227-0.908c2.982,0,5.005,1.117,6.104,3.35
	c0.14,0.295,0.209,0.574,0.209,0.854c0,0.994-0.871,1.709-1.778,1.709c-0.61,0-1.063-0.33-1.36-0.994
	c-0.663-1.377-1.727-2.074-3.174-2.074c-1.762,0-3.104,0.68-3.994,2.039c-0.889,1.361-1.343,3.053-1.343,5.076v6.436
	c0,1.045-0.646,1.812-1.604,1.812s-1.604-0.768-1.604-1.812V62.725z"/>
<path fill="#63DDCE" d="M519.444,63.074c1.622,1.674,2.424,3.768,2.424,6.262c0,1.133-0.697,1.795-1.796,1.795h-12.348
	c0.192,1.43,0.768,2.652,1.762,3.645c0.994,0.994,2.25,1.5,3.767,1.5c2.319,0,4.099-0.732,5.354-2.18
	c0.366-0.4,0.784-0.609,1.255-0.609c0.472,0,0.855,0.174,1.134,0.523c0.576,0.68,0.628,1.604-0.14,2.371
	c-1.9,1.83-4.446,2.756-7.604,2.738c-2.703,0-4.865-0.873-6.47-2.633c-1.587-1.762-2.39-3.977-2.39-6.645
	c0-2.67,0.803-4.867,2.39-6.629c1.604-1.76,3.767-2.65,6.47-2.65C515.782,60.562,517.84,61.4,519.444,63.074z M518.537,68.271
	c-0.366-1.43-0.977-2.6-1.849-3.506c-0.854-0.906-2.005-1.359-3.436-1.359c-1.447,0-2.686,0.471-3.68,1.412
	s-1.622,2.092-1.849,3.453H518.537z"/>
<path fill="#63DDCE" d="M528.81,58.086c0-0.836,0.278-1.533,0.837-2.092c0.575-0.559,1.256-0.838,2.058-0.838
	c0.82,0,1.5,0.279,2.075,0.855c0.576,0.559,0.854,1.256,0.854,2.074v0.262c0,1.762-0.436,3.35-1.308,4.727
	c-0.854,1.377-2.023,2.354-3.505,2.947c-0.157,0.07-0.35,0.105-0.541,0.105c-0.628,0-1.063-0.455-1.063-0.959
	c0-0.473,0.296-0.82,0.889-1.047c1.291-0.453,1.937-1.256,1.919-2.424c0-0.506-0.244-0.855-0.715-1.064
	C529.315,60.109,528.81,59.256,528.81,58.086z M535.96,58.086c0-0.836,0.278-1.533,0.837-2.092c0.558-0.559,1.238-0.838,2.058-0.838
	s1.5,0.279,2.075,0.855c0.575,0.559,0.854,1.256,0.854,2.074v0.262c0,1.762-0.436,3.35-1.308,4.727s-2.041,2.354-3.522,2.947
	c-0.157,0.07-0.332,0.105-0.523,0.105c-0.628,0-1.082-0.455-1.082-0.959c0-0.473,0.297-0.82,0.89-1.047
	c1.291-0.453,1.937-1.256,1.937-2.424c0-0.506-0.244-0.855-0.716-1.064C536.465,60.109,535.96,59.256,535.96,58.086z"/>
<path fill="#7152B9" d="M555.091,55.488h-4.36c-1.099,0-1.639-0.471-1.639-1.43s0.54-1.43,1.639-1.43h5.756
	c1.133,0,1.813,0.766,1.813,1.674v8.145c0,3.051,1.395,4.674,3.54,4.674c0.907,0,1.43,0.574,1.43,1.43c0,0.854-0.522,1.43-1.43,1.43
	c-2.146,0-3.54,1.621-3.54,4.674v8.145c0,0.906-0.681,1.691-1.813,1.691h-5.756c-1.099,0-1.639-0.471-1.639-1.43
	s0.54-1.43,1.639-1.43h4.36v-6.262c0-2.041,0.209-3.523,0.646-4.447c0.436-0.924,1.29-1.727,2.599-2.371
	c-1.309-0.646-2.181-1.43-2.616-2.355c-0.419-0.924-0.628-2.424-0.628-4.463V55.488z"/>
<path fill="#63AFEF" d="M583.116,68.062c0,6.574-1.709,11.859-5.145,15.852c-0.331,0.438-0.75,0.646-1.256,0.646
	c-0.854,0-1.604-0.715-1.604-1.57c0-0.4,0.14-0.785,0.401-1.15c2.93-3.436,4.395-8.023,4.395-13.777
	c0-5.773-1.465-10.359-4.395-13.795c-0.262-0.367-0.401-0.732-0.401-1.135c0-0.854,0.75-1.586,1.604-1.586
	c0.453,0,0.872,0.209,1.256,0.645C581.407,56.186,583.116,61.488,583.116,68.062z"/>
</svg>
