<?xml version="1.0" encoding="utf-8"?>
<!-- Generator: Adobe Illustrator 16.0.0, SVG Export Plug-In . SVG Version: 6.00 Build 0)  -->
<!DOCTYPE svg PUBLIC "-//W3C//DTD SVG 1.1//EN" "http://www.w3.org/Graphics/SVG/1.1/DTD/svg11.dtd">
<svg version="1.1" id="Layer_1" xmlns="http://www.w3.org/2000/svg" xmlns:xlink="http://www.w3.org/1999/xlink" x="0px" y="0px"
	 width="300px" height="300px" viewBox="0 0 300 300" enable-background="new 0 0 300 300" xml:space="preserve">
<path fill="#3F9BE3" d="M136.244,206.824c0-16.369,1.678-28.405,5.174-35.823c3.503-7.415,10.357-13.715,20.854-18.892
	c-10.496-5.182-17.495-11.473-20.854-18.893c-3.497-7.419-5.174-19.453-5.174-35.826V47.15h-34.99
	c-8.815,0-13.149-3.783-13.149-11.475c0-7.701,4.334-11.479,13.149-11.479h46.185c9.092,0,14.554,6.295,14.554,13.577v65.351
	c0,24.494,11.197,37.513,28.408,37.513c7.278,0,11.475,4.618,11.475,11.473c0,6.857-4.196,11.477-11.475,11.477
	c-17.211,0-28.408,13.014-28.408,37.508v65.35c0,7.281-5.46,13.438-14.554,13.438h-46.185c-8.816,0-13.15-3.78-13.15-11.478
	c0-7.702,4.334-11.474,13.15-11.474h34.99V206.824L136.244,206.824z"/>
</svg>
