<?xml version="1.0" encoding="utf-8"?>
<!-- Generator: Adobe Illustrator 16.0.0, SVG Export Plug-In . SVG Version: 6.00 Build 0)  -->
<!DOCTYPE svg PUBLIC "-//W3C//DTD SVG 1.1//EN" "http://www.w3.org/Graphics/SVG/1.1/DTD/svg11.dtd">
<svg version="1.1" id="Layer_3" xmlns="http://www.w3.org/2000/svg" xmlns:xlink="http://www.w3.org/1999/xlink" x="0px" y="0px"
	 width="800px" height="300px" viewBox="0 0 800 300" enable-background="new 0 0 800 300" xml:space="preserve">
<rect x="91.762" y="149.968" fill="#FFFFFF" width="0.597" height="83.742"/>
<path fill="#45AD97" d="M95.453,54.33c2.086,0,3.764,0.702,5.031,2.125c1.267,1.403,2.632,3.685,4.075,6.863l7.584,16.689
	c0.097,0.333,0.156,0.566,0.156,0.722c0,0.838-0.39,1.443-1.15,1.793c-0.215,0.098-0.468,0.156-0.76,0.156
	c-0.819,0-1.404-0.39-1.755-1.151l-5.869-13.472l-5.908,13.472c-0.351,0.761-0.935,1.151-1.755,1.151
	c-0.292,0-0.545-0.059-0.76-0.156c-0.76-0.332-1.15-0.936-1.15-1.793c0-0.273,0.059-0.507,0.156-0.722l7.389-16.65l-0.214-0.487
	c-0.839-2.008-1.619-3.412-2.3-4.171c-0.683-0.781-1.599-1.171-2.77-1.171c-0.624,0-1.403,0.39-1.871,0.39
	c-0.859,0-1.521-0.604-1.521-1.56C92.061,55.012,93.191,54.33,95.453,54.33z"/>
<path fill="#FFFFFF" d="M120.117,70.474c-0.858,0-1.443-0.565-1.443-1.482c0-0.507,0.234-0.995,0.683-1.443
	c1.151-1.189,2.632-1.794,4.445-1.794c1.014,0,2.32,0.391,3.899,1.17c1.599,0.761,2.866,1.15,3.802,1.15
	c0.876,0,1.657-0.311,2.319-0.916c0.449-0.409,0.897-0.604,1.345-0.604c0.858,0,1.443,0.566,1.443,1.482
	c0,0.507-0.233,0.975-0.682,1.423c-1.15,1.189-2.613,1.794-4.426,1.794c-1.092,0-2.418-0.391-3.998-1.15
	c-1.579-0.761-2.807-1.15-3.704-1.15c-0.877,0-1.657,0.312-2.32,0.916C121.053,70.278,120.604,70.474,120.117,70.474z"/>
<path fill="#63AFEF" d="M99.216,101.049c0.955,0,1.793,0.819,1.793,1.775c0,0.448-0.156,0.876-0.448,1.267
	c-3.275,3.841-4.913,8.968-4.913,15.422c0,6.434,1.638,11.562,4.913,15.403c0.292,0.41,0.448,0.838,0.448,1.287
	c0,0.955-0.838,1.755-1.793,1.755c-0.566,0-1.034-0.234-1.404-0.722c-3.841-4.465-5.752-10.373-5.752-17.723
	c0-7.351,1.911-13.277,5.752-17.743C98.241,101.283,98.709,101.049,99.216,101.049z"/>
<path fill="#4B6DD7" d="M114.385,129.125c-1.638-1.833-2.457-4.367-2.457-7.624c0-3.002,0.818-5.478,2.438-7.428
	c1.618-1.969,3.899-2.945,6.823-2.945c1.17,0,2.281,0.234,3.333,0.703c1.053,0.448,1.814,1.053,2.263,1.812v-8.149
	c0-1.111,0.721-1.969,1.794-1.969c1.072,0,1.793,0.858,1.793,1.969v24.04c0,1.111-0.721,1.949-1.793,1.949
	c-0.917,0-1.736-0.838-1.794-1.949c-0.507,0.76-1.287,1.345-2.321,1.754c-1.033,0.391-2.125,0.585-3.275,0.585
	C118.284,131.874,116.022,130.958,114.385,129.125z M116.978,126.765c0.975,1.287,2.359,1.931,4.173,1.931
	c1.812,0,3.217-0.644,4.172-1.931c0.976-1.306,1.463-3.061,1.463-5.264c0-2.241-0.487-3.997-1.463-5.263
	c-0.955-1.288-2.359-1.931-4.172-1.931c-3.607,0-5.615,2.729-5.615,7.194C115.535,123.704,116.022,125.459,116.978,126.765z"/>
<path fill="#4B6DD7" d="M153.534,113.937c1.814,1.872,2.71,4.211,2.71,6.999c0,1.268-0.78,2.009-2.007,2.009h-13.804
	c0.215,1.6,0.858,2.963,1.969,4.075c1.111,1.111,2.515,1.677,4.211,1.677c2.593,0,4.582-0.819,5.986-2.438
	c0.409-0.448,0.877-0.682,1.403-0.682c0.527,0,0.955,0.195,1.268,0.585c0.644,0.76,0.702,1.794-0.156,2.652
	c-2.125,2.047-4.972,3.08-8.5,3.061c-3.022,0-5.44-0.975-7.234-2.943c-1.773-1.969-2.671-4.446-2.671-7.429
	c0-2.982,0.897-5.439,2.671-7.408c1.794-1.97,4.212-2.964,7.234-2.964C149.44,111.128,151.741,112.064,153.534,113.937z
	 M152.521,119.747c-0.41-1.6-1.092-2.905-2.067-3.919c-0.955-1.014-2.241-1.521-3.84-1.521c-1.618,0-3.003,0.526-4.114,1.579
	c-1.111,1.053-1.812,2.339-2.066,3.861H152.521z"/>
<path fill="#4B6DD7" d="M167.963,114.716h-5.187c-1.248,0-1.872-0.526-1.872-1.598c0-1.073,0.625-1.599,1.872-1.599h5.187
	c0-2.905,0.624-5.011,1.852-6.356c1.248-1.345,2.808-2.028,4.66-2.028c1.326,0,2.378,0.098,3.159,0.312
	c0.799,0.194,1.618,0.585,2.476,1.169c0.644,0.526,0.956,1.054,0.956,1.56c0,1.111-0.761,1.794-1.677,1.794
	c-0.409,0-0.741-0.137-1.033-0.41c-0.605-0.506-1.189-0.838-1.716-0.994c-0.527-0.156-1.209-0.233-2.008-0.233
	c-1.014,0-1.774,0.507-2.301,1.501s-0.78,2.223-0.78,3.685h7.233c1.248,0,1.872,0.526,1.872,1.599c0,1.072-0.625,1.598-1.872,1.598
	h-7.233v14.778c0,1.17-0.683,1.989-1.794,1.989c-1.072,0-1.793-0.877-1.793-1.989L167.963,114.716L167.963,114.716z"/>
<path fill="#FFFFFF" d="M213.337,113.469c0-1.112,0.76-1.95,1.794-1.95c1.072,0,1.813,0.838,1.813,1.95v0.448
	c0.175-0.74,0.624-1.383,1.306-1.949c0.683-0.566,1.521-0.839,2.516-0.839c2.476,0,3.997,0.936,4.562,2.828
	c0.234-0.76,0.741-1.422,1.501-1.988c0.78-0.566,1.716-0.839,2.808-0.839c3.354,0,5.03,2.067,5.03,5.42v12.985
	c0,1.111-0.722,1.949-1.794,1.949c-1.072,0-1.793-0.838-1.793-1.949v-11.991c0-2.281-0.703-3.236-2.282-3.236
	c-2.008,0-3.002,1.794-3.002,5.4v9.827c0,1.111-0.722,1.949-1.793,1.949c-1.073,0-1.794-0.838-1.794-1.949v-11.991
	c0-2.281-0.625-3.236-2.282-3.236c-2.008,0-3.002,1.949-2.982,5.869v9.358c0,1.111-0.742,1.949-1.813,1.949
	c-1.034,0-1.794-0.838-1.794-1.949L213.337,113.469L213.337,113.469z"/>
<path fill="#FFFFFF" d="M255.743,113.937c1.814,1.872,2.71,4.211,2.71,6.999c0,1.268-0.78,2.009-2.008,2.009h-13.804
	c0.215,1.6,0.859,2.963,1.97,4.075c1.111,1.111,2.515,1.677,4.211,1.677c2.594,0,4.582-0.819,5.986-2.438
	c0.41-0.448,0.877-0.682,1.403-0.682c0.527,0,0.956,0.195,1.268,0.585c0.643,0.76,0.702,1.794-0.156,2.652
	c-2.125,2.047-4.972,3.08-8.501,3.061c-3.021,0-5.439-0.975-7.233-2.943c-1.773-1.969-2.67-4.446-2.67-7.429
	c0-2.982,0.897-5.439,2.67-7.408c1.794-1.97,4.212-2.964,7.233-2.964C251.648,111.128,253.95,112.064,255.743,113.937z
	 M254.729,119.747c-0.41-1.6-1.092-2.905-2.067-3.919c-0.955-1.014-2.241-1.521-3.841-1.521c-1.618,0-3.002,0.526-4.113,1.579
	c-1.111,1.053-1.813,2.339-2.067,3.861H254.729z"/>
<path fill="#FFFFFF" d="M280.485,113.937c1.813,1.872,2.71,4.211,2.71,6.999c0,1.268-0.78,2.009-2.008,2.009h-13.804
	c0.215,1.6,0.858,2.963,1.969,4.075c1.111,1.111,2.516,1.677,4.211,1.677c2.593,0,4.582-0.819,5.986-2.438
	c0.41-0.448,0.878-0.682,1.403-0.682c0.527,0,0.956,0.195,1.268,0.585c0.644,0.76,0.702,1.794-0.155,2.652
	c-2.125,2.047-4.972,3.08-8.501,3.061c-3.022,0-5.44-0.975-7.233-2.943c-1.774-1.969-2.671-4.446-2.671-7.429
	c0-2.982,0.896-5.439,2.671-7.408c1.793-1.97,4.211-2.964,7.233-2.964C276.39,111.128,278.691,112.064,280.485,113.937z
	 M279.471,119.747c-0.41-1.6-1.092-2.905-2.066-3.919c-0.955-1.014-2.242-1.521-3.841-1.521c-1.618,0-3.002,0.526-4.113,1.579
	c-1.111,1.053-1.813,2.339-2.067,3.861H279.471z"/>
<path fill="#FFFFFF" d="M296.706,103.135c1.112,0,1.794,0.819,1.794,1.989v6.395h7.233c1.247,0,1.872,0.526,1.872,1.599
	c0,1.072-0.625,1.598-1.872,1.598H298.5v10.451c0,2.437,1.287,3.529,3.08,3.529c1.268,0,2.281-0.332,2.769-0.663l1.15-0.819
	c0.352-0.253,0.702-0.39,1.072-0.409c1.015,0,1.638,0.78,1.638,1.716c0,0.604-0.39,1.189-1.149,1.735
	c-1.541,1.092-3.432,1.638-5.636,1.618c-1.969,0-3.548-0.507-4.736-1.541c-1.189-1.033-1.773-2.651-1.773-4.835v-10.782h-5.188
	c-1.248,0-1.871-0.526-1.871-1.598c0-1.073,0.623-1.599,1.871-1.599h5.188v-6.395C294.913,104.013,295.634,103.135,296.706,103.135z
	"/>
<path fill="#FFFFFF" d="M331.431,129.534c0,1.111-0.722,1.949-1.794,1.949c-1.071,0-1.794-0.838-1.794-1.949v-0.799
	c-0.292,0.858-0.994,1.598-2.104,2.223c-1.111,0.604-2.281,0.916-3.528,0.916c-5.031,0-7.547-2.573-7.547-7.702v-10.703
	c0-1.112,0.723-1.95,1.794-1.95c1.072,0,1.794,0.838,1.794,1.95v9.904c0,1.891,0.293,3.236,0.878,4.075
	c0.604,0.839,1.618,1.248,3.081,1.248c1.754,0,3.138-0.702,4.132-2.125c0.995-1.423,1.502-3.294,1.502-5.595v-7.507
	c0-1.112,0.723-1.95,1.794-1.95c1.072,0,1.794,0.838,1.794,1.95L331.431,129.534L331.431,129.534z"/>
<path fill="#FFFFFF" d="M355.236,113.878c1.638,1.833,2.457,4.368,2.457,7.623c0,3.003-0.819,5.48-2.438,7.448
	c-1.618,1.95-3.898,2.924-6.824,2.924c-1.17,0-2.28-0.234-3.334-0.682c-1.053-0.468-1.812-1.072-2.262-1.833v8.15
	c0,1.111-0.722,1.969-1.794,1.969s-1.793-0.858-1.793-1.969v-24.04c0-1.112,0.721-1.95,1.793-1.95c0.917,0,1.736,0.838,1.794,1.95
	c0.507-0.76,1.287-1.346,2.32-1.735c1.032-0.409,2.125-0.605,3.274-0.605C351.337,111.128,353.599,112.045,355.236,113.878z
	 M352.643,116.256c-0.974-1.306-2.357-1.949-4.172-1.949c-1.813,0-3.196,0.643-4.172,1.949c-0.976,1.287-1.463,3.042-1.463,5.245
	c0,2.243,0.487,3.997,1.463,5.284c0.976,1.267,2.358,1.911,4.172,1.911c1.814,0,3.198-0.644,4.172-1.911
	c0.977-1.287,1.464-3.041,1.464-5.284C354.105,119.298,353.618,117.543,352.643,116.256z"/>
</svg>
