<?xml version="1.0" encoding="utf-8"?>
<!-- Generator: Adobe Illustrator 16.0.0, SVG Export Plug-In . SVG Version: 6.00 Build 0)  -->
<!DOCTYPE svg PUBLIC "-//W3C//DTD SVG 1.1//EN" "http://www.w3.org/Graphics/SVG/1.1/DTD/svg11.dtd">
<svg version="1.1" id="Layer_1" xmlns="http://www.w3.org/2000/svg" xmlns:xlink="http://www.w3.org/1999/xlink" x="0px" y="0px"
	 width="800px" height="300px" viewBox="0 0 800 300" enable-background="new 0 0 800 300" xml:space="preserve">
<rect x="91.762" y="149.968" fill="#FFFFFF" width="0.597" height="83.742"/>
<path fill="#45AD97" d="M95.453,54.33c2.086,0,3.764,0.702,5.031,2.125c1.267,1.403,2.632,3.685,4.075,6.863l7.584,16.689
	c0.097,0.333,0.156,0.566,0.156,0.722c0,0.838-0.39,1.443-1.15,1.793c-0.215,0.098-0.468,0.156-0.76,0.156
	c-0.819,0-1.404-0.39-1.755-1.151l-5.869-13.472l-5.908,13.472c-0.351,0.761-0.935,1.151-1.755,1.151
	c-0.292,0-0.545-0.059-0.76-0.156c-0.76-0.332-1.15-0.936-1.15-1.793c0-0.273,0.059-0.507,0.156-0.722l7.389-16.65l-0.214-0.487
	c-0.839-2.008-1.619-3.412-2.3-4.171c-0.683-0.781-1.599-1.171-2.77-1.171c-0.624,0-1.403,0.39-1.871,0.39
	c-0.859,0-1.521-0.604-1.521-1.56C92.061,55.012,93.191,54.33,95.453,54.33z"/>
<path fill="#FFFFFF" d="M120.117,70.474c-0.858,0-1.443-0.565-1.443-1.482c0-0.507,0.234-0.995,0.683-1.443
	c1.151-1.189,2.632-1.794,4.445-1.794c1.014,0,2.32,0.391,3.899,1.17c1.599,0.761,2.866,1.15,3.802,1.15
	c0.876,0,1.657-0.311,2.319-0.916c0.449-0.409,0.897-0.604,1.345-0.604c0.858,0,1.443,0.566,1.443,1.482
	c0,0.507-0.233,0.975-0.682,1.423c-1.15,1.189-2.613,1.794-4.426,1.794c-1.092,0-2.418-0.391-3.998-1.15
	c-1.579-0.761-2.807-1.15-3.704-1.15c-0.877,0-1.657,0.312-2.32,0.916C121.053,70.278,120.604,70.474,120.117,70.474z"/>
<path fill="#63AFEF" d="M99.216,101.049c0.955,0,1.793,0.819,1.793,1.775c0,0.448-0.156,0.876-0.448,1.267
	c-3.275,3.841-4.913,8.968-4.913,15.422c0,6.434,1.638,11.562,4.913,15.403c0.292,0.41,0.448,0.838,0.448,1.287
	c0,0.955-0.838,1.755-1.793,1.755c-0.566,0-1.034-0.234-1.404-0.722c-3.841-4.465-5.752-10.373-5.752-17.723
	c0-7.351,1.911-13.277,5.752-17.743C98.241,101.283,98.709,101.049,99.216,101.049z"/>
<path fill="#4B6DD7" d="M114.385,129.125c-1.638-1.833-2.457-4.367-2.457-7.624c0-3.002,0.818-5.478,2.438-7.428
	c1.618-1.969,3.899-2.945,6.823-2.945c1.17,0,2.281,0.234,3.333,0.703c1.053,0.448,1.814,1.053,2.263,1.812v-8.149
	c0-1.111,0.721-1.969,1.794-1.969c1.072,0,1.793,0.858,1.793,1.969v24.04c0,1.111-0.721,1.949-1.793,1.949
	c-0.917,0-1.736-0.838-1.794-1.949c-0.507,0.76-1.287,1.345-2.321,1.754c-1.033,0.391-2.125,0.585-3.275,0.585
	C118.284,131.874,116.022,130.958,114.385,129.125z M116.978,126.765c0.975,1.287,2.359,1.931,4.173,1.931
	c1.812,0,3.217-0.644,4.172-1.931c0.976-1.306,1.463-3.061,1.463-5.264c0-2.241-0.487-3.997-1.463-5.263
	c-0.955-1.288-2.359-1.931-4.172-1.931c-3.607,0-5.615,2.729-5.615,7.194C115.535,123.704,116.022,125.459,116.978,126.765z"/>
<path fill="#4B6DD7" d="M153.534,113.937c1.814,1.872,2.71,4.211,2.71,6.999c0,1.268-0.78,2.009-2.007,2.009h-13.804
	c0.215,1.6,0.858,2.963,1.969,4.075c1.111,1.111,2.515,1.677,4.211,1.677c2.593,0,4.582-0.819,5.986-2.438
	c0.409-0.448,0.877-0.682,1.403-0.682c0.527,0,0.955,0.195,1.268,0.585c0.644,0.76,0.702,1.794-0.156,2.652
	c-2.125,2.047-4.972,3.08-8.5,3.061c-3.022,0-5.44-0.975-7.234-2.943c-1.773-1.969-2.671-4.446-2.671-7.429
	c0-2.982,0.897-5.439,2.671-7.408c1.794-1.97,4.212-2.964,7.234-2.964C149.44,111.128,151.741,112.064,153.534,113.937z
	 M152.521,119.747c-0.41-1.6-1.092-2.905-2.067-3.919c-0.955-1.014-2.241-1.521-3.84-1.521c-1.618,0-3.003,0.526-4.114,1.579
	s-1.812,2.339-2.066,3.861H152.521z"/>
<path fill="#4B6DD7" d="M167.963,114.716h-5.187c-1.248,0-1.872-0.526-1.872-1.598c0-1.073,0.625-1.599,1.872-1.599h5.187
	c0-2.905,0.624-5.011,1.852-6.356c1.248-1.345,2.808-2.028,4.66-2.028c1.326,0,2.378,0.098,3.159,0.312
	c0.799,0.194,1.618,0.585,2.476,1.169c0.644,0.526,0.956,1.054,0.956,1.56c0,1.111-0.761,1.794-1.677,1.794
	c-0.409,0-0.741-0.137-1.033-0.41c-0.605-0.506-1.189-0.838-1.716-0.994c-0.527-0.156-1.209-0.233-2.008-0.233
	c-1.014,0-1.774,0.507-2.301,1.501c-0.527,0.994-0.78,2.223-0.78,3.685h7.233c1.248,0,1.872,0.526,1.872,1.599
	c0,1.072-0.625,1.598-1.872,1.598h-7.233v14.778c0,1.17-0.683,1.989-1.794,1.989c-1.072,0-1.793-0.877-1.793-1.989V114.716z"/>
<path fill="#FFFFFF" d="M218.928,114.522c0,0.936-0.312,1.716-0.936,2.339c-0.624,0.624-1.384,0.936-2.301,0.936
	c-0.916,0-1.677-0.312-2.321-0.936c-0.643-0.644-0.955-1.423-0.955-2.339v-0.293c0-1.969,0.487-3.724,1.462-5.264
	c0.976-1.541,2.282-2.651,3.939-3.315c0.175-0.078,0.37-0.116,0.584-0.116c0.703,0,1.209,0.507,1.209,1.072
	c0,0.527-0.331,0.917-0.994,1.151c-1.443,0.507-2.165,1.423-2.165,2.729c0,0.566,0.273,0.956,0.799,1.19
	C218.363,112.26,218.928,113.215,218.928,114.522z M226.921,114.522c0,0.936-0.312,1.716-0.956,2.339
	c-0.624,0.624-1.384,0.936-2.301,0.936c-0.896,0-1.657-0.312-2.3-0.936c-0.644-0.644-0.956-1.423-0.956-2.339v-0.293
	c0-1.969,0.487-3.724,1.443-5.264c0.974-1.541,2.28-2.651,3.938-3.315c0.175-0.078,0.39-0.116,0.604-0.116
	c0.703,0,1.189,0.507,1.189,1.072c0,0.527-0.331,0.917-0.993,1.151c-1.443,0.507-2.165,1.423-2.145,2.729
	c-0.02,0.566,0.253,0.956,0.78,1.19C226.336,112.26,226.902,113.215,226.921,114.522z"/>
<path fill="#FFFFFF" d="M234.837,113.469c0-1.112,0.76-1.95,1.794-1.95c1.072,0,1.813,0.838,1.813,1.95v0.448
	c0.175-0.74,0.624-1.383,1.306-1.949c0.683-0.566,1.521-0.839,2.516-0.839c2.476,0,3.997,0.936,4.562,2.828
	c0.234-0.76,0.741-1.422,1.501-1.988c0.78-0.566,1.716-0.839,2.808-0.839c3.354,0,5.03,2.067,5.03,5.42v12.985
	c0,1.111-0.722,1.949-1.794,1.949s-1.793-0.838-1.793-1.949v-11.991c0-2.281-0.703-3.236-2.282-3.236
	c-2.008,0-3.002,1.794-3.002,5.4v9.827c0,1.111-0.722,1.949-1.793,1.949c-1.073,0-1.794-0.838-1.794-1.949v-11.991
	c0-2.281-0.625-3.236-2.282-3.236c-2.008,0-3.002,1.949-2.982,5.869v9.358c0,1.111-0.742,1.949-1.813,1.949
	c-1.034,0-1.794-0.838-1.794-1.949V113.469z"/>
<path fill="#FFFFFF" d="M277.243,113.937c1.814,1.872,2.71,4.211,2.71,6.999c0,1.268-0.78,2.009-2.008,2.009h-13.804
	c0.215,1.6,0.859,2.963,1.97,4.075c1.111,1.111,2.515,1.677,4.211,1.677c2.594,0,4.582-0.819,5.986-2.438
	c0.41-0.448,0.877-0.682,1.403-0.682c0.527,0,0.956,0.195,1.268,0.585c0.643,0.76,0.702,1.794-0.156,2.652
	c-2.125,2.047-4.972,3.08-8.501,3.061c-3.021,0-5.439-0.975-7.233-2.943c-1.773-1.969-2.67-4.446-2.67-7.429
	c0-2.982,0.897-5.439,2.67-7.408c1.794-1.97,4.212-2.964,7.233-2.964C273.148,111.128,275.45,112.064,277.243,113.937z
	 M276.229,119.747c-0.41-1.6-1.092-2.905-2.067-3.919c-0.955-1.014-2.241-1.521-3.841-1.521c-1.618,0-3.002,0.526-4.113,1.579
	c-1.111,1.053-1.813,2.339-2.067,3.861H276.229z"/>
<path fill="#FFFFFF" d="M301.985,113.937c1.813,1.872,2.71,4.211,2.71,6.999c0,1.268-0.78,2.009-2.008,2.009h-13.804
	c0.215,1.6,0.858,2.963,1.969,4.075c1.111,1.111,2.516,1.677,4.211,1.677c2.593,0,4.582-0.819,5.986-2.438
	c0.41-0.448,0.878-0.682,1.403-0.682c0.527,0,0.956,0.195,1.268,0.585c0.644,0.76,0.702,1.794-0.155,2.652
	c-2.125,2.047-4.972,3.08-8.501,3.061c-3.022,0-5.44-0.975-7.233-2.943c-1.774-1.969-2.671-4.446-2.671-7.429
	c0-2.982,0.896-5.439,2.671-7.408c1.793-1.97,4.211-2.964,7.233-2.964C297.89,111.128,300.191,112.064,301.985,113.937z
	 M300.971,119.747c-0.41-1.6-1.092-2.905-2.066-3.919c-0.955-1.014-2.242-1.521-3.841-1.521c-1.618,0-3.002,0.526-4.113,1.579
	c-1.111,1.053-1.813,2.339-2.067,3.861H300.971z"/>
<path fill="#FFFFFF" d="M318.206,103.135c1.112,0,1.794,0.819,1.794,1.989v6.395h7.233c1.247,0,1.872,0.526,1.872,1.599
	c0,1.072-0.625,1.598-1.872,1.598H320v10.451c0,2.437,1.287,3.529,3.08,3.529c1.268,0,2.281-0.332,2.769-0.663l1.15-0.819
	c0.352-0.253,0.702-0.39,1.072-0.409c1.015,0,1.638,0.78,1.638,1.716c0,0.604-0.39,1.189-1.149,1.735
	c-1.541,1.092-3.432,1.638-5.636,1.618c-1.969,0-3.548-0.507-4.737-1.541c-1.189-1.033-1.773-2.651-1.773-4.835v-10.782h-5.187
	c-1.248,0-1.872-0.526-1.872-1.598c0-1.073,0.624-1.599,1.872-1.599h5.187v-6.395C316.413,104.013,317.134,103.135,318.206,103.135z
	"/>
<path fill="#FFFFFF" d="M352.931,129.534c0,1.111-0.722,1.949-1.794,1.949s-1.794-0.838-1.794-1.949v-0.799
	c-0.292,0.858-0.994,1.598-2.105,2.223c-1.111,0.604-2.281,0.916-3.528,0.916c-5.031,0-7.547-2.573-7.547-7.702v-10.703
	c0-1.112,0.723-1.95,1.794-1.95c1.072,0,1.794,0.838,1.794,1.95v9.904c0,1.891,0.293,3.236,0.878,4.075
	c0.604,0.839,1.618,1.248,3.081,1.248c1.754,0,3.138-0.702,4.132-2.125c0.995-1.423,1.502-3.294,1.502-5.595v-7.507
	c0-1.112,0.722-1.95,1.794-1.95s1.794,0.838,1.794,1.95V129.534z"/>
<path fill="#FFFFFF" d="M376.736,113.878c1.638,1.833,2.457,4.368,2.457,7.623c0,3.003-0.819,5.48-2.438,7.448
	c-1.618,1.95-3.899,2.924-6.824,2.924c-1.17,0-2.281-0.234-3.334-0.682c-1.053-0.468-1.812-1.072-2.262-1.833v8.15
	c0,1.111-0.722,1.969-1.794,1.969s-1.793-0.858-1.793-1.969v-24.04c0-1.112,0.721-1.95,1.793-1.95c0.917,0,1.736,0.838,1.794,1.95
	c0.507-0.76,1.287-1.346,2.32-1.735c1.033-0.409,2.125-0.605,3.275-0.605C372.837,111.128,375.099,112.045,376.736,113.878z
	 M374.143,116.256c-0.974-1.306-2.358-1.949-4.172-1.949s-3.197,0.643-4.172,1.949c-0.976,1.287-1.463,3.042-1.463,5.245
	c0,2.243,0.487,3.997,1.463,5.284c0.975,1.267,2.358,1.911,4.172,1.911s3.198-0.644,4.172-1.911
	c0.976-1.287,1.463-3.041,1.463-5.284C375.605,119.298,375.118,117.543,374.143,116.256z"/>
<path fill="#FFFFFF" d="M386.681,108.36c0-0.936,0.311-1.716,0.935-2.339c0.644-0.623,1.404-0.936,2.301-0.936
	c0.917,0,1.677,0.313,2.32,0.956c0.644,0.624,0.955,1.403,0.955,2.32v0.292c0,1.969-0.487,3.743-1.462,5.284
	c-0.955,1.54-2.262,2.632-3.919,3.295c-0.176,0.078-0.39,0.117-0.604,0.117c-0.702,0-1.189-0.507-1.189-1.073
	c0-0.526,0.331-0.917,0.994-1.17c1.443-0.506,2.164-1.403,2.146-2.71c0-0.565-0.273-0.955-0.8-1.189
	C387.245,110.622,386.681,109.667,386.681,108.36z M394.673,108.36c0-0.936,0.312-1.716,0.937-2.339
	c0.624-0.623,1.384-0.936,2.301-0.936c0.916,0,1.677,0.313,2.32,0.956c0.644,0.624,0.955,1.403,0.955,2.32v0.292
	c0,1.969-0.487,3.743-1.462,5.284c-0.976,1.54-2.281,2.632-3.938,3.295c-0.176,0.078-0.37,0.117-0.585,0.117
	c-0.702,0-1.209-0.507-1.209-1.073c0-0.526,0.331-0.917,0.994-1.17c1.443-0.506,2.164-1.403,2.164-2.71
	c0-0.565-0.272-0.955-0.8-1.189C395.239,110.622,394.673,109.667,394.673,108.36z"/>
<path fill="#7152B9" d="M220.45,160.351c0,2.281-0.234,3.958-0.721,4.991c-0.488,1.033-1.443,1.911-2.905,2.632
	c1.462,0.723,2.437,1.599,2.905,2.633c0.487,1.033,0.721,2.71,0.721,4.991v6.999h4.875c1.229,0,1.833,0.527,1.833,1.599
	c0,1.073-0.604,1.6-1.833,1.6h-6.434c-1.267,0-2.027-0.877-2.027-1.892v-9.104c0-3.412-1.561-5.227-3.958-5.227
	c-1.014,0-1.599-0.643-1.599-1.599c0-0.955,0.584-1.599,1.599-1.599c2.397,0,3.958-1.812,3.958-5.225v-9.104
	c0-1.015,0.76-1.872,2.027-1.872h6.434c1.229,0,1.833,0.526,1.833,1.599c0,1.072-0.604,1.599-1.833,1.599h-4.875V160.351z"/>
<path fill="#A6BAFF" d="M241.956,162.281c0-0.936,0.312-1.716,0.936-2.32c0.624-0.604,1.385-0.916,2.301-0.916
	s1.677,0.312,2.301,0.916c0.624,0.604,0.936,1.385,0.936,2.32c0,0.917-0.312,1.696-0.936,2.301
	c-0.624,0.604-1.385,0.916-2.301,0.916s-1.677-0.312-2.301-0.916C242.268,163.978,241.956,163.198,241.956,162.281z
	 M241.956,176.163c0-0.937,0.312-1.716,0.936-2.319c0.624-0.605,1.385-0.917,2.301-0.917s1.677,0.312,2.301,0.917
	c0.624,0.604,0.936,1.383,0.936,2.319c0,0.936-0.312,1.716-0.936,2.32c-0.624,0.604-1.385,0.916-2.301,0.916
	s-1.677-0.312-2.301-0.916C242.268,177.879,241.956,177.099,241.956,176.163z"/>
<path fill="#A6BAFF" d="M261.706,175.052c0-1.014,0.682-1.871,1.755-1.871c0.663,0,1.208,0.292,1.638,0.877
	c1.248,1.696,3.022,2.555,5.303,2.555c3.294,0,4.952-1.054,4.952-3.159c0-0.858-0.39-1.424-1.619-1.794
	c-0.604-0.194-1.111-0.332-1.54-0.409c-0.409-0.078-1.111-0.176-2.067-0.312c-1.112-0.156-2.066-0.332-2.828-0.527
	c-0.76-0.214-1.54-0.507-2.378-0.916c-1.638-0.799-2.496-2.242-2.496-4.27c0-2.009,0.761-3.529,2.282-4.582
	c1.54-1.073,3.372-1.599,5.498-1.599c3.295,0,5.732,1.111,7.312,3.313c0.253,0.352,0.39,0.742,0.39,1.15
	c0,1.073-0.799,1.794-1.911,1.794c-0.585,0-1.052-0.272-1.403-0.838c-0.917-1.501-2.379-2.242-4.387-2.242
	c-2.651,0-4.192,1.033-4.192,2.846c0,1.64,1.853,2.321,5.147,2.789c0.995,0.137,1.755,0.253,2.301,0.351s1.229,0.274,2.027,0.546
	c0.819,0.254,1.443,0.565,1.852,0.917c0.839,0.683,1.619,1.969,1.619,3.626c0,2.028-0.819,3.627-2.437,4.777
	c-1.619,1.15-3.686,1.715-6.201,1.715c-3.529,0-6.239-1.15-8.091-3.432C261.881,175.929,261.706,175.5,261.706,175.052z"/>
<path fill="#A6BAFF" d="M303.333,177.45c0,1.111-0.722,1.949-1.793,1.949c-1.073,0-1.794-0.838-1.794-1.949v-0.8
	c-0.292,0.858-0.995,1.599-2.106,2.223c-1.111,0.604-2.281,0.916-3.529,0.916c-5.03,0-7.546-2.573-7.546-7.7v-10.704
	c0-1.111,0.722-1.95,1.794-1.95s1.794,0.839,1.794,1.95v9.904c0,1.892,0.292,3.236,0.877,4.074c0.605,0.839,1.619,1.249,3.081,1.249
	c1.754,0,3.139-0.702,4.133-2.125c0.995-1.424,1.502-3.296,1.502-5.597v-7.506c0-1.111,0.721-1.95,1.794-1.95
	c1.072,0,1.793,0.839,1.793,1.95V177.45z"/>
<path fill="#A6BAFF" d="M317.058,179.204c-1.032-0.409-1.812-0.994-2.319-1.754c-0.059,1.111-0.878,1.949-1.794,1.949
	c-1.072,0-1.794-0.838-1.794-1.949v-24.04c0-1.111,0.722-1.97,1.794-1.97s1.794,0.858,1.794,1.97v8.15
	c0.448-0.741,1.209-1.347,2.262-1.813c1.053-0.469,2.164-0.702,3.334-0.702c2.924,0,5.205,0.975,6.824,2.943
	c1.617,1.95,2.437,4.427,2.437,7.429c0,3.256-0.819,5.791-2.457,7.624c-1.638,1.832-3.899,2.748-6.804,2.748
	C319.184,179.789,318.092,179.595,317.058,179.204z M324.545,164.152c-0.975-1.286-2.359-1.93-4.173-1.93
	c-1.812,0-3.196,0.644-4.172,1.93c-0.975,1.269-1.462,3.022-1.462,5.265c0,2.203,0.487,3.958,1.462,5.265
	c0.976,1.287,2.359,1.931,4.172,1.931c1.813,0,3.198-0.644,4.173-1.931c0.975-1.307,1.462-3.062,1.462-5.265
	C326.007,167.175,325.52,165.421,324.545,164.152z"/>
<path fill="#A6BAFF" d="M340.688,162.632c-1.111,0-1.969-0.584-1.969-1.599c0-1.014,0.857-1.599,1.969-1.599h6.258
	c1.015,0,1.794,0.683,1.794,1.599v20.355c0,2.184-0.584,3.802-1.773,4.835s-2.749,1.56-4.719,1.56c-2.203,0-4.094-0.546-5.635-1.638
	c-0.76-0.526-1.15-1.111-1.169-1.716c0-0.954,0.701-1.716,1.638-1.716c0.37,0,0.741,0.138,1.092,0.391l1.131,0.818
	c0.487,0.332,1.5,0.663,2.769,0.663c2.047,0,3.08-1.17,3.08-3.51v-18.444H340.688z M349.345,153.976c0,0.682-0.253,1.287-0.74,1.774
	s-1.092,0.722-1.774,0.722s-1.287-0.234-1.774-0.722s-0.74-1.093-0.74-1.774c0-0.702,0.253-1.307,0.74-1.794
	s1.092-0.741,1.774-0.741s1.287,0.254,1.774,0.741S349.345,153.273,349.345,153.976z"/>
<path fill="#A6BAFF" d="M376.096,161.852c1.812,1.872,2.71,4.213,2.71,7c0,1.268-0.78,2.008-2.009,2.008h-13.804
	c0.215,1.6,0.858,2.964,1.969,4.075c1.111,1.112,2.516,1.678,4.212,1.678c2.593,0,4.582-0.819,5.985-2.438
	c0.409-0.449,0.878-0.684,1.403-0.684c0.527,0,0.956,0.196,1.268,0.586c0.644,0.76,0.702,1.793-0.156,2.651
	c-2.125,2.047-4.972,3.08-8.5,3.061c-3.022,0-5.44-0.975-7.233-2.943c-1.774-1.97-2.672-4.445-2.672-7.429
	c0-2.982,0.897-5.439,2.672-7.409c1.793-1.969,4.211-2.963,7.233-2.963C372.001,159.045,374.302,159.981,376.096,161.852z
	 M375.081,167.662c-0.409-1.598-1.092-2.904-2.066-3.919c-0.956-1.014-2.242-1.521-3.841-1.521c-1.619,0-3.003,0.526-4.114,1.579
	s-1.813,2.34-2.066,3.86H375.081z"/>
<path fill="#A6BAFF" d="M398.282,159.825c1.111,0.507,2.105,1.247,3.022,2.202c0.526,0.527,0.799,1.093,0.799,1.677
	c0,1.074-0.643,1.833-1.716,1.833c-0.525,0-1.032-0.292-1.481-0.878c-0.682-0.955-1.384-1.598-2.105-1.93
	c-0.702-0.331-1.657-0.507-2.886-0.507c-1.891,0-3.412,0.702-4.562,2.086c-1.15,1.385-1.734,3.081-1.734,5.108
	s0.584,3.743,1.734,5.128c1.15,1.384,2.672,2.067,4.562,2.067c1.229,0,2.184-0.177,2.886-0.508c0.722-0.331,1.424-0.975,2.105-1.93
	c0.449-0.586,0.956-0.878,1.481-0.878c0.527,0,0.956,0.176,1.248,0.526c0.312,0.332,0.468,0.78,0.468,1.307
	c0,0.584-0.272,1.15-0.799,1.677c-0.917,0.955-1.911,1.696-3.022,2.223c-1.111,0.507-2.554,0.76-4.367,0.76
	c-3.021,0-5.439-0.975-7.233-2.943c-1.774-1.97-2.671-4.445-2.671-7.429c0-2.982,0.896-5.439,2.671-7.409
	c1.794-1.969,4.212-2.963,7.233-2.963C395.729,159.045,397.171,159.298,398.282,159.825z"/>
<path fill="#A6BAFF" d="M417.059,151.051c1.111,0,1.794,0.818,1.794,1.989v6.395h7.233c1.247,0,1.872,0.526,1.872,1.599
	s-0.625,1.599-1.872,1.599h-7.233v10.451c0,2.438,1.287,3.529,3.08,3.529c1.267,0,2.281-0.332,2.769-0.664l1.15-0.818
	c0.351-0.254,0.701-0.39,1.072-0.41c1.014,0,1.638,0.78,1.638,1.716c0,0.605-0.39,1.189-1.15,1.735
	c-1.541,1.093-3.432,1.638-5.635,1.618c-1.969,0-3.548-0.507-4.737-1.54s-1.774-2.651-1.774-4.835v-10.782h-5.187
	c-1.247,0-1.872-0.526-1.872-1.599s0.625-1.599,1.872-1.599h5.187v-6.395C415.265,151.929,415.986,151.051,417.059,151.051z"/>
<path fill="#63DDCE" d="M466.229,162.437c0,0.937-0.312,1.716-0.936,2.342c-0.624,0.623-1.384,0.934-2.301,0.934
	c-0.916,0-1.677-0.311-2.32-0.934c-0.644-0.645-0.955-1.425-0.955-2.342v-0.292c0-1.969,0.487-3.724,1.462-5.264
	c0.975-1.541,2.282-2.652,3.938-3.314c0.176-0.078,0.371-0.117,0.585-0.117c0.702,0,1.209,0.507,1.209,1.072
	c0,0.526-0.331,0.917-0.995,1.15c-1.441,0.507-2.163,1.423-2.163,2.729c0,0.565,0.272,0.955,0.8,1.189
	C465.664,160.176,466.229,161.131,466.229,162.437z M474.224,162.437c0,0.937-0.312,1.716-0.955,2.342
	c-0.624,0.623-1.385,0.934-2.301,0.934c-0.897,0-1.657-0.311-2.301-0.934c-0.644-0.645-0.956-1.425-0.956-2.342v-0.292
	c0-1.969,0.488-3.724,1.443-5.264c0.976-1.541,2.281-2.652,3.938-3.314c0.176-0.078,0.39-0.117,0.604-0.117
	c0.703,0,1.189,0.507,1.189,1.072c0,0.526-0.33,0.917-0.994,1.15c-1.442,0.507-2.164,1.423-2.145,2.729
	c-0.02,0.565,0.254,0.955,0.78,1.189C473.639,160.176,474.204,161.131,474.224,162.437z"/>
<path fill="#63DDCE" d="M497.249,159.825c1.111,0.507,2.105,1.247,3.022,2.202c0.526,0.527,0.8,1.093,0.8,1.677
	c0,1.074-0.644,1.833-1.717,1.833c-0.525,0-1.032-0.292-1.48-0.878c-0.684-0.955-1.385-1.598-2.106-1.93
	c-0.702-0.331-1.657-0.507-2.886-0.507c-1.891,0-3.412,0.702-4.562,2.086c-1.15,1.385-1.734,3.081-1.734,5.108
	s0.584,3.743,1.734,5.128c1.15,1.384,2.672,2.067,4.562,2.067c1.229,0,2.184-0.177,2.886-0.508c0.722-0.331,1.423-0.975,2.106-1.93
	c0.448-0.586,0.955-0.878,1.48-0.878c0.527,0,0.956,0.176,1.248,0.526c0.312,0.332,0.469,0.78,0.469,1.307
	c0,0.584-0.273,1.15-0.8,1.677c-0.917,0.955-1.911,1.696-3.022,2.223c-1.111,0.507-2.554,0.76-4.367,0.76
	c-3.021,0-5.439-0.975-7.233-2.943c-1.773-1.97-2.671-4.445-2.671-7.429c0-2.982,0.897-5.439,2.671-7.409
	c1.794-1.969,4.212-2.963,7.233-2.963C494.695,159.045,496.138,159.298,497.249,159.825z"/>
<path fill="#63DDCE" d="M516.746,176.202v-21.563h-4.465c-1.111,0-1.969-0.585-1.969-1.599c0-1.015,0.857-1.6,1.969-1.6h6.259
	c1.015,0,1.794,0.722,1.794,1.6v23.162h5.79c1.112,0,1.97,0.585,1.97,1.599s-0.857,1.599-1.97,1.599h-15.168
	c-1.111,0-1.95-0.585-1.95-1.599s0.839-1.599,1.95-1.599H516.746z"/>
<path fill="#63DDCE" d="M542.054,179.789c-2.847,0-5.147-0.975-6.922-2.925c-1.754-1.969-2.632-4.444-2.632-7.447
	c0-3.002,0.878-5.479,2.632-7.429c1.774-1.969,4.075-2.943,6.922-2.943s5.146,0.975,6.902,2.943c1.754,1.95,2.632,4.427,2.632,7.429
	c0,3.003-0.878,5.479-2.632,7.447C547.2,178.814,544.9,179.789,542.054,179.789z M536.106,169.417c0,2.203,0.546,3.958,1.638,5.265
	c1.093,1.287,2.535,1.931,4.31,1.931c1.773,0,3.217-0.644,4.309-1.931c1.092-1.307,1.638-3.062,1.638-5.265
	s-0.546-3.958-1.638-5.244c-1.092-1.307-2.535-1.95-4.309-1.95c-1.774,0-3.217,0.644-4.31,1.95
	C536.652,165.459,536.106,167.214,536.106,169.417z"/>
<path fill="#63DDCE" d="M563.364,162.632c-1.111,0-1.97-0.584-1.97-1.599c0-1.014,0.858-1.599,1.97-1.599h6.258
	c1.014,0,1.794,0.683,1.794,1.599v20.355c0,2.184-0.585,3.802-1.774,4.835c-1.188,1.033-2.749,1.56-4.718,1.56
	c-2.203,0-4.095-0.546-5.635-1.638c-0.761-0.526-1.15-1.111-1.17-1.716c0-0.954,0.702-1.716,1.638-1.716
	c0.371,0,0.741,0.138,1.092,0.391l1.131,0.818c0.487,0.332,1.501,0.663,2.769,0.663c2.047,0,3.081-1.17,3.081-3.51v-18.444H563.364z
	 M572.021,153.976c0,0.682-0.253,1.287-0.741,1.774c-0.487,0.487-1.092,0.722-1.774,0.722c-0.682,0-1.286-0.234-1.773-0.722
	c-0.488-0.487-0.741-1.093-0.741-1.774c0-0.702,0.253-1.307,0.741-1.794c0.487-0.487,1.092-0.741,1.773-0.741
	c0.683,0,1.287,0.254,1.774,0.741C571.768,152.669,572.021,153.273,572.021,153.976z"/>
<path fill="#63DDCE" d="M600.232,177.45c0,1.111-0.721,1.949-1.794,1.949c-1.072,0-1.793-0.838-1.793-1.949v-0.8
	c-0.293,0.858-0.994,1.599-2.106,2.223c-1.111,0.604-2.28,0.916-3.529,0.916c-5.029,0-7.545-2.573-7.545-7.7v-10.704
	c0-1.111,0.722-1.95,1.794-1.95s1.793,0.839,1.793,1.95v9.904c0,1.892,0.293,3.236,0.878,4.074c0.604,0.839,1.619,1.249,3.08,1.249
	c1.756,0,3.14-0.702,4.134-2.125c0.994-1.424,1.502-3.296,1.502-5.597v-7.506c0-1.111,0.721-1.95,1.793-1.95
	c1.073,0,1.794,0.839,1.794,1.95V177.45z"/>
<path fill="#63DDCE" d="M609.845,161.463c0-1.171,0.721-2.028,1.794-2.028c1.072,0,1.794,0.857,1.794,2.028v0.896
	c0.486-0.857,1.268-1.617,2.358-2.3c1.093-0.683,2.301-1.014,3.607-1.014c3.334,0,5.595,1.247,6.823,3.743
	c0.156,0.332,0.234,0.643,0.234,0.955c0,1.111-0.975,1.911-1.988,1.911c-0.683,0-1.189-0.37-1.521-1.111
	c-0.741-1.541-1.931-2.32-3.549-2.32c-1.97,0-3.471,0.761-4.465,2.281s-1.501,3.412-1.501,5.674v7.194
	c0,1.17-0.722,2.027-1.794,2.027c-1.073,0-1.794-0.857-1.794-2.027V161.463z"/>
<path fill="#63DDCE" d="M648.254,161.852c1.813,1.872,2.71,4.213,2.71,7c0,1.268-0.78,2.008-2.009,2.008h-13.804
	c0.215,1.6,0.858,2.964,1.97,4.075c1.11,1.112,2.515,1.678,4.211,1.678c2.593,0,4.582-0.819,5.985-2.438
	c0.41-0.449,0.878-0.684,1.404-0.684s0.955,0.196,1.268,0.586c0.644,0.76,0.702,1.793-0.156,2.651
	c-2.125,2.047-4.972,3.08-8.501,3.061c-3.021,0-5.439-0.975-7.233-2.943c-1.773-1.97-2.671-4.445-2.671-7.429
	c0-2.982,0.897-5.439,2.671-7.409c1.794-1.969,4.212-2.963,7.233-2.963C644.159,159.045,646.46,159.981,648.254,161.852z
	 M647.239,167.662c-0.408-1.598-1.091-2.904-2.066-3.919c-0.955-1.014-2.242-1.521-3.841-1.521c-1.618,0-3.003,0.526-4.113,1.579
	c-1.111,1.053-1.813,2.34-2.067,3.86H647.239z"/>
<path fill="#63DDCE" d="M658.724,156.276c0-0.937,0.312-1.716,0.936-2.34c0.644-0.623,1.404-0.936,2.301-0.936
	c0.917,0,1.677,0.312,2.32,0.955c0.644,0.623,0.955,1.403,0.955,2.32v0.292c0,1.97-0.486,3.743-1.462,5.283
	c-0.955,1.541-2.262,2.633-3.919,3.296c-0.176,0.078-0.39,0.117-0.604,0.117c-0.702,0-1.189-0.507-1.189-1.072
	c0-0.527,0.331-0.917,0.995-1.17c1.442-0.508,2.164-1.403,2.144-2.711c0-0.564-0.272-0.955-0.799-1.188
	C659.289,158.538,658.724,157.582,658.724,156.276z M666.718,156.276c0-0.937,0.312-1.716,0.936-2.34
	c0.624-0.623,1.384-0.936,2.301-0.936c0.916,0,1.677,0.312,2.32,0.955c0.644,0.623,0.955,1.403,0.955,2.32v0.292
	c0,1.97-0.487,3.743-1.462,5.283c-0.976,1.541-2.281,2.633-3.939,3.296c-0.175,0.078-0.37,0.117-0.585,0.117
	c-0.701,0-1.208-0.507-1.208-1.072c0-0.527,0.331-0.917,0.994-1.17c1.442-0.508,2.164-1.403,2.164-2.711
	c0-0.564-0.272-0.955-0.799-1.188C667.282,158.538,666.718,157.582,666.718,156.276z"/>
<path fill="#7152B9" d="M688.105,153.371h-4.874c-1.229,0-1.833-0.526-1.833-1.599c0-1.073,0.604-1.599,1.833-1.599h6.434
	c1.268,0,2.027,0.857,2.027,1.872v9.104c0,3.412,1.561,5.225,3.959,5.225c1.014,0,1.599,0.644,1.599,1.599
	c0,0.956-0.585,1.599-1.599,1.599c-2.398,0-3.959,1.814-3.959,5.227v9.104c0,1.015-0.76,1.892-2.027,1.892h-6.434
	c-1.229,0-1.833-0.526-1.833-1.6c0-1.071,0.604-1.599,1.833-1.599h4.874v-6.999c0-2.281,0.234-3.938,0.721-4.972
	c0.488-1.033,1.443-1.93,2.906-2.652c-1.463-0.721-2.438-1.599-2.925-2.632c-0.468-1.033-0.702-2.71-0.702-4.991V153.371z"/>
<path fill="#7152B9" d="M220.45,208.268c0,2.28-0.234,3.957-0.721,4.99c-0.488,1.033-1.443,1.911-2.905,2.632
	c1.462,0.722,2.437,1.6,2.905,2.632c0.487,1.035,0.721,2.711,0.721,4.991v7h4.875c1.229,0,1.833,0.526,1.833,1.599
	s-0.604,1.599-1.833,1.599h-6.434c-1.267,0-2.027-0.877-2.027-1.891v-9.105c0-3.412-1.561-5.225-3.958-5.225
	c-1.014,0-1.599-0.643-1.599-1.6c0-0.955,0.584-1.599,1.599-1.599c2.397,0,3.958-1.812,3.958-5.225v-9.105
	c0-1.014,0.76-1.871,2.027-1.871h6.434c1.229,0,1.833,0.526,1.833,1.599s-0.604,1.598-1.833,1.598h-4.875V208.268z"/>
<path fill="#A6BAFF" d="M241.956,210.197c0-0.936,0.312-1.716,0.936-2.32c0.624-0.604,1.385-0.917,2.301-0.917
	s1.677,0.313,2.301,0.917c0.624,0.604,0.936,1.385,0.936,2.32c0,0.916-0.312,1.696-0.936,2.3c-0.624,0.604-1.385,0.918-2.301,0.918
	s-1.677-0.313-2.301-0.918C242.268,211.894,241.956,211.113,241.956,210.197z M241.956,224.079c0-0.937,0.312-1.716,0.936-2.32
	c0.624-0.604,1.385-0.916,2.301-0.916s1.677,0.312,2.301,0.916c0.624,0.604,0.936,1.384,0.936,2.32c0,0.936-0.312,1.715-0.936,2.32
	c-0.624,0.604-1.385,0.916-2.301,0.916s-1.677-0.312-2.301-0.916C242.268,225.794,241.956,225.015,241.956,224.079z"/>
<path fill="#A6BAFF" d="M269.33,224.118v-21.563h-4.465c-1.111,0-1.969-0.585-1.969-1.6c0-1.014,0.858-1.599,1.969-1.599h6.259
	c1.014,0,1.793,0.722,1.793,1.599v23.163h5.791c1.111,0,1.969,0.586,1.969,1.599c0,1.014-0.858,1.599-1.969,1.599h-15.168
	c-1.112,0-1.95-0.585-1.95-1.599c0-1.013,0.838-1.599,1.95-1.599H269.33z"/>
<path fill="#A6BAFF" d="M294.637,227.706c-2.847,0-5.147-0.976-6.922-2.926c-1.754-1.969-2.632-4.444-2.632-7.447
	s0.877-5.479,2.632-7.429c1.775-1.969,4.075-2.944,6.922-2.944c2.846,0,5.147,0.976,6.902,2.944c1.754,1.95,2.631,4.426,2.631,7.429
	s-0.877,5.479-2.631,7.447C299.784,226.73,297.483,227.706,294.637,227.706z M288.69,217.333c0,2.203,0.545,3.957,1.638,5.264
	c1.092,1.288,2.535,1.931,4.309,1.931c1.774,0,3.217-0.643,4.309-1.931c1.091-1.307,1.638-3.061,1.638-5.264
	s-0.546-3.958-1.638-5.245c-1.092-1.306-2.535-1.949-4.309-1.949c-1.774,0-3.217,0.644-4.309,1.949
	C289.235,213.375,288.69,215.13,288.69,217.333z"/>
<path fill="#A6BAFF" d="M324.058,207.74c1.111,0.507,2.105,1.249,3.022,2.203c0.525,0.526,0.799,1.092,0.799,1.677
	c0,1.073-0.644,1.833-1.716,1.833c-0.525,0-1.033-0.293-1.481-0.877c-0.683-0.956-1.385-1.599-2.105-1.93
	c-0.702-0.333-1.658-0.508-2.886-0.508c-1.892,0-3.412,0.702-4.562,2.086c-1.15,1.385-1.735,3.081-1.735,5.108
	s0.585,3.743,1.735,5.128s2.671,2.066,4.562,2.066c1.228,0,2.184-0.175,2.886-0.507c0.721-0.332,1.423-0.976,2.105-1.931
	c0.448-0.585,0.956-0.877,1.481-0.877c0.526,0,0.956,0.175,1.248,0.526c0.312,0.331,0.468,0.779,0.468,1.306
	c0,0.586-0.273,1.151-0.799,1.678c-0.917,0.955-1.911,1.697-3.022,2.222c-1.111,0.507-2.555,0.762-4.367,0.762
	c-3.021,0-5.439-0.976-7.233-2.944c-1.774-1.97-2.671-4.446-2.671-7.429c0-2.983,0.896-5.439,2.671-7.409
	c1.794-1.969,4.212-2.964,7.233-2.964C321.503,206.96,322.946,207.214,324.058,207.74z"/>
<path fill="#A6BAFF" d="M336.984,224.684c-1.638-2.028-2.457-4.484-2.457-7.351c0-2.847,0.838-5.283,2.516-7.312
	c1.677-2.047,3.957-3.062,6.843-3.062c1.092,0,2.145,0.215,3.179,0.644c1.032,0.409,1.852,1.015,2.438,1.813
	c0.097-1.268,0.799-2.066,1.793-2.066c1.111,0,1.931,0.722,1.931,1.988v15.988c0,1.268-0.819,1.988-1.931,1.988
	c-1.014,0-1.696-0.799-1.793-2.066c-0.586,0.799-1.405,1.403-2.438,1.832c-1.034,0.41-2.087,0.625-3.179,0.625
	C340.942,227.706,338.642,226.691,336.984,224.684z M338.134,217.333c0,2.125,0.527,3.86,1.561,5.206
	c1.053,1.325,2.438,1.988,4.172,1.988c1.736,0,3.14-0.663,4.173-1.988c1.053-1.346,1.578-3.081,1.578-5.206s-0.525-3.86-1.578-5.187
	c-1.033-1.346-2.437-2.008-4.173-2.008c-1.734,0-3.119,0.662-4.172,2.008C338.661,213.473,338.134,215.208,338.134,217.333z"/>
<path fill="#A6BAFF" d="M367.575,198.968c1.111,0,1.794,0.817,1.794,1.987v6.396h7.232c1.248,0,1.872,0.526,1.872,1.599
	s-0.624,1.599-1.872,1.599h-7.232v10.451c0,2.437,1.286,3.528,3.08,3.528c1.268,0,2.28-0.331,2.769-0.663l1.15-0.819
	c0.351-0.253,0.701-0.39,1.072-0.408c1.014,0,1.638,0.779,1.638,1.716c0,0.604-0.39,1.188-1.15,1.734
	c-1.54,1.092-3.432,1.638-5.635,1.619c-1.969,0-3.549-0.508-4.738-1.541c-1.188-1.033-1.773-2.652-1.773-4.835v-10.782h-5.186
	c-1.248,0-1.872-0.526-1.872-1.599s0.624-1.599,1.872-1.599h5.186v-6.396C365.781,199.845,366.503,198.968,367.575,198.968z"/>
<path fill="#A6BAFF" d="M393.038,224.118v-13.57h-4.465c-1.111,0-1.97-0.585-1.97-1.599s0.858-1.599,1.97-1.599h6.259
	c1.014,0,1.794,0.683,1.794,1.599v15.169h5.79c1.111,0,1.969,0.586,1.969,1.599c0,1.014-0.857,1.599-1.969,1.599h-15.169
	c-1.111,0-1.949-0.585-1.949-1.599c0-1.013,0.838-1.599,1.949-1.599H393.038z M397.229,201.892c0,0.682-0.253,1.286-0.741,1.773
	c-0.487,0.487-1.091,0.722-1.773,0.722s-1.287-0.234-1.774-0.722s-0.741-1.092-0.741-1.773c0-0.702,0.254-1.307,0.741-1.794
	s1.092-0.741,1.774-0.741s1.286,0.254,1.773,0.741C396.977,200.585,397.229,201.189,397.229,201.892z"/>
<path fill="#A6BAFF" d="M418.346,227.706c-2.848,0-5.147-0.976-6.922-2.926c-1.755-1.969-2.632-4.444-2.632-7.447
	s0.877-5.479,2.632-7.429c1.774-1.969,4.074-2.944,6.922-2.944c2.846,0,5.146,0.976,6.901,2.944c1.755,1.95,2.633,4.426,2.633,7.429
	s-0.878,5.479-2.633,7.447C423.492,226.73,421.191,227.706,418.346,227.706z M412.398,217.333c0,2.203,0.546,3.957,1.638,5.264
	c1.092,1.288,2.535,1.931,4.31,1.931c1.773,0,3.216-0.643,4.309-1.931c1.091-1.307,1.638-3.061,1.638-5.264
	s-0.547-3.958-1.638-5.245c-1.093-1.306-2.535-1.949-4.309-1.949c-1.774,0-3.218,0.644-4.31,1.949
	C412.944,213.375,412.398,215.13,412.398,217.333z"/>
<path fill="#A6BAFF" d="M435.016,209.3c0-1.111,0.721-1.949,1.793-1.949c1.073,0,1.794,0.838,1.794,1.949v0.8
	c0.292-0.858,0.994-1.599,2.105-2.203c1.111-0.623,2.281-0.937,3.529-0.937c5.029,0,7.545,2.574,7.545,7.701v10.705
	c0,1.111-0.722,1.949-1.793,1.949c-1.073,0-1.794-0.838-1.794-1.949v-9.905c0-1.892-0.293-3.236-0.877-4.075
	c-0.585-0.838-1.619-1.247-3.081-1.247c-1.755,0-3.139,0.722-4.133,2.144c-0.995,1.424-1.502,3.276-1.502,5.577v7.507
	c0,1.111-0.721,1.949-1.794,1.949c-1.072,0-1.793-0.838-1.793-1.949V209.3z"/>
<path fill="#63DDCE" d="M490.972,210.353c0,0.937-0.312,1.717-0.937,2.341c-0.624,0.623-1.384,0.936-2.3,0.936
	c-0.917,0-1.678-0.312-2.321-0.936c-0.643-0.644-0.955-1.425-0.955-2.341v-0.292c0-1.97,0.488-3.724,1.463-5.265
	c0.974-1.54,2.281-2.651,3.938-3.313c0.175-0.078,0.37-0.117,0.585-0.117c0.701,0,1.209,0.506,1.209,1.071
	c0,0.527-0.332,0.917-0.995,1.15c-1.442,0.507-2.164,1.424-2.164,2.73c0,0.564,0.272,0.956,0.8,1.189
	C490.405,208.091,490.972,209.047,490.972,210.353z M498.966,210.353c0,0.937-0.312,1.717-0.956,2.341
	c-0.624,0.623-1.384,0.936-2.301,0.936c-0.896,0-1.657-0.312-2.3-0.936c-0.644-0.644-0.956-1.425-0.956-2.341v-0.292
	c0-1.97,0.487-3.724,1.442-5.265c0.976-1.54,2.281-2.651,3.938-3.313c0.176-0.078,0.391-0.117,0.604-0.117
	c0.702,0,1.189,0.506,1.189,1.071c0,0.527-0.331,0.917-0.994,1.15c-1.443,0.507-2.164,1.424-2.145,2.73
	c-0.02,0.564,0.253,0.956,0.78,1.189C498.38,208.091,498.945,209.047,498.966,210.353z"/>
<path fill="#63DDCE" d="M525.071,209.711c1.638,1.831,2.457,4.365,2.457,7.622c0,3.003-0.819,5.479-2.437,7.447
	c-1.619,1.95-3.899,2.926-6.824,2.926c-1.171,0-2.281-0.234-3.334-0.684c-1.054-0.467-1.813-1.072-2.262-1.832v8.149
	c0,1.111-0.722,1.969-1.794,1.969s-1.794-0.857-1.794-1.969V209.3c0-1.111,0.722-1.949,1.794-1.949c0.916,0,1.735,0.838,1.794,1.949
	c0.507-0.76,1.287-1.345,2.319-1.734c1.034-0.41,2.126-0.605,3.276-0.605C521.172,206.96,523.434,207.877,525.071,209.711z
	 M522.479,212.088c-0.975-1.306-2.359-1.949-4.173-1.949c-1.812,0-3.197,0.644-4.172,1.949c-0.975,1.287-1.462,3.042-1.462,5.245
	c0,2.242,0.487,3.997,1.462,5.283c0.975,1.269,2.359,1.911,4.172,1.911c1.813,0,3.198-0.643,4.173-1.911
	c0.975-1.286,1.463-3.041,1.463-5.283C523.941,215.13,523.453,213.375,522.479,212.088z"/>
<path fill="#63DDCE" d="M534.917,224.684c-1.637-2.028-2.456-4.484-2.456-7.351c0-2.847,0.839-5.283,2.516-7.312
	c1.676-2.047,3.958-3.062,6.843-3.062c1.093,0,2.145,0.215,3.179,0.644c1.033,0.409,1.852,1.015,2.437,1.813
	c0.098-1.268,0.799-2.066,1.794-2.066c1.111,0,1.931,0.722,1.931,1.988v15.988c0,1.268-0.819,1.988-1.931,1.988
	c-1.014,0-1.696-0.799-1.794-2.066c-0.585,0.799-1.403,1.403-2.437,1.832c-1.034,0.41-2.086,0.625-3.179,0.625
	C538.875,227.706,536.575,226.691,534.917,224.684z M536.067,217.333c0,2.125,0.527,3.86,1.561,5.206
	c1.053,1.325,2.437,1.988,4.172,1.988s3.14-0.663,4.173-1.988c1.053-1.346,1.579-3.081,1.579-5.206s-0.526-3.86-1.579-5.187
	c-1.033-1.346-2.438-2.008-4.173-2.008s-3.119,0.662-4.172,2.008C536.595,213.473,536.067,215.208,536.067,217.333z"/>
<path fill="#63DDCE" d="M560.361,209.378c0-1.169,0.722-2.027,1.794-2.027s1.794,0.858,1.794,2.027v0.897
	c0.487-0.858,1.267-1.619,2.358-2.301c1.092-0.683,2.301-1.015,3.606-1.015c3.335,0,5.596,1.249,6.825,3.745
	c0.155,0.33,0.233,0.643,0.233,0.954c0,1.111-0.975,1.91-1.988,1.91c-0.683,0-1.189-0.37-1.521-1.11
	c-0.741-1.54-1.931-2.32-3.55-2.32c-1.968,0-3.47,0.761-4.464,2.281s-1.501,3.412-1.501,5.674v7.194
	c0,1.169-0.722,2.027-1.794,2.027s-1.794-0.858-1.794-2.027V209.378z"/>
<path fill="#63DDCE" d="M590.972,224.118v-13.57h-4.465c-1.111,0-1.97-0.585-1.97-1.599s0.858-1.599,1.97-1.599h6.259
	c1.014,0,1.793,0.683,1.793,1.599v15.169h5.791c1.111,0,1.969,0.586,1.969,1.599c0,1.014-0.857,1.599-1.969,1.599h-15.169
	c-1.111,0-1.95-0.585-1.95-1.599c0-1.013,0.839-1.599,1.95-1.599H590.972z M595.163,201.892c0,0.682-0.254,1.286-0.74,1.773
	c-0.487,0.487-1.092,0.722-1.774,0.722s-1.287-0.234-1.774-0.722s-0.741-1.092-0.741-1.773c0-0.702,0.254-1.307,0.741-1.794
	s1.092-0.741,1.774-0.741s1.287,0.254,1.774,0.741C594.909,200.585,595.163,201.189,595.163,201.892z"/>
<path fill="#63DDCE" d="M608.09,222.968c0-1.014,0.683-1.872,1.755-1.872c0.663,0,1.208,0.292,1.638,0.878
	c1.248,1.695,3.022,2.554,5.303,2.554c3.296,0,4.953-1.053,4.953-3.158c0-0.858-0.391-1.424-1.619-1.794
	c-0.604-0.194-1.11-0.332-1.54-0.41c-0.409-0.078-1.111-0.175-2.066-0.312c-1.111-0.155-2.066-0.332-2.827-0.526
	c-0.761-0.214-1.54-0.507-2.379-0.916c-1.638-0.8-2.495-2.242-2.495-4.271c0-2.008,0.76-3.528,2.281-4.581
	c1.54-1.072,3.373-1.6,5.498-1.6c3.295,0,5.731,1.112,7.312,3.315c0.253,0.351,0.39,0.74,0.39,1.151c0,1.07-0.8,1.793-1.91,1.793
	c-0.586,0-1.054-0.273-1.404-0.839c-0.917-1.501-2.379-2.242-4.387-2.242c-2.651,0-4.192,1.033-4.192,2.847
	c0,1.638,1.853,2.32,5.147,2.787c0.994,0.138,1.755,0.254,2.301,0.353c0.546,0.097,1.229,0.272,2.027,0.545
	c0.818,0.253,1.443,0.565,1.853,0.917c0.838,0.682,1.618,1.97,1.618,3.626c0,2.027-0.819,3.626-2.437,4.777
	c-1.619,1.15-3.686,1.716-6.201,1.716c-3.528,0-6.238-1.15-8.091-3.432C608.266,223.846,608.09,223.416,608.09,222.968z"/>
<path fill="#63DDCE" d="M633.982,204.192c0-0.937,0.312-1.716,0.936-2.34c0.643-0.625,1.403-0.937,2.301-0.937
	c0.916,0,1.677,0.312,2.319,0.955c0.644,0.624,0.956,1.405,0.956,2.321v0.292c0,1.969-0.487,3.743-1.463,5.284
	c-0.955,1.539-2.262,2.632-3.919,3.294c-0.175,0.078-0.39,0.117-0.604,0.117c-0.702,0-1.189-0.507-1.189-1.072
	c0-0.526,0.331-0.916,0.994-1.17c1.442-0.507,2.164-1.403,2.145-2.71c0-0.565-0.272-0.954-0.8-1.189
	C634.548,206.453,633.982,205.499,633.982,204.192z M641.976,204.192c0-0.937,0.312-1.716,0.937-2.34
	c0.623-0.625,1.384-0.937,2.3-0.937c0.917,0,1.677,0.312,2.32,0.955c0.644,0.624,0.955,1.405,0.955,2.321v0.292
	c0,1.969-0.487,3.743-1.462,5.284c-0.976,1.539-2.28,2.632-3.938,3.294c-0.175,0.078-0.37,0.117-0.585,0.117
	c-0.701,0-1.209-0.507-1.209-1.072c0-0.526,0.332-0.916,0.995-1.17c1.442-0.507,2.164-1.403,2.164-2.71
	c0-0.565-0.273-0.954-0.8-1.189C642.541,206.453,641.976,205.499,641.976,204.192z"/>
<path fill="#7152B9" d="M663.364,201.286h-4.875c-1.228,0-1.832-0.525-1.832-1.598s0.604-1.599,1.832-1.599h6.435
	c1.268,0,2.027,0.857,2.027,1.871v9.105c0,3.412,1.56,5.225,3.958,5.225c1.015,0,1.599,0.644,1.599,1.599
	c0,0.957-0.584,1.6-1.599,1.6c-2.398,0-3.958,1.812-3.958,5.225v9.105c0,1.014-0.76,1.891-2.027,1.891h-6.435
	c-1.228,0-1.832-0.526-1.832-1.599s0.604-1.599,1.832-1.599h4.875v-7c0-2.28,0.233-3.938,0.721-4.971
	c0.488-1.033,1.443-1.931,2.905-2.652c-1.462-0.721-2.437-1.599-2.925-2.632c-0.468-1.033-0.701-2.71-0.701-4.99V201.286z"/>
<path fill="#63AFEF" d="M694.696,215.345c0,7.35-1.911,13.258-5.752,17.722c-0.371,0.488-0.839,0.722-1.404,0.722
	c-0.955,0-1.794-0.799-1.794-1.755c0-0.448,0.156-0.877,0.448-1.286c3.275-3.842,4.914-8.969,4.914-15.402
	c0-6.454-1.639-11.582-4.914-15.423c-0.292-0.409-0.448-0.818-0.448-1.268c0-0.955,0.839-1.774,1.794-1.774
	c0.507,0,0.976,0.234,1.404,0.722C692.785,202.066,694.696,207.994,694.696,215.345z"/>
</svg>
