<?xml version="1.0" encoding="utf-8"?>
<!-- Generator: Adobe Illustrator 16.0.0, SVG Export Plug-In . SVG Version: 6.00 Build 0)  -->
<!DOCTYPE svg PUBLIC "-//W3C//DTD SVG 1.1//EN" "http://www.w3.org/Graphics/SVG/1.1/DTD/svg11.dtd">
<svg version="1.1" id="Layer_2" xmlns="http://www.w3.org/2000/svg" xmlns:xlink="http://www.w3.org/1999/xlink" x="0px" y="0px"
	 width="800px" height="300px" viewBox="0 0 800 300" enable-background="new 0 0 800 300" xml:space="preserve">
<path fill="#101220" d="M743.907,274.317c-4.746,0-8.909-4.068-8.909-8.816c0-2.227,0.772-4.354,2.226-6.294
	c16.273-19.082,24.409-44.558,24.409-76.622c0-31.967-8.136-57.442-24.409-76.526c-1.453-2.035-2.226-4.164-2.226-6.393
	c0-4.745,4.163-8.719,8.909-8.719c2.812,0,5.137,1.165,6.976,3.585c19.084,22.185,28.575,51.534,28.575,88.053
	c0,36.518-9.491,65.966-28.575,88.15C748.751,273.156,746.427,274.317,743.907,274.317z"/>
<path fill="#101220" d="M56.691,4.412c4.746,0,8.909,4.068,8.909,8.816c0,2.227-0.773,4.355-2.227,6.294
	C47.101,38.605,38.964,64.08,38.964,96.145c0,31.967,8.136,57.442,24.409,76.526c1.454,2.035,2.227,4.163,2.227,6.394
	c0,4.745-4.164,8.719-8.909,8.719c-2.812,0-5.137-1.165-6.976-3.585C30.631,162.013,21.14,132.663,21.14,96.145
	c0-36.518,9.491-65.966,28.576-88.15C51.847,5.573,54.171,4.412,56.691,4.412z"/>
</svg>
