<?xml version="1.0" encoding="utf-8"?>
<!-- Generator: Adobe Illustrator 16.0.0, SVG Export Plug-In . SVG Version: 6.00 Build 0)  -->
<!DOCTYPE svg PUBLIC "-//W3C//DTD SVG 1.1//EN" "http://www.w3.org/Graphics/SVG/1.1/DTD/svg11.dtd">
<svg version="1.1" id="Layer_1" xmlns="http://www.w3.org/2000/svg" xmlns:xlink="http://www.w3.org/1999/xlink" x="0px" y="0px"
	 width="1920px" height="2476.5px" viewBox="0 0 1920 2476.5" enable-background="new 0 0 1920 2476.5" xml:space="preserve">
<g id="Layer_1_1_">
	<path fill="#45AD97" d="M350.455,37.737c3.733,0,6.735,1.255,9.002,3.803c2.268,2.511,4.71,6.594,7.292,12.28l13.572,29.863
		c0.173,0.595,0.278,1.013,0.278,1.292c0,1.5-0.698,2.583-2.058,3.209c-0.386,0.175-0.837,0.279-1.361,0.279
		c-1.465,0-2.512-0.697-3.141-2.059l-10.502-24.109l-10.571,24.109c-0.628,1.361-1.674,2.059-3.14,2.059
		c-0.523,0-0.976-0.104-1.36-0.279c-1.36-0.593-2.058-1.674-2.058-3.209c0-0.488,0.104-0.906,0.279-1.292l13.222-29.795
		l-0.383-0.872c-1.501-3.592-2.896-6.105-4.116-7.464c-1.223-1.396-2.861-2.094-4.956-2.094c-1.116,0-2.511,0.699-3.348,0.699
		c-1.536,0-2.722-1.083-2.722-2.793C344.386,38.958,346.409,37.737,350.455,37.737z"/>
	<path fill="#FFFFFF" d="M483.759,69.271c-1.261,0-2.122-0.83-2.122-2.179c0-0.745,0.345-1.462,1.005-2.12
		c1.691-1.748,3.869-2.637,6.534-2.637c1.49,0,3.41,0.574,5.731,1.719c2.35,1.119,4.213,1.692,5.589,1.692
		c1.289,0,2.435-0.458,3.41-1.347c0.66-0.602,1.319-0.889,1.977-0.889c1.263,0,2.122,0.832,2.122,2.179
		c0,0.746-0.343,1.432-1.002,2.092c-1.69,1.747-3.842,2.637-6.505,2.637c-1.605,0-3.554-0.574-5.875-1.692
		c-2.322-1.118-4.126-1.69-5.445-1.69c-1.289,0-2.435,0.458-3.411,1.346C485.135,68.983,484.475,69.271,483.759,69.271z"/>
</g>
<g id="Layer_3">
	<path fill="#A6A9FF" d="M937.861,55.16c0-1.513,0.505-2.775,1.512-3.751c1.008-0.976,2.238-1.48,3.72-1.48s2.71,0.504,3.719,1.48
		c1.007,0.976,1.513,2.238,1.513,3.751c0,1.481-0.505,2.743-1.513,3.718c-1.009,0.978-2.238,1.482-3.719,1.482
		s-2.711-0.504-3.72-1.482C938.366,57.903,937.861,56.641,937.861,55.16z M937.861,77.599c0-1.513,0.505-2.773,1.512-3.749
		c1.009-0.978,2.238-1.482,3.72-1.482s2.71,0.504,3.719,1.482c1.007,0.976,1.513,2.236,1.513,3.749c0,1.512-0.505,2.773-1.513,3.752
		c-1.009,0.976-2.238,1.48-3.719,1.48s-2.711-0.505-3.72-1.48C938.366,80.372,937.861,79.111,937.861,77.599z"/>
</g>
<g id="Layer_4_1_">
	<path fill="#63AFEF" d="M627.981,156.121c1.894,0,3.554,1.622,3.554,3.517c0,0.888-0.309,1.737-0.888,2.51
		c-6.491,7.61-9.736,17.77-9.736,30.558c0,12.748,3.245,22.908,9.736,30.52c0.579,0.812,0.888,1.66,0.888,2.549
		c0,1.893-1.661,3.477-3.554,3.477c-1.121,0-2.048-0.463-2.781-1.43c-7.611-8.847-11.396-20.552-11.396-35.115
		c0-14.565,3.785-26.308,11.396-35.156C626.05,156.584,626.977,156.121,627.981,156.121z"/>
	<path fill="#63AFEF" d="M1544.204,229.251c-1.893,0-3.555-1.621-3.555-3.517c0-0.887,0.309-1.736,0.889-2.51
		c6.49-7.61,9.735-17.77,9.735-30.558c0-12.748-3.245-22.908-9.735-30.519c-0.58-0.812-0.889-1.661-0.889-2.55
		c0-1.892,1.662-3.477,3.555-3.477c1.121,0,2.047,0.463,2.781,1.429c7.611,8.847,11.396,20.552,11.396,35.116
		c0,14.565-3.784,26.308-11.396,35.157C1546.136,228.79,1545.208,229.251,1544.204,229.251z"/>
</g>
<g id="Layer_3_1_">
	<path fill="#63DDCE" d="M1095.81,172.131c0,1.513-0.505,2.774-1.514,3.785c-1.009,1.007-2.237,1.51-3.72,1.51
		c-1.48,0-2.709-0.502-3.75-1.51c-1.039-1.041-1.544-2.303-1.544-3.785v-0.473c0-3.181,0.788-6.019,2.364-8.508
		c1.575-2.49,3.688-4.287,6.366-5.357c0.283-0.127,0.601-0.189,0.944-0.189c1.135,0,1.955,0.819,1.955,1.733
		c0,0.851-0.535,1.481-1.607,1.859c-2.332,0.82-3.497,2.301-3.497,4.414c0,0.914,0.44,1.544,1.292,1.921
		C1094.895,168.478,1095.81,170.02,1095.81,172.131z M1108.73,172.131c0,1.513-0.505,2.774-1.545,3.785
		c-1.009,1.007-2.236,1.51-3.719,1.51c-1.449,0-2.678-0.502-3.718-1.51c-1.041-1.041-1.546-2.303-1.546-3.785v-0.473
		c0-3.181,0.789-6.019,2.334-8.508c1.575-2.49,3.688-4.287,6.364-5.357c0.284-0.127,0.632-0.189,0.978-0.189
		c1.135,0,1.923,0.819,1.923,1.733c0,0.851-0.535,1.481-1.606,1.859c-2.334,0.82-3.5,2.301-3.468,4.414
		c-0.032,0.914,0.41,1.544,1.262,1.921C1107.785,168.478,1108.697,170.02,1108.73,172.131z"/>
	<path fill="#63DDCE" d="M1268.75,162.897c0-1.513,0.505-2.774,1.514-3.785c1.01-1.008,2.236-1.51,3.719-1.51
		c1.481,0,2.71,0.502,3.75,1.51c1.04,1.041,1.545,2.302,1.545,3.785v0.473c0,3.182-0.788,6.019-2.363,8.509
		c-1.576,2.489-3.689,4.286-6.367,5.357c-0.283,0.127-0.6,0.189-0.945,0.189c-1.134,0-1.954-0.819-1.954-1.733
		c0-0.851,0.536-1.482,1.607-1.859c2.332-0.82,3.497-2.301,3.497-4.413c0-0.913-0.439-1.544-1.291-1.921
		C1269.665,166.551,1268.75,165.008,1268.75,162.897z M1255.828,162.897c0-1.513,0.505-2.774,1.545-3.785
		c1.009-1.008,2.236-1.51,3.718-1.51c1.451,0,2.68,0.502,3.719,1.51c1.04,1.041,1.545,2.302,1.545,3.785v0.473
		c0,3.182-0.788,6.019-2.332,8.509c-1.576,2.489-3.688,4.286-6.366,5.357c-0.283,0.127-0.629,0.189-0.976,0.189
		c-1.136,0-1.925-0.819-1.925-1.733c0-0.851,0.537-1.482,1.609-1.859c2.331-0.82,3.496-2.301,3.466-4.413
		c0.03-0.913-0.409-1.544-1.261-1.921C1256.775,166.551,1255.862,165.008,1255.828,162.897z"/>
</g>
<g id="Layer_1_3_">
	<path fill="#FFFFFF" d="M483.759,326.27c-1.261,0-2.122-0.83-2.122-2.179c0-0.745,0.345-1.462,1.005-2.12
		c1.691-1.748,3.869-2.637,6.534-2.637c1.49,0,3.41,0.574,5.731,1.719c2.35,1.119,4.213,1.691,5.589,1.691
		c1.289,0,2.435-0.458,3.41-1.347c0.66-0.601,1.319-0.889,1.977-0.889c1.263,0,2.122,0.832,2.122,2.179
		c0,0.746-0.343,1.432-1.002,2.092c-1.69,1.747-3.842,2.637-6.505,2.637c-1.605,0-3.554-0.574-5.875-1.692
		c-2.322-1.118-4.126-1.69-5.445-1.69c-1.289,0-2.435,0.458-3.411,1.346C485.135,325.982,484.475,326.27,483.759,326.27z"/>
</g>
<g id="Layer_2_2_">
	<path fill="#7152B9" d="M777.082,307.88c0,4.034-0.413,6.999-1.274,8.825c-0.863,1.828-2.552,3.379-5.138,4.654
		c2.585,1.278,4.31,2.827,5.138,4.655c0.862,1.827,1.274,4.792,1.274,8.825v12.376h8.619c2.173,0,3.24,0.933,3.24,2.827
		c0,1.897-1.067,2.827-3.24,2.827h-11.377c-2.239,0-3.584-1.549-3.584-3.345v-16.098c0-6.033-2.759-9.241-6.999-9.241
		c-1.792,0-2.827-1.136-2.827-2.827c0-1.688,1.035-2.826,2.827-2.826c4.24,0,6.999-3.206,6.999-9.24v-16.098
		c0-1.794,1.345-3.312,3.584-3.312h11.377c2.173,0,3.24,0.93,3.24,2.827c0,1.897-1.067,2.827-3.24,2.827h-8.619V307.88z"/>
	<path fill="#7152B9" d="M1413.314,334.874c0-4.033,0.412-6.998,1.274-8.825s2.552-3.378,5.137-4.653
		c-2.585-1.277-4.31-2.827-5.137-4.656c-0.864-1.827-1.274-4.792-1.274-8.825v-12.376h-8.621c-2.172,0-3.238-0.932-3.238-2.827
		c0-1.897,1.066-2.827,3.238-2.827h11.378c2.241,0,3.585,1.55,3.585,3.345v16.098c0,6.035,2.758,9.241,6.998,9.241
		c1.793,0,2.828,1.137,2.828,2.827c0,1.688-1.035,2.826-2.828,2.826c-4.24,0-6.998,3.206-6.998,9.24v16.098
		c0,1.793-1.344,3.311-3.585,3.311h-11.378c-2.172,0-3.238-0.93-3.238-2.826c0-1.897,1.066-2.827,3.238-2.827h8.621V334.874z"/>
</g>
<g id="Layer_1_4_">
	<path fill="#45AD97" d="M350.455,423.236c3.733,0,6.735,1.255,9.002,3.802c2.268,2.511,4.71,6.595,7.292,12.281l13.572,29.863
		c0.173,0.596,0.278,1.014,0.278,1.292c0,1.5-0.698,2.582-2.058,3.209c-0.386,0.175-0.837,0.279-1.361,0.279
		c-1.465,0-2.512-0.696-3.141-2.059l-10.502-24.109l-10.571,24.109c-0.628,1.362-1.674,2.059-3.14,2.059
		c-0.523,0-0.976-0.104-1.36-0.279c-1.36-0.593-2.058-1.674-2.058-3.209c0-0.488,0.104-0.906,0.279-1.292l13.222-29.794
		l-0.383-0.872c-1.501-3.592-2.896-6.105-4.116-7.464c-1.223-1.396-2.861-2.094-4.956-2.094c-1.116,0-2.511,0.698-3.348,0.698
		c-1.536,0-2.722-1.083-2.722-2.792C344.386,424.457,346.409,423.236,350.455,423.236z"/>
</g>
<g id="Layer_4_3_">
	<path fill="#63AFEF" d="M627.981,413.12c1.894,0,3.554,1.622,3.554,3.517c0,0.888-0.309,1.736-0.888,2.51
		c-6.491,7.61-9.736,17.77-9.736,30.558c0,12.748,3.245,22.908,9.736,30.52c0.579,0.812,0.888,1.66,0.888,2.549
		c0,1.893-1.661,3.477-3.554,3.477c-1.121,0-2.048-0.463-2.781-1.43c-7.611-8.846-11.396-20.552-11.396-35.115
		c0-14.565,3.785-26.309,11.396-35.156C626.05,413.583,626.977,413.12,627.981,413.12z"/>
	<path fill="#63AFEF" d="M1544.204,486.25c-1.893,0-3.555-1.62-3.555-3.517c0-0.887,0.309-1.736,0.889-2.51
		c6.49-7.61,9.735-17.77,9.735-30.558c0-12.748-3.245-22.908-9.735-30.519c-0.58-0.812-0.889-1.661-0.889-2.55
		c0-1.892,1.662-3.477,3.555-3.477c1.121,0,2.047,0.463,2.781,1.429c7.611,8.848,11.396,20.553,11.396,35.116
		c0,14.565-3.784,26.308-11.396,35.157C1546.136,485.789,1545.208,486.25,1544.204,486.25z"/>
</g>
<g id="Layer_3_3_">
	<path fill="#63DDCE" d="M1095.81,429.13c0,1.513-0.505,2.774-1.514,3.785c-1.009,1.007-2.237,1.51-3.72,1.51
		c-1.48,0-2.709-0.502-3.75-1.51c-1.039-1.041-1.544-2.302-1.544-3.785v-0.473c0-3.181,0.788-6.019,2.364-8.508
		c1.575-2.49,3.688-4.287,6.366-5.358c0.283-0.126,0.601-0.189,0.944-0.189c1.135,0,1.955,0.819,1.955,1.733
		c0,0.851-0.535,1.482-1.607,1.859c-2.332,0.82-3.497,2.301-3.497,4.413c0,0.915,0.44,1.545,1.292,1.921
		C1094.895,425.477,1095.81,427.019,1095.81,429.13z M1108.73,429.13c0,1.513-0.505,2.774-1.545,3.785
		c-1.009,1.007-2.236,1.51-3.719,1.51c-1.449,0-2.678-0.502-3.718-1.51c-1.041-1.041-1.546-2.302-1.546-3.785v-0.473
		c0-3.181,0.789-6.019,2.334-8.508c1.575-2.49,3.688-4.287,6.364-5.358c0.284-0.126,0.632-0.189,0.978-0.189
		c1.135,0,1.923,0.819,1.923,1.733c0,0.851-0.535,1.482-1.606,1.859c-2.334,0.82-3.5,2.301-3.468,4.413
		c-0.032,0.915,0.41,1.545,1.262,1.921C1107.785,425.477,1108.697,427.019,1108.73,429.13z"/>
	<path fill="#63DDCE" d="M1268.75,419.896c0-1.513,0.505-2.774,1.514-3.784c1.01-1.008,2.236-1.51,3.719-1.51
		c1.481,0,2.71,0.502,3.75,1.51c1.04,1.041,1.545,2.302,1.545,3.784v0.473c0,3.181-0.788,6.019-2.363,8.509
		c-1.576,2.489-3.689,4.286-6.367,5.357c-0.283,0.126-0.6,0.189-0.945,0.189c-1.134,0-1.954-0.82-1.954-1.733
		c0-0.851,0.536-1.482,1.607-1.859c2.332-0.82,3.497-2.301,3.497-4.413c0-0.913-0.439-1.544-1.291-1.921
		C1269.665,423.55,1268.75,422.007,1268.75,419.896z M1255.828,419.896c0-1.513,0.505-2.774,1.545-3.784
		c1.009-1.008,2.236-1.51,3.718-1.51c1.451,0,2.68,0.502,3.719,1.51c1.04,1.041,1.545,2.302,1.545,3.784v0.473
		c0,3.181-0.788,6.019-2.332,8.509c-1.576,2.489-3.688,4.286-6.366,5.357c-0.283,0.126-0.629,0.189-0.976,0.189
		c-1.136,0-1.925-0.82-1.925-1.733c0-0.851,0.537-1.482,1.609-1.859c2.331-0.82,3.496-2.301,3.466-4.413
		c0.03-0.913-0.409-1.544-1.261-1.921C1256.775,423.55,1255.862,422.007,1255.828,419.896z"/>
</g>
<g id="Layer_2_4_">
	<path fill="#7152B9" d="M777.082,564.88c0,4.033-0.413,6.998-1.274,8.823c-0.863,1.828-2.552,3.38-5.138,4.654
		c2.585,1.278,4.31,2.827,5.138,4.655c0.862,1.826,1.274,4.792,1.274,8.826v12.376h8.619c2.173,0,3.24,0.933,3.24,2.827
		c0,1.896-1.067,2.827-3.24,2.827h-11.377c-2.239,0-3.584-1.55-3.584-3.346v-16.099c0-6.033-2.759-9.24-6.999-9.24
		c-1.792,0-2.827-1.136-2.827-2.827c0-1.688,1.035-2.826,2.827-2.826c4.24,0,6.999-3.205,6.999-9.239v-16.099
		c0-1.794,1.345-3.311,3.584-3.311h11.377c2.173,0,3.24,0.93,3.24,2.826c0,1.897-1.067,2.827-3.24,2.827h-8.619V564.88z"/>
	<path fill="#7152B9" d="M1413.314,591.873c0-4.033,0.412-6.997,1.274-8.824s2.552-3.379,5.137-4.654
		c-2.585-1.276-4.31-2.826-5.137-4.654c-0.864-1.827-1.274-4.793-1.274-8.826v-12.377h-8.621c-2.172,0-3.238-0.933-3.238-2.827
		c0-1.896,1.066-2.827,3.238-2.827h11.378c2.241,0,3.585,1.551,3.585,3.346v16.098c0,6.035,2.758,9.242,6.998,9.242
		c1.793,0,2.828,1.137,2.828,2.826c0,1.688-1.035,2.827-2.828,2.827c-4.24,0-6.998,3.205-6.998,9.239v16.098
		c0,1.794-1.344,3.311-3.585,3.311h-11.378c-2.172,0-3.238-0.93-3.238-2.826s1.066-2.827,3.238-2.827h8.621V591.873z"/>
</g>
<g id="Layer_1_6_">
	<path fill="#45AD97" d="M350.455,677.794c3.733,0,6.735,1.255,9.002,3.803c2.268,2.511,4.71,6.595,7.292,12.28l13.572,29.863
		c0.173,0.596,0.278,1.013,0.278,1.292c0,1.499-0.698,2.582-2.058,3.209c-0.386,0.174-0.837,0.279-1.361,0.279
		c-1.465,0-2.512-0.697-3.141-2.059l-10.502-24.109l-10.571,24.109c-0.628,1.361-1.674,2.059-3.14,2.059
		c-0.523,0-0.976-0.105-1.36-0.279c-1.36-0.593-2.058-1.674-2.058-3.209c0-0.488,0.104-0.906,0.279-1.292l13.222-29.795
		l-0.383-0.871c-1.501-3.592-2.896-6.105-4.116-7.464c-1.223-1.396-2.861-2.096-4.956-2.096c-1.116,0-2.511,0.699-3.348,0.699
		c-1.536,0-2.722-1.084-2.722-2.793C344.386,679.015,346.409,677.794,350.455,677.794z"/>
	<path fill="#FFFFFF" d="M483.759,709.327c-1.261,0-2.122-0.83-2.122-2.178c0-0.745,0.345-1.463,1.005-2.121
		c1.691-1.748,3.869-2.637,6.534-2.637c1.49,0,3.41,0.574,5.731,1.719c2.35,1.118,4.213,1.691,5.589,1.691
		c1.289,0,2.435-0.457,3.41-1.347c0.66-0.601,1.319-0.889,1.977-0.889c1.263,0,2.122,0.832,2.122,2.179
		c0,0.746-0.343,1.433-1.002,2.093c-1.69,1.746-3.842,2.636-6.505,2.636c-1.605,0-3.554-0.573-5.875-1.69
		c-2.322-1.119-4.126-1.691-5.445-1.691c-1.289,0-2.435,0.458-3.411,1.346C485.135,709.04,484.475,709.327,483.759,709.327z"/>
</g>
<g id="Layer_3_5_">
	<path fill="#A6A9FF" d="M937.861,695.217c0-1.513,0.505-2.774,1.512-3.751c1.008-0.976,2.238-1.479,3.72-1.479
		s2.71,0.503,3.719,1.479c1.007,0.977,1.513,2.238,1.513,3.751c0,1.48-0.505,2.743-1.513,3.719
		c-1.009,0.978-2.238,1.481-3.719,1.481s-2.711-0.504-3.72-1.481C938.366,697.96,937.861,696.697,937.861,695.217z M937.861,717.656
		c0-1.513,0.505-2.773,1.512-3.749c1.009-0.978,2.238-1.482,3.72-1.482s2.71,0.505,3.719,1.482c1.007,0.976,1.513,2.236,1.513,3.749
		c0,1.511-0.505,2.772-1.513,3.751c-1.009,0.977-2.238,1.48-3.719,1.48s-2.711-0.505-3.72-1.48
		C938.366,720.429,937.861,719.167,937.861,717.656z"/>
</g>
<g id="Layer_4_4_">
	<path fill="#63AFEF" d="M627.981,796.178c1.894,0,3.554,1.622,3.554,3.517c0,0.888-0.309,1.737-0.888,2.511
		c-6.491,7.609-9.736,17.77-9.736,30.558c0,12.748,3.245,22.908,9.736,30.52c0.579,0.812,0.888,1.66,0.888,2.549
		c0,1.893-1.661,3.477-3.554,3.477c-1.121,0-2.048-0.463-2.781-1.43c-7.611-8.847-11.396-20.552-11.396-35.115
		c0-14.565,3.785-26.309,11.396-35.155C626.05,796.641,626.977,796.178,627.981,796.178z"/>
	<path fill="#63AFEF" d="M1544.204,869.308c-1.893,0-3.555-1.62-3.555-3.516c0-0.888,0.309-1.737,0.889-2.512
		c6.49-7.608,9.735-17.769,9.735-30.558c0-12.747-3.245-22.906-9.735-30.52c-0.58-0.812-0.889-1.659-0.889-2.549
		c0-1.893,1.662-3.478,3.555-3.478c1.121,0,2.047,0.464,2.781,1.43c7.611,8.848,11.396,20.553,11.396,35.116
		c0,14.564-3.784,26.308-11.396,35.156C1546.136,868.847,1545.208,869.308,1544.204,869.308z"/>
</g>
<g id="Layer_1_5_">
	<path fill="#FFFFFF" d="M483.759,966.326c-1.261,0-2.122-0.83-2.122-2.178c0-0.745,0.345-1.463,1.005-2.121
		c1.691-1.748,3.869-2.637,6.534-2.637c1.49,0,3.41,0.574,5.731,1.719c2.35,1.118,4.213,1.691,5.589,1.691
		c1.289,0,2.435-0.457,3.41-1.347c0.66-0.602,1.319-0.889,1.977-0.889c1.263,0,2.122,0.832,2.122,2.179
		c0,0.746-0.343,1.433-1.002,2.092c-1.69,1.747-3.842,2.637-6.505,2.637c-1.605,0-3.554-0.573-5.875-1.69
		c-2.322-1.119-4.126-1.691-5.445-1.691c-1.289,0-2.435,0.458-3.411,1.346C485.135,966.039,484.475,966.326,483.759,966.326z"/>
</g>
<g id="Layer_2_3_">
	<path fill="#7152B9" d="M777.082,947.937c0,4.034-0.413,7-1.274,8.825c-0.863,1.827-2.552,3.38-5.138,4.654
		c2.585,1.277,4.31,2.826,5.138,4.654c0.862,1.827,1.274,4.792,1.274,8.826v12.376h8.619c2.173,0,3.24,0.933,3.24,2.827
		c0,1.896-1.067,2.827-3.24,2.827h-11.377c-2.239,0-3.584-1.549-3.584-3.345v-16.1c0-6.032-2.759-9.24-6.999-9.24
		c-1.792,0-2.827-1.137-2.827-2.827c0-1.688,1.035-2.826,2.827-2.826c4.24,0,6.999-3.205,6.999-9.239v-16.098
		c0-1.794,1.345-3.312,3.584-3.312h11.377c2.173,0,3.24,0.93,3.24,2.826c0,1.898-1.067,2.827-3.24,2.827h-8.619V947.937z"/>
	<path fill="#7152B9" d="M1413.314,974.931c0-4.033,0.412-6.998,1.274-8.824c0.862-1.827,2.552-3.379,5.137-4.654
		c-2.585-1.276-4.31-2.827-5.137-4.655c-0.864-1.826-1.274-4.791-1.274-8.825v-12.376h-8.621c-2.172,0-3.238-0.933-3.238-2.827
		c0-1.897,1.066-2.827,3.238-2.827h11.378c2.241,0,3.585,1.55,3.585,3.345v16.098c0,6.036,2.758,9.241,6.998,9.241
		c1.793,0,2.828,1.139,2.828,2.827c0,1.689-1.035,2.826-2.828,2.826c-4.24,0-6.998,3.206-6.998,9.24v16.098
		c0,1.794-1.344,3.311-3.585,3.311h-11.378c-2.172,0-3.238-0.929-3.238-2.825c0-1.898,1.066-2.827,3.238-2.827h8.621V974.931z"/>
</g>
<g id="Layer_1_2_">
	<path fill="#45AD97" d="M350.455,1063.292c3.733,0,6.735,1.256,9.002,3.803c2.268,2.511,4.71,6.595,7.292,12.281l13.572,29.863
		c0.173,0.595,0.278,1.013,0.278,1.291c0,1.499-0.698,2.582-2.058,3.209c-0.386,0.175-0.837,0.28-1.361,0.28
		c-1.465,0-2.512-0.698-3.141-2.059l-10.502-24.11l-10.571,24.11c-0.628,1.36-1.674,2.059-3.14,2.059
		c-0.523,0-0.976-0.105-1.36-0.28c-1.36-0.592-2.058-1.673-2.058-3.209c0-0.488,0.104-0.906,0.279-1.291l13.222-29.796l-0.383-0.871
		c-1.501-3.592-2.896-6.104-4.116-7.464c-1.223-1.396-2.861-2.095-4.956-2.095c-1.116,0-2.511,0.698-3.348,0.698
		c-1.536,0-2.722-1.083-2.722-2.792C344.386,1064.513,346.409,1063.292,350.455,1063.292z"/>
</g>
<g id="Layer_4_2_">
	<path fill="#63AFEF" d="M627.981,1053.177c1.894,0,3.554,1.622,3.554,3.517c0,0.888-0.309,1.737-0.888,2.511
		c-6.491,7.609-9.736,17.77-9.736,30.558c0,12.748,3.245,22.909,9.736,30.52c0.579,0.812,0.888,1.66,0.888,2.549
		c0,1.894-1.661,3.477-3.554,3.477c-1.121,0-2.048-0.463-2.781-1.43c-7.611-8.846-11.396-20.552-11.396-35.115
		c0-14.565,3.785-26.309,11.396-35.155C626.05,1053.64,626.977,1053.177,627.981,1053.177z"/>
	<path fill="#63AFEF" d="M1544.204,1126.307c-1.893,0-3.555-1.62-3.555-3.516c0-0.888,0.309-1.737,0.889-2.512
		c6.49-7.608,9.735-17.769,9.735-30.558c0-12.747-3.245-22.906-9.735-30.52c-0.58-0.812-0.889-1.659-0.889-2.549
		c0-1.893,1.662-3.478,3.555-3.478c1.121,0,2.047,0.464,2.781,1.43c7.611,8.847,11.396,20.553,11.396,35.115
		c0,14.565-3.784,26.309-11.396,35.158C1546.136,1125.846,1545.208,1126.307,1544.204,1126.307z"/>
</g>
<g id="Layer_3_2_">
	<path fill="#63DDCE" d="M1095.81,1069.187c0,1.513-0.505,2.774-1.514,3.785c-1.009,1.007-2.237,1.51-3.72,1.51
		c-1.48,0-2.709-0.503-3.75-1.51c-1.039-1.041-1.544-2.303-1.544-3.785v-0.474c0-3.181,0.788-6.019,2.364-8.508
		c1.575-2.489,3.688-4.287,6.366-5.358c0.283-0.126,0.601-0.188,0.944-0.188c1.135,0,1.955,0.819,1.955,1.732
		c0,0.852-0.535,1.482-1.607,1.86c-2.332,0.819-3.497,2.3-3.497,4.412c0,0.916,0.44,1.546,1.292,1.923
		C1094.895,1065.533,1095.81,1067.076,1095.81,1069.187z M1108.73,1069.187c0,1.513-0.505,2.774-1.545,3.785
		c-1.009,1.007-2.236,1.51-3.719,1.51c-1.449,0-2.678-0.503-3.718-1.51c-1.041-1.041-1.546-2.303-1.546-3.785v-0.474
		c0-3.181,0.789-6.019,2.334-8.508c1.575-2.489,3.688-4.287,6.364-5.358c0.284-0.126,0.632-0.188,0.978-0.188
		c1.135,0,1.923,0.819,1.923,1.732c0,0.852-0.535,1.482-1.606,1.86c-2.334,0.819-3.5,2.3-3.468,4.412
		c-0.032,0.916,0.41,1.546,1.262,1.923C1107.785,1065.533,1108.697,1067.076,1108.73,1069.187z"/>
	<path fill="#63DDCE" d="M1268.75,1059.953c0-1.513,0.505-2.774,1.514-3.785c1.01-1.008,2.236-1.51,3.719-1.51
		c1.481,0,2.71,0.502,3.75,1.51c1.04,1.041,1.545,2.302,1.545,3.785v0.473c0,3.182-0.788,6.019-2.363,8.509
		c-1.576,2.49-3.689,4.286-6.367,5.357c-0.283,0.127-0.6,0.189-0.945,0.189c-1.134,0-1.954-0.819-1.954-1.732
		c0-0.852,0.536-1.482,1.607-1.86c2.332-0.82,3.497-2.3,3.497-4.412c0-0.914-0.439-1.544-1.291-1.921
		C1269.665,1063.606,1268.75,1062.064,1268.75,1059.953z M1255.828,1059.953c0-1.513,0.505-2.774,1.545-3.785
		c1.009-1.008,2.236-1.51,3.718-1.51c1.451,0,2.68,0.502,3.719,1.51c1.04,1.041,1.545,2.302,1.545,3.785v0.473
		c0,3.182-0.788,6.019-2.332,8.509c-1.576,2.49-3.688,4.286-6.366,5.357c-0.283,0.127-0.629,0.189-0.976,0.189
		c-1.136,0-1.925-0.819-1.925-1.732c0-0.852,0.537-1.482,1.609-1.86c2.331-0.82,3.496-2.3,3.466-4.412
		c0.03-0.914-0.409-1.544-1.261-1.921C1256.775,1063.606,1255.862,1062.064,1255.828,1059.953z"/>
</g>
<g id="Layer_2_1_">
	<path fill="#7152B9" d="M777.082,1204.936c0,4.034-0.413,7-1.274,8.825c-0.863,1.827-2.552,3.38-5.138,4.654
		c2.585,1.278,4.31,2.827,5.138,4.654c0.862,1.827,1.274,4.792,1.274,8.826v12.376h8.619c2.173,0,3.24,0.933,3.24,2.827
		c0,1.896-1.067,2.827-3.24,2.827h-11.377c-2.239,0-3.584-1.549-3.584-3.345v-16.1c0-6.032-2.759-9.239-6.999-9.239
		c-1.792,0-2.827-1.137-2.827-2.827c0-1.689,1.035-2.827,2.827-2.827c4.24,0,6.999-3.205,6.999-9.239v-16.098
		c0-1.794,1.345-3.311,3.584-3.311h11.377c2.173,0,3.24,0.929,3.24,2.825c0,1.898-1.067,2.827-3.24,2.827h-8.619V1204.936z"/>
	<path fill="#7152B9" d="M1413.314,1231.931c0-4.034,0.412-6.998,1.274-8.825s2.552-3.378,5.137-4.654
		c-2.585-1.276-4.31-2.827-5.137-4.654c-0.864-1.827-1.274-4.792-1.274-8.826v-12.376h-8.621c-2.172,0-3.238-0.933-3.238-2.827
		c0-1.896,1.066-2.827,3.238-2.827h11.378c2.241,0,3.585,1.551,3.585,3.345v16.098c0,6.036,2.758,9.241,6.998,9.241
		c1.793,0,2.828,1.138,2.828,2.827s-1.035,2.827-2.828,2.827c-4.24,0-6.998,3.205-6.998,9.239v16.098
		c0,1.794-1.344,3.311-3.585,3.311h-11.378c-2.172,0-3.238-0.929-3.238-2.825c0-1.898,1.066-2.827,3.238-2.827h8.621V1231.931z"/>
</g>
<g id="Layer_1_12_">
	<path fill="#45AD97" d="M350.455,1328.532c3.733,0,6.735,1.255,9.002,3.803c2.268,2.511,4.71,6.595,7.292,12.28l13.572,29.863
		c0.173,0.596,0.278,1.014,0.278,1.291c0,1.5-0.698,2.583-2.058,3.21c-0.386,0.175-0.837,0.279-1.361,0.279
		c-1.465,0-2.512-0.697-3.141-2.059l-10.502-24.109l-10.571,24.109c-0.628,1.361-1.674,2.059-3.14,2.059
		c-0.523,0-0.976-0.104-1.36-0.279c-1.36-0.593-2.058-1.674-2.058-3.21c0-0.487,0.104-0.906,0.279-1.291l13.222-29.795l-0.383-0.871
		c-1.501-3.592-2.896-6.105-4.116-7.465c-1.223-1.396-2.861-2.094-4.956-2.094c-1.116,0-2.511,0.698-3.348,0.698
		c-1.536,0-2.722-1.083-2.722-2.793C344.386,1329.753,346.409,1328.532,350.455,1328.532z"/>
	<path fill="#FFFFFF" d="M483.759,1360.065c-1.261,0-2.122-0.83-2.122-2.179c0-0.744,0.345-1.462,1.005-2.12
		c1.691-1.748,3.869-2.637,6.534-2.637c1.49,0,3.41,0.573,5.731,1.719c2.35,1.118,4.213,1.692,5.589,1.692
		c1.289,0,2.435-0.459,3.41-1.348c0.66-0.602,1.319-0.889,1.977-0.889c1.263,0,2.122,0.832,2.122,2.18
		c0,0.746-0.343,1.432-1.002,2.092c-1.69,1.746-3.842,2.637-6.505,2.637c-1.605,0-3.554-0.574-5.875-1.692
		c-2.322-1.118-4.126-1.69-5.445-1.69c-1.289,0-2.435,0.459-3.411,1.346C485.135,1359.778,484.475,1360.065,483.759,1360.065z"/>
</g>
<g id="Layer_3_9_">
	<path fill="#A6A9FF" d="M937.861,1345.955c0-1.513,0.505-2.775,1.512-3.751c1.008-0.976,2.238-1.479,3.72-1.479
		s2.71,0.504,3.719,1.479c1.007,0.976,1.513,2.238,1.513,3.751c0,1.48-0.505,2.743-1.513,3.719
		c-1.009,0.978-2.238,1.481-3.719,1.481s-2.711-0.504-3.72-1.481C938.366,1348.698,937.861,1347.436,937.861,1345.955z
		 M937.861,1368.395c0-1.514,0.505-2.773,1.512-3.75c1.009-0.978,2.238-1.481,3.72-1.481s2.71,0.504,3.719,1.481
		c1.007,0.977,1.513,2.236,1.513,3.75c0,1.512-0.505,2.772-1.513,3.752c-1.009,0.976-2.238,1.479-3.719,1.479
		s-2.711-0.505-3.72-1.479C938.366,1371.167,937.861,1369.906,937.861,1368.395z"/>
</g>
<g id="Layer_4_8_">
	<path fill="#63AFEF" d="M627.981,1446.916c1.894,0,3.554,1.622,3.554,3.517c0,0.888-0.309,1.737-0.888,2.511
		c-6.491,7.609-9.736,17.77-9.736,30.558c0,12.748,3.245,22.908,9.736,30.52c0.579,0.812,0.888,1.66,0.888,2.549
		c0,1.893-1.661,3.477-3.554,3.477c-1.121,0-2.048-0.463-2.781-1.43c-7.611-8.847-11.396-20.552-11.396-35.115
		c0-14.565,3.785-26.308,11.396-35.155C626.05,1447.379,626.977,1446.916,627.981,1446.916z"/>
	<path fill="#63AFEF" d="M1544.204,1520.046c-1.893,0-3.555-1.62-3.555-3.517c0-0.887,0.309-1.736,0.889-2.51
		c6.49-7.609,9.735-17.77,9.735-30.559c0-12.748-3.245-22.907-9.735-30.519c-0.58-0.812-0.889-1.661-0.889-2.55
		c0-1.893,1.662-3.477,3.555-3.477c1.121,0,2.047,0.463,2.781,1.429c7.611,8.847,11.396,20.552,11.396,35.116
		s-3.784,26.308-11.396,35.156C1546.136,1519.585,1545.208,1520.046,1544.204,1520.046z"/>
</g>
<g id="Layer_3_8_">
	<path fill="#63DDCE" d="M1095.81,1462.926c0,1.514-0.505,2.774-1.514,3.785c-1.009,1.007-2.237,1.51-3.72,1.51
		c-1.48,0-2.709-0.502-3.75-1.51c-1.039-1.041-1.544-2.303-1.544-3.785v-0.473c0-3.182,0.788-6.02,2.364-8.509
		c1.575-2.49,3.688-4.287,6.366-5.357c0.283-0.127,0.601-0.189,0.944-0.189c1.135,0,1.955,0.819,1.955,1.733
		c0,0.851-0.535,1.481-1.607,1.859c-2.332,0.819-3.497,2.301-3.497,4.413c0,0.914,0.44,1.544,1.292,1.921
		C1094.895,1459.272,1095.81,1460.814,1095.81,1462.926z M1108.73,1462.926c0,1.514-0.505,2.774-1.545,3.785
		c-1.009,1.007-2.236,1.51-3.719,1.51c-1.449,0-2.678-0.502-3.718-1.51c-1.041-1.041-1.546-2.303-1.546-3.785v-0.473
		c0-3.182,0.789-6.02,2.334-8.509c1.575-2.49,3.688-4.287,6.364-5.357c0.284-0.127,0.632-0.189,0.978-0.189
		c1.135,0,1.923,0.819,1.923,1.733c0,0.851-0.535,1.481-1.606,1.859c-2.334,0.819-3.5,2.301-3.468,4.413
		c-0.032,0.914,0.41,1.544,1.262,1.921C1107.785,1459.272,1108.697,1460.814,1108.73,1462.926z"/>
	<path fill="#63DDCE" d="M1268.75,1453.692c0-1.513,0.505-2.774,1.514-3.784c1.01-1.009,2.236-1.511,3.719-1.511
		c1.481,0,2.71,0.502,3.75,1.511c1.04,1.04,1.545,2.302,1.545,3.784v0.473c0,3.182-0.788,6.019-2.363,8.509
		c-1.576,2.489-3.689,4.286-6.367,5.357c-0.283,0.127-0.6,0.189-0.945,0.189c-1.134,0-1.954-0.819-1.954-1.732
		c0-0.852,0.536-1.482,1.607-1.859c2.332-0.82,3.497-2.301,3.497-4.413c0-0.913-0.439-1.544-1.291-1.921
		C1269.665,1457.346,1268.75,1455.803,1268.75,1453.692z M1255.828,1453.692c0-1.513,0.505-2.774,1.545-3.784
		c1.009-1.009,2.236-1.511,3.718-1.511c1.451,0,2.68,0.502,3.719,1.511c1.04,1.04,1.545,2.302,1.545,3.784v0.473
		c0,3.182-0.788,6.019-2.332,8.509c-1.576,2.489-3.688,4.286-6.366,5.357c-0.283,0.127-0.629,0.189-0.976,0.189
		c-1.136,0-1.925-0.819-1.925-1.732c0-0.852,0.537-1.482,1.609-1.859c2.331-0.82,3.496-2.301,3.466-4.413
		c0.03-0.913-0.409-1.544-1.261-1.921C1256.775,1457.346,1255.862,1455.803,1255.828,1453.692z"/>
</g>
<g id="Layer_1_11_">
	<path fill="#FFFFFF" d="M483.759,1617.064c-1.261,0-2.122-0.83-2.122-2.179c0-0.745,0.345-1.462,1.005-2.12
		c1.691-1.748,3.869-2.637,6.534-2.637c1.49,0,3.41,0.574,5.731,1.719c2.35,1.119,4.213,1.691,5.589,1.691
		c1.289,0,2.435-0.458,3.41-1.347c0.66-0.601,1.319-0.889,1.977-0.889c1.263,0,2.122,0.832,2.122,2.179
		c0,0.746-0.343,1.433-1.002,2.092c-1.69,1.748-3.842,2.637-6.505,2.637c-1.605,0-3.554-0.573-5.875-1.691
		c-2.322-1.118-4.126-1.69-5.445-1.69c-1.289,0-2.435,0.458-3.411,1.347C485.135,1616.777,484.475,1617.064,483.759,1617.064z"/>
</g>
<g id="Layer_2_8_">
	<path fill="#7152B9" d="M777.082,1598.676c0,4.033-0.413,6.998-1.274,8.824c-0.863,1.828-2.552,3.379-5.138,4.654
		c2.585,1.277,4.31,2.826,5.138,4.654c0.862,1.827,1.274,4.792,1.274,8.826v12.376h8.619c2.173,0,3.24,0.933,3.24,2.827
		c0,1.896-1.067,2.826-3.24,2.826h-11.377c-2.239,0-3.584-1.549-3.584-3.345v-16.099c0-6.032-2.759-9.24-6.999-9.24
		c-1.792,0-2.827-1.137-2.827-2.827c0-1.688,1.035-2.825,2.827-2.825c4.24,0,6.999-3.206,6.999-9.24v-16.098
		c0-1.795,1.345-3.312,3.584-3.312h11.377c2.173,0,3.24,0.931,3.24,2.827s-1.067,2.826-3.24,2.826h-8.619V1598.676z"/>
	<path fill="#7152B9" d="M1413.314,1625.669c0-4.033,0.412-6.998,1.274-8.825c0.862-1.826,2.552-3.378,5.137-4.652
		c-2.585-1.277-4.31-2.828-5.137-4.656c-0.864-1.826-1.274-4.791-1.274-8.825v-12.376h-8.621c-2.172,0-3.238-0.933-3.238-2.828
		c0-1.896,1.066-2.826,3.238-2.826h11.378c2.241,0,3.585,1.55,3.585,3.345v16.099c0,6.035,2.758,9.24,6.998,9.24
		c1.793,0,2.828,1.138,2.828,2.828c0,1.688-1.035,2.825-2.828,2.825c-4.24,0-6.998,3.206-6.998,9.24v16.099
		c0,1.793-1.344,3.311-3.585,3.311h-11.378c-2.172,0-3.238-0.931-3.238-2.826c0-1.897,1.066-2.827,3.238-2.827h8.621V1625.669z"/>
</g>
<g id="Layer_1_10_">
	<path fill="#45AD97" d="M350.455,1714.031c3.733,0,6.735,1.255,9.002,3.802c2.268,2.511,4.71,6.595,7.292,12.28l13.572,29.863
		c0.173,0.596,0.278,1.014,0.278,1.292c0,1.5-0.698,2.582-2.058,3.209c-0.386,0.175-0.837,0.279-1.361,0.279
		c-1.465,0-2.512-0.696-3.141-2.059l-10.502-24.109l-10.571,24.109c-0.628,1.362-1.674,2.059-3.14,2.059
		c-0.523,0-0.976-0.104-1.36-0.279c-1.36-0.593-2.058-1.674-2.058-3.209c0-0.488,0.104-0.906,0.279-1.292l13.222-29.795
		l-0.383-0.871c-1.501-3.592-2.896-6.105-4.116-7.465c-1.223-1.396-2.861-2.094-4.956-2.094c-1.116,0-2.511,0.698-3.348,0.698
		c-1.536,0-2.722-1.083-2.722-2.792C344.386,1715.252,346.409,1714.031,350.455,1714.031z"/>
</g>
<g id="Layer_4_7_">
	<path fill="#63AFEF" d="M627.981,1703.915c1.894,0,3.554,1.622,3.554,3.517c0,0.888-0.309,1.736-0.888,2.51
		c-6.491,7.61-9.736,17.77-9.736,30.559c0,12.748,3.245,22.908,9.736,30.52c0.579,0.812,0.888,1.66,0.888,2.549
		c0,1.893-1.661,3.477-3.554,3.477c-1.121,0-2.048-0.463-2.781-1.43c-7.611-8.846-11.396-20.552-11.396-35.115
		c0-14.564,3.785-26.309,11.396-35.156C626.05,1704.377,626.977,1703.915,627.981,1703.915z"/>
	<path fill="#63AFEF" d="M1544.204,1777.045c-1.893,0-3.555-1.62-3.555-3.517c0-0.887,0.309-1.736,0.889-2.51
		c6.49-7.61,9.735-17.77,9.735-30.558c0-12.748-3.245-22.908-9.735-30.52c-0.58-0.812-0.889-1.66-0.889-2.551
		c0-1.892,1.662-3.477,3.555-3.477c1.121,0,2.047,0.463,2.781,1.43c7.611,8.848,11.396,20.553,11.396,35.115
		c0,14.565-3.784,26.309-11.396,35.157C1546.136,1776.584,1545.208,1777.045,1544.204,1777.045z"/>
</g>
<g id="Layer_3_7_">
	<path fill="#63DDCE" d="M1095.81,1719.925c0,1.513-0.505,2.774-1.514,3.784c-1.009,1.008-2.237,1.511-3.72,1.511
		c-1.48,0-2.709-0.503-3.75-1.511c-1.039-1.04-1.544-2.302-1.544-3.784v-0.474c0-3.181,0.788-6.018,2.364-8.508
		c1.575-2.49,3.688-4.287,6.366-5.357c0.283-0.127,0.601-0.189,0.944-0.189c1.135,0,1.955,0.819,1.955,1.732
		c0,0.852-0.535,1.482-1.607,1.859c-2.332,0.82-3.497,2.301-3.497,4.414c0,0.914,0.44,1.545,1.292,1.921
		C1094.895,1716.271,1095.81,1717.813,1095.81,1719.925z M1108.73,1719.925c0,1.513-0.505,2.774-1.545,3.784
		c-1.009,1.008-2.236,1.511-3.719,1.511c-1.449,0-2.678-0.503-3.718-1.511c-1.041-1.04-1.546-2.302-1.546-3.784v-0.474
		c0-3.181,0.789-6.018,2.334-8.508c1.575-2.49,3.688-4.287,6.364-5.357c0.284-0.127,0.632-0.189,0.978-0.189
		c1.135,0,1.923,0.819,1.923,1.732c0,0.852-0.535,1.482-1.606,1.859c-2.334,0.82-3.5,2.301-3.468,4.414
		c-0.032,0.914,0.41,1.545,1.262,1.921C1107.785,1716.271,1108.697,1717.813,1108.73,1719.925z"/>
	<path fill="#63DDCE" d="M1268.75,1710.691c0-1.514,0.505-2.774,1.514-3.785c1.01-1.008,2.236-1.51,3.719-1.51
		c1.481,0,2.71,0.502,3.75,1.51c1.04,1.041,1.545,2.303,1.545,3.785v0.473c0,3.182-0.788,6.019-2.363,8.509
		c-1.576,2.489-3.689,4.286-6.367,5.357c-0.283,0.126-0.6,0.189-0.945,0.189c-1.134,0-1.954-0.819-1.954-1.733
		c0-0.851,0.536-1.481,1.607-1.859c2.332-0.819,3.497-2.301,3.497-4.412c0-0.913-0.439-1.544-1.291-1.922
		C1269.665,1714.345,1268.75,1712.802,1268.75,1710.691z M1255.828,1710.691c0-1.514,0.505-2.774,1.545-3.785
		c1.009-1.008,2.236-1.51,3.718-1.51c1.451,0,2.68,0.502,3.719,1.51c1.04,1.041,1.545,2.303,1.545,3.785v0.473
		c0,3.182-0.788,6.019-2.332,8.509c-1.576,2.489-3.688,4.286-6.366,5.357c-0.283,0.126-0.629,0.189-0.976,0.189
		c-1.136,0-1.925-0.819-1.925-1.733c0-0.851,0.537-1.481,1.609-1.859c2.331-0.819,3.496-2.301,3.466-4.412
		c0.03-0.913-0.409-1.544-1.261-1.922C1256.775,1714.345,1255.862,1712.802,1255.828,1710.691z"/>
</g>
<g id="Layer_2_7_">
	<path fill="#7152B9" d="M777.082,1855.675c0,4.033-0.413,6.998-1.274,8.823c-0.863,1.828-2.552,3.38-5.138,4.654
		c2.585,1.278,4.31,2.827,5.138,4.655c0.862,1.826,1.274,4.792,1.274,8.826v12.376h8.619c2.173,0,3.24,0.933,3.24,2.827
		c0,1.896-1.067,2.827-3.24,2.827h-11.377c-2.239,0-3.584-1.55-3.584-3.346v-16.099c0-6.033-2.759-9.24-6.999-9.24
		c-1.792,0-2.827-1.136-2.827-2.827c0-1.688,1.035-2.826,2.827-2.826c4.24,0,6.999-3.205,6.999-9.239v-16.099
		c0-1.794,1.345-3.311,3.584-3.311h11.377c2.173,0,3.24,0.93,3.24,2.826c0,1.897-1.067,2.827-3.24,2.827h-8.619V1855.675z"/>
	<path fill="#7152B9" d="M1413.314,1882.668c0-4.033,0.412-6.997,1.274-8.824s2.552-3.379,5.137-4.654
		c-2.585-1.276-4.31-2.826-5.137-4.654c-0.864-1.827-1.274-4.793-1.274-8.826v-12.377h-8.621c-2.172,0-3.238-0.933-3.238-2.827
		c0-1.896,1.066-2.827,3.238-2.827h11.378c2.241,0,3.585,1.551,3.585,3.346v16.098c0,6.035,2.758,9.242,6.998,9.242
		c1.793,0,2.828,1.137,2.828,2.826c0,1.688-1.035,2.827-2.828,2.827c-4.24,0-6.998,3.205-6.998,9.239v16.098
		c0,1.794-1.344,3.311-3.585,3.311h-11.378c-2.172,0-3.238-0.93-3.238-2.826s1.066-2.827,3.238-2.827h8.621V1882.668z"/>
</g>
<g id="Layer_1_9_">
	<path fill="#45AD97" d="M350.455,1968.589c3.733,0,6.735,1.255,9.002,3.803c2.268,2.511,4.71,6.595,7.292,12.28l13.572,29.863
		c0.173,0.596,0.278,1.013,0.278,1.292c0,1.499-0.698,2.582-2.058,3.209c-0.386,0.174-0.837,0.279-1.361,0.279
		c-1.465,0-2.512-0.697-3.141-2.059l-10.502-24.109l-10.571,24.109c-0.628,1.361-1.674,2.059-3.14,2.059
		c-0.523,0-0.976-0.105-1.36-0.279c-1.36-0.593-2.058-1.674-2.058-3.209c0-0.488,0.104-0.906,0.279-1.292l13.222-29.795
		l-0.383-0.871c-1.501-3.592-2.896-6.105-4.116-7.464c-1.223-1.396-2.861-2.096-4.956-2.096c-1.116,0-2.511,0.699-3.348,0.699
		c-1.536,0-2.722-1.084-2.722-2.793C344.386,1969.81,346.409,1968.589,350.455,1968.589z"/>
	<path fill="#FFFFFF" d="M483.759,2000.122c-1.261,0-2.122-0.83-2.122-2.178c0-0.745,0.345-1.463,1.005-2.121
		c1.691-1.748,3.869-2.637,6.534-2.637c1.49,0,3.41,0.574,5.731,1.719c2.35,1.118,4.213,1.691,5.589,1.691
		c1.289,0,2.435-0.457,3.41-1.347c0.66-0.601,1.319-0.889,1.977-0.889c1.263,0,2.122,0.832,2.122,2.179
		c0,0.746-0.343,1.433-1.002,2.093c-1.69,1.746-3.842,2.636-6.505,2.636c-1.605,0-3.554-0.573-5.875-1.69
		c-2.322-1.119-4.126-1.691-5.445-1.691c-1.289,0-2.435,0.458-3.411,1.346C485.135,1999.835,484.475,2000.122,483.759,2000.122z"/>
</g>
<g id="Layer_3_6_">
	<path fill="#A6A9FF" d="M937.861,1986.012c0-1.513,0.505-2.774,1.512-3.751c1.008-0.976,2.238-1.479,3.72-1.479
		s2.71,0.503,3.719,1.479c1.007,0.977,1.513,2.238,1.513,3.751c0,1.48-0.505,2.743-1.513,3.719
		c-1.009,0.978-2.238,1.481-3.719,1.481s-2.711-0.504-3.72-1.481C938.366,1988.755,937.861,1987.492,937.861,1986.012z
		 M937.861,2008.451c0-1.513,0.505-2.773,1.512-3.749c1.009-0.978,2.238-1.482,3.72-1.482s2.71,0.505,3.719,1.482
		c1.007,0.976,1.513,2.236,1.513,3.749c0,1.511-0.505,2.772-1.513,3.751c-1.009,0.977-2.238,1.48-3.719,1.48s-2.711-0.505-3.72-1.48
		C938.366,2011.224,937.861,2009.962,937.861,2008.451z"/>
</g>
<g id="Layer_4_6_">
	<path fill="#63AFEF" d="M627.981,2086.973c1.894,0,3.554,1.622,3.554,3.517c0,0.888-0.309,1.737-0.888,2.511
		c-6.491,7.609-9.736,17.77-9.736,30.558c0,12.748,3.245,22.908,9.736,30.52c0.579,0.812,0.888,1.66,0.888,2.549
		c0,1.893-1.661,3.477-3.554,3.477c-1.121,0-2.048-0.463-2.781-1.43c-7.611-8.847-11.396-20.552-11.396-35.115
		c0-14.565,3.785-26.309,11.396-35.155C626.05,2087.436,626.977,2086.973,627.981,2086.973z"/>
	<path fill="#63AFEF" d="M1544.204,2160.103c-1.893,0-3.555-1.62-3.555-3.516c0-0.888,0.309-1.737,0.889-2.512
		c6.49-7.608,9.735-17.769,9.735-30.558c0-12.747-3.245-22.906-9.735-30.52c-0.58-0.812-0.889-1.659-0.889-2.549
		c0-1.893,1.662-3.478,3.555-3.478c1.121,0,2.047,0.464,2.781,1.43c7.611,8.848,11.396,20.553,11.396,35.116
		c0,14.564-3.784,26.308-11.396,35.156C1546.136,2159.642,1545.208,2160.103,1544.204,2160.103z"/>
</g>
<g id="Layer_1_8_">
	<path fill="#FFFFFF" d="M483.759,2257.121c-1.261,0-2.122-0.83-2.122-2.178c0-0.745,0.345-1.463,1.005-2.121
		c1.691-1.748,3.869-2.637,6.534-2.637c1.49,0,3.41,0.574,5.731,1.719c2.35,1.118,4.213,1.691,5.589,1.691
		c1.289,0,2.435-0.457,3.41-1.347c0.66-0.602,1.319-0.889,1.977-0.889c1.263,0,2.122,0.832,2.122,2.179
		c0,0.746-0.343,1.433-1.002,2.092c-1.69,1.747-3.842,2.637-6.505,2.637c-1.605,0-3.554-0.573-5.875-1.69
		c-2.322-1.119-4.126-1.691-5.445-1.691c-1.289,0-2.435,0.458-3.411,1.346C485.135,2256.834,484.475,2257.121,483.759,2257.121z"/>
</g>
<g id="Layer_2_6_">
	<path fill="#7152B9" d="M777.082,2238.731c0,4.034-0.413,7-1.274,8.825c-0.863,1.827-2.552,3.38-5.138,4.654
		c2.585,1.277,4.31,2.826,5.138,4.654c0.862,1.827,1.274,4.792,1.274,8.826v12.376h8.619c2.173,0,3.24,0.933,3.24,2.827
		c0,1.896-1.067,2.827-3.24,2.827h-11.377c-2.239,0-3.584-1.549-3.584-3.345v-16.1c0-6.032-2.759-9.24-6.999-9.24
		c-1.792,0-2.827-1.137-2.827-2.827c0-1.688,1.035-2.826,2.827-2.826c4.24,0,6.999-3.205,6.999-9.239v-16.098
		c0-1.794,1.345-3.312,3.584-3.312h11.377c2.173,0,3.24,0.93,3.24,2.826c0,1.898-1.067,2.827-3.24,2.827h-8.619V2238.731z"/>
	<path fill="#7152B9" d="M1413.314,2265.726c0-4.033,0.412-6.998,1.274-8.824c0.862-1.827,2.552-3.379,5.137-4.654
		c-2.585-1.276-4.31-2.827-5.137-4.655c-0.864-1.826-1.274-4.791-1.274-8.825v-12.376h-8.621c-2.172,0-3.238-0.933-3.238-2.827
		c0-1.897,1.066-2.827,3.238-2.827h11.378c2.241,0,3.585,1.55,3.585,3.345v16.098c0,6.036,2.758,9.241,6.998,9.241
		c1.793,0,2.828,1.139,2.828,2.827c0,1.689-1.035,2.826-2.828,2.826c-4.24,0-6.998,3.206-6.998,9.24v16.098
		c0,1.794-1.344,3.311-3.585,3.311h-11.378c-2.172,0-3.238-0.929-3.238-2.825c0-1.898,1.066-2.827,3.238-2.827h8.621V2265.726z"/>
</g>
<g id="Layer_1_7_">
	<path fill="#45AD97" d="M350.455,2354.087c3.733,0,6.735,1.256,9.002,3.803c2.268,2.511,4.71,6.595,7.292,12.281l13.572,29.863
		c0.173,0.595,0.278,1.013,0.278,1.291c0,1.499-0.698,2.582-2.058,3.209c-0.386,0.175-0.837,0.28-1.361,0.28
		c-1.465,0-2.512-0.698-3.141-2.059l-10.502-24.11l-10.571,24.11c-0.628,1.36-1.674,2.059-3.14,2.059
		c-0.523,0-0.976-0.105-1.36-0.28c-1.36-0.592-2.058-1.673-2.058-3.209c0-0.488,0.104-0.906,0.279-1.291l13.222-29.796l-0.383-0.871
		c-1.501-3.592-2.896-6.104-4.116-7.464c-1.223-1.396-2.861-2.095-4.956-2.095c-1.116,0-2.511,0.698-3.348,0.698
		c-1.536,0-2.722-1.083-2.722-2.792C344.386,2355.308,346.409,2354.087,350.455,2354.087z"/>
</g>
<g id="Layer_4_5_">
	<path fill="#63AFEF" d="M627.981,2343.972c1.894,0,3.554,1.622,3.554,3.517c0,0.888-0.309,1.737-0.888,2.511
		c-6.491,7.609-9.736,17.77-9.736,30.558c0,12.748,3.245,22.909,9.736,30.52c0.579,0.812,0.888,1.66,0.888,2.549
		c0,1.894-1.661,3.477-3.554,3.477c-1.121,0-2.048-0.463-2.781-1.43c-7.611-8.846-11.396-20.552-11.396-35.115
		c0-14.565,3.785-26.309,11.396-35.155C626.05,2344.435,626.977,2343.972,627.981,2343.972z"/>
	<path fill="#63AFEF" d="M1544.204,2417.102c-1.893,0-3.555-1.62-3.555-3.516c0-0.888,0.309-1.737,0.889-2.512
		c6.49-7.608,9.735-17.769,9.735-30.558c0-12.747-3.245-22.906-9.735-30.52c-0.58-0.812-0.889-1.659-0.889-2.549
		c0-1.893,1.662-3.478,3.555-3.478c1.121,0,2.047,0.464,2.781,1.43c7.611,8.847,11.396,20.553,11.396,35.115
		c0,14.565-3.784,26.309-11.396,35.158C1546.136,2416.641,1545.208,2417.102,1544.204,2417.102z"/>
</g>
<g id="Layer_3_4_">
	<path fill="#63DDCE" d="M1095.81,2359.981c0,1.513-0.505,2.774-1.514,3.785c-1.009,1.007-2.237,1.51-3.72,1.51
		c-1.48,0-2.709-0.503-3.75-1.51c-1.039-1.041-1.544-2.303-1.544-3.785v-0.474c0-3.181,0.788-6.019,2.364-8.508
		c1.575-2.489,3.688-4.287,6.366-5.358c0.283-0.126,0.601-0.188,0.944-0.188c1.135,0,1.955,0.819,1.955,1.732
		c0,0.852-0.535,1.482-1.607,1.86c-2.332,0.819-3.497,2.3-3.497,4.412c0,0.916,0.44,1.546,1.292,1.923
		C1094.895,2356.328,1095.81,2357.871,1095.81,2359.981z M1108.73,2359.981c0,1.513-0.505,2.774-1.545,3.785
		c-1.009,1.007-2.236,1.51-3.719,1.51c-1.449,0-2.678-0.503-3.718-1.51c-1.041-1.041-1.546-2.303-1.546-3.785v-0.474
		c0-3.181,0.789-6.019,2.334-8.508c1.575-2.489,3.688-4.287,6.364-5.358c0.284-0.126,0.632-0.188,0.978-0.188
		c1.135,0,1.923,0.819,1.923,1.732c0,0.852-0.535,1.482-1.606,1.86c-2.334,0.819-3.5,2.3-3.468,4.412
		c-0.032,0.916,0.41,1.546,1.262,1.923C1107.785,2356.328,1108.697,2357.871,1108.73,2359.981z"/>
	<path fill="#63DDCE" d="M1268.75,2350.748c0-1.513,0.505-2.774,1.514-3.785c1.01-1.008,2.236-1.51,3.719-1.51
		c1.481,0,2.71,0.502,3.75,1.51c1.04,1.041,1.545,2.302,1.545,3.785v0.473c0,3.182-0.788,6.019-2.363,8.509
		c-1.576,2.49-3.689,4.286-6.367,5.357c-0.283,0.127-0.6,0.189-0.945,0.189c-1.134,0-1.954-0.819-1.954-1.732
		c0-0.852,0.536-1.482,1.607-1.86c2.332-0.82,3.497-2.3,3.497-4.412c0-0.914-0.439-1.544-1.291-1.921
		C1269.665,2354.401,1268.75,2352.859,1268.75,2350.748z M1255.828,2350.748c0-1.513,0.505-2.774,1.545-3.785
		c1.009-1.008,2.236-1.51,3.718-1.51c1.451,0,2.68,0.502,3.719,1.51c1.04,1.041,1.545,2.302,1.545,3.785v0.473
		c0,3.182-0.788,6.019-2.332,8.509c-1.576,2.49-3.688,4.286-6.366,5.357c-0.283,0.127-0.629,0.189-0.976,0.189
		c-1.136,0-1.925-0.819-1.925-1.732c0-0.852,0.537-1.482,1.609-1.86c2.331-0.82,3.496-2.3,3.466-4.412
		c0.03-0.914-0.409-1.544-1.261-1.921C1256.775,2354.401,1255.862,2352.859,1255.828,2350.748z"/>
</g>
</svg>
