<?xml version="1.0" encoding="utf-8"?>
<!-- Generator: Adobe Illustrator 16.0.0, SVG Export Plug-In . SVG Version: 6.00 Build 0)  -->
<!DOCTYPE svg PUBLIC "-//W3C//DTD SVG 1.1//EN" "http://www.w3.org/Graphics/SVG/1.1/DTD/svg11.dtd">
<svg version="1.1" id="Layer_1" xmlns="http://www.w3.org/2000/svg" xmlns:xlink="http://www.w3.org/1999/xlink" x="0px" y="0px"
	 width="300px" height="300px" viewBox="0 0 300 300" enable-background="new 0 0 300 300" xml:space="preserve">
<path fill="#4B6DD7" d="M131.271,275.809c-6.535,0-12.265-5.6-12.265-12.135c0-3.062,1.066-5.991,3.067-8.658
	c22.394-26.266,33.593-61.325,33.593-105.456c0-43.996-11.199-79.055-33.593-105.325c-2.001-2.797-3.067-5.726-3.067-8.797
	c0-6.531,5.73-12,12.265-12c3.868,0,7.066,1.601,9.598,4.934c26.266,30.534,39.332,70.927,39.332,121.188
	c0,50.261-13.066,90.785-39.332,121.319C137.937,274.212,134.734,275.809,131.271,275.809z"/>
</svg>
